solid OpenSCAD_Model
  facet normal -0.707107 -0.707107 0
    outer loop
      vertex 35.8808 31.5194 -78.5455
      vertex 31.5194 35.8808 -51.5455
      vertex 31.5194 35.8808 -78.5455
    endloop
  endfacet
  facet normal -0.707107 -0.707107 0
    outer loop
      vertex 31.5194 35.8808 -51.5455
      vertex 35.8808 31.5194 -78.5455
      vertex 35.8808 31.5194 -51.5455
    endloop
  endfacet
  facet normal -0.940881 -0.338738 0
    outer loop
      vertex 11.8038 66.9478 -78.5455
      vertex 9.71445 72.7511 -72.7511
      vertex 9.71445 72.7511 -78.5455
    endloop
  endfacet
  facet normal -0.940881 -0.338738 0
    outer loop
      vertex 9.71445 72.7511 -72.7511
      vertex 11.8038 66.9478 -78.5455
      vertex 11.8038 66.9478 -66.9478
    endloop
  endfacet
  facet normal -0.827081 -0.562083 0
    outer loop
      vertex 23.6602 45.3811 -78.5455
      vertex 20.1933 50.4825 -51.5455
      vertex 20.1933 50.4825 -78.5455
    endloop
  endfacet
  facet normal -0.827081 -0.562083 0
    outer loop
      vertex 20.1933 50.4825 -51.5455
      vertex 23.6602 45.3811 -78.5455
      vertex 23.6602 45.3811 -51.5455
    endloop
  endfacet
  facet normal -0.338738 -0.940881 0
    outer loop
      vertex 66.9478 11.8038 -78.5455
      vertex 72.7511 9.71445 -72.7511
      vertex 66.9478 11.8038 -66.9478
    endloop
  endfacet
  facet normal -0.338738 -0.940881 -0
    outer loop
      vertex 72.7511 9.71445 -72.7511
      vertex 66.9478 11.8038 -78.5455
      vertex 72.7511 9.71445 -78.5455
    endloop
  endfacet
  facet normal -0.45399 -0.891007 0
    outer loop
      vertex 55.7915 17.0535 -78.5455
      vertex 61.2871 14.2533 -61.2871
      vertex 55.7915 17.0535 -55.7915
    endloop
  endfacet
  facet normal -0.45399 -0.891007 -0
    outer loop
      vertex 61.2871 14.2533 -61.2871
      vertex 55.7915 17.0535 -78.5455
      vertex 61.2871 14.2533 -78.5455
    endloop
  endfacet
  facet normal -0.562083 -0.827081 0
    outer loop
      vertex 45.3811 23.6602 -78.5455
      vertex 50.4825 20.1933 -51.5455
      vertex 45.3811 23.6602 -51.5455
    endloop
  endfacet
  facet normal -0.562083 -0.827081 -0
    outer loop
      vertex 50.4825 20.1933 -51.5455
      vertex 45.3811 23.6602 -78.5455
      vertex 50.4825 20.1933 -78.5455
    endloop
  endfacet
  facet normal -0.509041 -0.860743 1.40005e-06
    outer loop
      vertex 50.4825 20.1933 -51.5455
      vertex 55.7915 17.0535 -55.7915
      vertex 51.5455 19.5646 -51.5455
    endloop
  endfacet
  facet normal -0.509041 -0.860742 0
    outer loop
      vertex 50.4825 20.1933 -78.5455
      vertex 55.7915 17.0535 -55.7915
      vertex 50.4825 20.1933 -51.5455
    endloop
  endfacet
  facet normal -0.509041 -0.860742 -0
    outer loop
      vertex 55.7915 17.0535 -55.7915
      vertex 50.4825 20.1933 -78.5455
      vertex 55.7915 17.0535 -78.5455
    endloop
  endfacet
  facet normal -0.661312 -0.750111 0
    outer loop
      vertex 35.8808 31.5194 -78.5455
      vertex 40.5075 27.4405 -51.5455
      vertex 35.8808 31.5194 -51.5455
    endloop
  endfacet
  facet normal -0.661312 -0.750111 -0
    outer loop
      vertex 40.5075 27.4405 -51.5455
      vertex 35.8808 31.5194 -78.5455
      vertex 40.5075 27.4405 -78.5455
    endloop
  endfacet
  facet normal -0.612907 -0.790155 0
    outer loop
      vertex 40.5075 27.4405 -78.5455
      vertex 45.3811 23.6602 -51.5455
      vertex 40.5075 27.4405 -51.5455
    endloop
  endfacet
  facet normal -0.612907 -0.790155 -0
    outer loop
      vertex 45.3811 23.6602 -51.5455
      vertex 40.5075 27.4405 -78.5455
      vertex 45.3811 23.6602 -78.5455
    endloop
  endfacet
  facet normal -0.960294 -0.278991 -0
    outer loop
      vertex 9.71445 72.7511 -72.7511
      vertex 8.03102 78.5455 -78.5455
      vertex 9.71445 72.7511 -78.5455
    endloop
  endfacet
  facet normal -0.860742 -0.509041 0
    outer loop
      vertex 20.1933 50.4825 -78.5455
      vertex 17.0535 55.7915 -55.7915
      vertex 17.0535 55.7915 -78.5455
    endloop
  endfacet
  facet normal -0.860742 -0.509041 -0
    outer loop
      vertex 20.1933 50.4825 -51.5455
      vertex 17.0535 55.7915 -55.7915
      vertex 20.1933 50.4825 -78.5455
    endloop
  endfacet
  facet normal -0.860743 -0.509041 1.40005e-06
    outer loop
      vertex 17.0535 55.7915 -55.7915
      vertex 20.1933 50.4825 -51.5455
      vertex 19.5646 51.5455 -51.5455
    endloop
  endfacet
  facet normal -0.917755 -0.397148 0
    outer loop
      vertex 14.2533 61.2871 -78.5455
      vertex 11.8038 66.9478 -66.9478
      vertex 11.8038 66.9478 -78.5455
    endloop
  endfacet
  facet normal -0.917755 -0.397148 0
    outer loop
      vertex 11.8038 66.9478 -66.9478
      vertex 14.2533 61.2871 -78.5455
      vertex 14.2533 61.2871 -61.2871
    endloop
  endfacet
  facet normal -0.790155 -0.612907 0
    outer loop
      vertex 27.4405 40.5075 -78.5455
      vertex 23.6602 45.3811 -51.5455
      vertex 23.6602 45.3811 -78.5455
    endloop
  endfacet
  facet normal -0.790155 -0.612907 0
    outer loop
      vertex 23.6602 45.3811 -51.5455
      vertex 27.4405 40.5075 -78.5455
      vertex 27.4405 40.5075 -51.5455
    endloop
  endfacet
  facet normal -0.278991 -0.960294 -0
    outer loop
      vertex 72.7511 9.71445 -72.7511
      vertex 72.7511 9.71445 -78.5455
      vertex 78.5455 8.03102 -78.5455
    endloop
  endfacet
  facet normal -0.397148 -0.917755 0
    outer loop
      vertex 61.2871 14.2533 -78.5455
      vertex 66.9478 11.8038 -66.9478
      vertex 61.2871 14.2533 -61.2871
    endloop
  endfacet
  facet normal -0.397148 -0.917755 -0
    outer loop
      vertex 66.9478 11.8038 -66.9478
      vertex 61.2871 14.2533 -78.5455
      vertex 66.9478 11.8038 -78.5455
    endloop
  endfacet
  facet normal -0.891007 -0.45399 0
    outer loop
      vertex 17.0535 55.7915 -78.5455
      vertex 14.2533 61.2871 -61.2871
      vertex 14.2533 61.2871 -78.5455
    endloop
  endfacet
  facet normal -0.891007 -0.45399 0
    outer loop
      vertex 14.2533 61.2871 -61.2871
      vertex 17.0535 55.7915 -78.5455
      vertex 17.0535 55.7915 -55.7915
    endloop
  endfacet
  facet normal -0.750111 -0.661312 0
    outer loop
      vertex 31.5194 35.8808 -78.5455
      vertex 27.4405 40.5075 -51.5455
      vertex 27.4405 40.5075 -78.5455
    endloop
  endfacet
  facet normal -0.750111 -0.661312 0
    outer loop
      vertex 27.4405 40.5075 -51.5455
      vertex 31.5194 35.8808 -78.5455
      vertex 31.5194 35.8808 -51.5455
    endloop
  endfacet
  facet normal 0 -0.338738 0.940881
    outer loop
      vertex 72.7511 72.7511 -9.71445
      vertex 78.5455 66.9478 -11.8038
      vertex 78.5455 72.7511 -9.71445
    endloop
  endfacet
  facet normal 0 -0.338738 0.940881
    outer loop
      vertex 78.5455 66.9478 -11.8038
      vertex 72.7511 72.7511 -9.71445
      vertex 66.9478 66.9478 -11.8038
    endloop
  endfacet
  facet normal 0 -0.917755 0.397148
    outer loop
      vertex 66.9478 11.8038 -66.9478
      vertex 78.5455 14.2533 -61.2871
      vertex 61.2871 14.2533 -61.2871
    endloop
  endfacet
  facet normal 0 -0.917755 0.397148
    outer loop
      vertex 78.5455 14.2533 -61.2871
      vertex 66.9478 11.8038 -66.9478
      vertex 78.5455 11.8038 -66.9478
    endloop
  endfacet
  facet normal 0 -0.707107 0.707107
    outer loop
      vertex 51.5455 31.5194 -35.8808
      vertex 78.5455 35.8808 -31.5194
      vertex 51.5455 35.8808 -31.5194
    endloop
  endfacet
  facet normal 0 -0.707107 0.707107
    outer loop
      vertex 78.5455 35.8808 -31.5194
      vertex 51.5455 31.5194 -35.8808
      vertex 78.5455 31.5194 -35.8808
    endloop
  endfacet
  facet normal -1.40005e-06 -0.860743 0.509041
    outer loop
      vertex 55.7915 17.0535 -55.7915
      vertex 51.5455 20.1933 -50.4825
      vertex 51.5455 19.5646 -51.5455
    endloop
  endfacet
  facet normal 0 -0.860742 0.509041
    outer loop
      vertex 51.5455 20.1933 -50.4825
      vertex 55.7915 17.0535 -55.7915
      vertex 78.5455 20.1933 -50.4825
    endloop
  endfacet
  facet normal 0 -0.860742 0.509041
    outer loop
      vertex 78.5455 20.1933 -50.4825
      vertex 55.7915 17.0535 -55.7915
      vertex 78.5455 17.0535 -55.7915
    endloop
  endfacet
  facet normal 0 -0.790155 0.612907
    outer loop
      vertex 51.5455 23.6602 -45.3811
      vertex 78.5455 27.4405 -40.5075
      vertex 51.5455 27.4405 -40.5075
    endloop
  endfacet
  facet normal 0 -0.790155 0.612907
    outer loop
      vertex 78.5455 27.4405 -40.5075
      vertex 51.5455 23.6602 -45.3811
      vertex 78.5455 23.6602 -45.3811
    endloop
  endfacet
  facet normal 0 -0.509041 0.860742
    outer loop
      vertex 55.7915 55.7915 -17.0535
      vertex 78.5455 50.4825 -20.1933
      vertex 78.5455 55.7915 -17.0535
    endloop
  endfacet
  facet normal -1.40005e-06 -0.509041 0.860743
    outer loop
      vertex 51.5455 50.4825 -20.1933
      vertex 55.7915 55.7915 -17.0535
      vertex 51.5455 51.5455 -19.5646
    endloop
  endfacet
  facet normal 0 -0.509041 0.860742
    outer loop
      vertex 55.7915 55.7915 -17.0535
      vertex 51.5455 50.4825 -20.1933
      vertex 78.5455 50.4825 -20.1933
    endloop
  endfacet
  facet normal 0 -0.562083 0.827081
    outer loop
      vertex 51.5455 50.4825 -20.1933
      vertex 78.5455 45.3811 -23.6602
      vertex 78.5455 50.4825 -20.1933
    endloop
  endfacet
  facet normal 0 -0.562083 0.827081
    outer loop
      vertex 78.5455 45.3811 -23.6602
      vertex 51.5455 50.4825 -20.1933
      vertex 51.5455 45.3811 -23.6602
    endloop
  endfacet
  facet normal 0 -0.45399 0.891007
    outer loop
      vertex 61.2871 61.2871 -14.2533
      vertex 78.5455 55.7915 -17.0535
      vertex 78.5455 61.2871 -14.2533
    endloop
  endfacet
  facet normal 0 -0.45399 0.891007
    outer loop
      vertex 78.5455 55.7915 -17.0535
      vertex 61.2871 61.2871 -14.2533
      vertex 55.7915 55.7915 -17.0535
    endloop
  endfacet
  facet normal 0 -0.960294 0.278991
    outer loop
      vertex 78.5455 9.71445 -72.7511
      vertex 72.7511 9.71445 -72.7511
      vertex 78.5455 8.03102 -78.5455
    endloop
  endfacet
  facet normal 0 -0.940881 0.338738
    outer loop
      vertex 72.7511 9.71445 -72.7511
      vertex 78.5455 11.8038 -66.9478
      vertex 66.9478 11.8038 -66.9478
    endloop
  endfacet
  facet normal 0 -0.940881 0.338738
    outer loop
      vertex 78.5455 11.8038 -66.9478
      vertex 72.7511 9.71445 -72.7511
      vertex 78.5455 9.71445 -72.7511
    endloop
  endfacet
  facet normal 0 -0.891007 0.45399
    outer loop
      vertex 61.2871 14.2533 -61.2871
      vertex 78.5455 17.0535 -55.7915
      vertex 55.7915 17.0535 -55.7915
    endloop
  endfacet
  facet normal 0 -0.891007 0.45399
    outer loop
      vertex 78.5455 17.0535 -55.7915
      vertex 61.2871 14.2533 -61.2871
      vertex 78.5455 14.2533 -61.2871
    endloop
  endfacet
  facet normal 0 -0.827081 0.562083
    outer loop
      vertex 51.5455 20.1933 -50.4825
      vertex 78.5455 23.6602 -45.3811
      vertex 51.5455 23.6602 -45.3811
    endloop
  endfacet
  facet normal 0 -0.827081 0.562083
    outer loop
      vertex 78.5455 23.6602 -45.3811
      vertex 51.5455 20.1933 -50.4825
      vertex 78.5455 20.1933 -50.4825
    endloop
  endfacet
  facet normal 0 -0.750111 0.661312
    outer loop
      vertex 51.5455 27.4405 -40.5075
      vertex 78.5455 31.5194 -35.8808
      vertex 51.5455 31.5194 -35.8808
    endloop
  endfacet
  facet normal 0 -0.750111 0.661312
    outer loop
      vertex 78.5455 31.5194 -35.8808
      vertex 51.5455 27.4405 -40.5075
      vertex 78.5455 27.4405 -40.5075
    endloop
  endfacet
  facet normal 0 -0.278991 0.960294
    outer loop
      vertex 78.5455 78.5455 -8.03102
      vertex 72.7511 72.7511 -9.71445
      vertex 78.5455 72.7511 -9.71445
    endloop
  endfacet
  facet normal 0 -0.397148 0.917755
    outer loop
      vertex 66.9478 66.9478 -11.8038
      vertex 78.5455 61.2871 -14.2533
      vertex 78.5455 66.9478 -11.8038
    endloop
  endfacet
  facet normal 0 -0.397148 0.917755
    outer loop
      vertex 78.5455 61.2871 -14.2533
      vertex 66.9478 66.9478 -11.8038
      vertex 61.2871 61.2871 -14.2533
    endloop
  endfacet
  facet normal 0 -0.612907 0.790155
    outer loop
      vertex 51.5455 45.3811 -23.6602
      vertex 78.5455 40.5075 -27.4405
      vertex 78.5455 45.3811 -23.6602
    endloop
  endfacet
  facet normal 0 -0.612907 0.790155
    outer loop
      vertex 78.5455 40.5075 -27.4405
      vertex 51.5455 45.3811 -23.6602
      vertex 51.5455 40.5075 -27.4405
    endloop
  endfacet
  facet normal 0 -0.661312 0.750111
    outer loop
      vertex 51.5455 40.5075 -27.4405
      vertex 78.5455 35.8808 -31.5194
      vertex 78.5455 40.5075 -27.4405
    endloop
  endfacet
  facet normal 0 -0.661312 0.750111
    outer loop
      vertex 78.5455 35.8808 -31.5194
      vertex 51.5455 40.5075 -27.4405
      vertex 51.5455 35.8808 -31.5194
    endloop
  endfacet
  facet normal -0.338738 0 0.940881
    outer loop
      vertex 66.9478 78.5455 -11.8038
      vertex 72.7511 72.7511 -9.71445
      vertex 72.7511 78.5455 -9.71445
    endloop
  endfacet
  facet normal -0.338738 0 0.940881
    outer loop
      vertex 72.7511 72.7511 -9.71445
      vertex 66.9478 78.5455 -11.8038
      vertex 66.9478 66.9478 -11.8038
    endloop
  endfacet
  facet normal -0.940881 0 0.338738
    outer loop
      vertex 9.71445 72.7511 -72.7511
      vertex 11.8038 78.5455 -66.9478
      vertex 9.71445 78.5455 -72.7511
    endloop
  endfacet
  facet normal -0.940881 0 0.338738
    outer loop
      vertex 11.8038 78.5455 -66.9478
      vertex 9.71445 72.7511 -72.7511
      vertex 11.8038 66.9478 -66.9478
    endloop
  endfacet
  facet normal -0.790155 0 0.612907
    outer loop
      vertex 23.6602 51.5455 -45.3811
      vertex 27.4405 78.5455 -40.5075
      vertex 23.6602 78.5455 -45.3811
    endloop
  endfacet
  facet normal -0.790155 0 0.612907
    outer loop
      vertex 27.4405 78.5455 -40.5075
      vertex 23.6602 51.5455 -45.3811
      vertex 27.4405 51.5455 -40.5075
    endloop
  endfacet
  facet normal -0.707107 0 0.707107
    outer loop
      vertex 31.5194 51.5455 -35.8808
      vertex 35.8808 78.5455 -31.5194
      vertex 31.5194 78.5455 -35.8808
    endloop
  endfacet
  facet normal -0.707107 0 0.707107
    outer loop
      vertex 35.8808 78.5455 -31.5194
      vertex 31.5194 51.5455 -35.8808
      vertex 35.8808 51.5455 -31.5194
    endloop
  endfacet
  facet normal -0.509041 0 0.860742
    outer loop
      vertex 50.4825 78.5455 -20.1933
      vertex 55.7915 55.7915 -17.0535
      vertex 55.7915 78.5455 -17.0535
    endloop
  endfacet
  facet normal -0.509041 0 0.860742
    outer loop
      vertex 50.4825 51.5455 -20.1933
      vertex 55.7915 55.7915 -17.0535
      vertex 50.4825 78.5455 -20.1933
    endloop
  endfacet
  facet normal -0.509041 -1.40005e-06 0.860743
    outer loop
      vertex 55.7915 55.7915 -17.0535
      vertex 50.4825 51.5455 -20.1933
      vertex 51.5455 51.5455 -19.5646
    endloop
  endfacet
  facet normal -0.45399 0 0.891007
    outer loop
      vertex 55.7915 78.5455 -17.0535
      vertex 61.2871 61.2871 -14.2533
      vertex 61.2871 78.5455 -14.2533
    endloop
  endfacet
  facet normal -0.45399 0 0.891007
    outer loop
      vertex 61.2871 61.2871 -14.2533
      vertex 55.7915 78.5455 -17.0535
      vertex 55.7915 55.7915 -17.0535
    endloop
  endfacet
  facet normal -0.960294 0 0.278991
    outer loop
      vertex 9.71445 78.5455 -72.7511
      vertex 8.03102 78.5455 -78.5455
      vertex 9.71445 72.7511 -72.7511
    endloop
  endfacet
  facet normal -0.860742 0 0.509041
    outer loop
      vertex 17.0535 55.7915 -55.7915
      vertex 20.1933 78.5455 -50.4825
      vertex 17.0535 78.5455 -55.7915
    endloop
  endfacet
  facet normal -0.860743 -1.40005e-06 0.509041
    outer loop
      vertex 20.1933 51.5455 -50.4825
      vertex 17.0535 55.7915 -55.7915
      vertex 19.5646 51.5455 -51.5455
    endloop
  endfacet
  facet normal -0.860742 0 0.509041
    outer loop
      vertex 17.0535 55.7915 -55.7915
      vertex 20.1933 51.5455 -50.4825
      vertex 20.1933 78.5455 -50.4825
    endloop
  endfacet
  facet normal -0.827081 0 0.562083
    outer loop
      vertex 20.1933 51.5455 -50.4825
      vertex 23.6602 78.5455 -45.3811
      vertex 20.1933 78.5455 -50.4825
    endloop
  endfacet
  facet normal -0.827081 0 0.562083
    outer loop
      vertex 23.6602 78.5455 -45.3811
      vertex 20.1933 51.5455 -50.4825
      vertex 23.6602 51.5455 -45.3811
    endloop
  endfacet
  facet normal -0.397148 0 0.917755
    outer loop
      vertex 61.2871 78.5455 -14.2533
      vertex 66.9478 66.9478 -11.8038
      vertex 66.9478 78.5455 -11.8038
    endloop
  endfacet
  facet normal -0.397148 0 0.917755
    outer loop
      vertex 66.9478 66.9478 -11.8038
      vertex 61.2871 78.5455 -14.2533
      vertex 61.2871 61.2871 -14.2533
    endloop
  endfacet
  facet normal -0.562083 0 0.827081
    outer loop
      vertex 45.3811 78.5455 -23.6602
      vertex 50.4825 51.5455 -20.1933
      vertex 50.4825 78.5455 -20.1933
    endloop
  endfacet
  facet normal -0.562083 0 0.827081
    outer loop
      vertex 50.4825 51.5455 -20.1933
      vertex 45.3811 78.5455 -23.6602
      vertex 45.3811 51.5455 -23.6602
    endloop
  endfacet
  facet normal -0.661312 0 0.750111
    outer loop
      vertex 35.8808 78.5455 -31.5194
      vertex 40.5075 51.5455 -27.4405
      vertex 40.5075 78.5455 -27.4405
    endloop
  endfacet
  facet normal -0.661312 0 0.750111
    outer loop
      vertex 40.5075 51.5455 -27.4405
      vertex 35.8808 78.5455 -31.5194
      vertex 35.8808 51.5455 -31.5194
    endloop
  endfacet
  facet normal -0.891007 0 0.45399
    outer loop
      vertex 14.2533 61.2871 -61.2871
      vertex 17.0535 78.5455 -55.7915
      vertex 14.2533 78.5455 -61.2871
    endloop
  endfacet
  facet normal -0.891007 0 0.45399
    outer loop
      vertex 17.0535 78.5455 -55.7915
      vertex 14.2533 61.2871 -61.2871
      vertex 17.0535 55.7915 -55.7915
    endloop
  endfacet
  facet normal -0.917755 0 0.397148
    outer loop
      vertex 11.8038 66.9478 -66.9478
      vertex 14.2533 78.5455 -61.2871
      vertex 11.8038 78.5455 -66.9478
    endloop
  endfacet
  facet normal -0.917755 0 0.397148
    outer loop
      vertex 14.2533 78.5455 -61.2871
      vertex 11.8038 66.9478 -66.9478
      vertex 14.2533 61.2871 -61.2871
    endloop
  endfacet
  facet normal -0.750111 0 0.661312
    outer loop
      vertex 27.4405 51.5455 -40.5075
      vertex 31.5194 78.5455 -35.8808
      vertex 27.4405 78.5455 -40.5075
    endloop
  endfacet
  facet normal -0.750111 0 0.661312
    outer loop
      vertex 31.5194 78.5455 -35.8808
      vertex 27.4405 51.5455 -40.5075
      vertex 31.5194 51.5455 -35.8808
    endloop
  endfacet
  facet normal -0.278991 0 0.960294
    outer loop
      vertex 72.7511 78.5455 -9.71445
      vertex 72.7511 72.7511 -9.71445
      vertex 78.5455 78.5455 -8.03102
    endloop
  endfacet
  facet normal -0.612907 0 0.790155
    outer loop
      vertex 40.5075 78.5455 -27.4405
      vertex 45.3811 51.5455 -23.6602
      vertex 45.3811 78.5455 -23.6602
    endloop
  endfacet
  facet normal -0.612907 0 0.790155
    outer loop
      vertex 45.3811 51.5455 -23.6602
      vertex 40.5075 78.5455 -27.4405
      vertex 40.5075 51.5455 -27.4405
    endloop
  endfacet
  facet normal 1 -0 0
    outer loop
      vertex 78.5455 72.7511 -9.71445
      vertex 78.5455 78.5455 -78.5455
      vertex 78.5455 78.5455 -8.03102
    endloop
  endfacet
  facet normal 1 -0 0
    outer loop
      vertex 78.5455 66.9478 -11.8038
      vertex 78.5455 78.5455 -78.5455
      vertex 78.5455 72.7511 -9.71445
    endloop
  endfacet
  facet normal 1 -0 0
    outer loop
      vertex 78.5455 61.2871 -14.2533
      vertex 78.5455 78.5455 -78.5455
      vertex 78.5455 66.9478 -11.8038
    endloop
  endfacet
  facet normal 1 -0 0
    outer loop
      vertex 78.5455 55.7915 -17.0535
      vertex 78.5455 78.5455 -78.5455
      vertex 78.5455 61.2871 -14.2533
    endloop
  endfacet
  facet normal 1 -0 0
    outer loop
      vertex 78.5455 50.4825 -20.1933
      vertex 78.5455 78.5455 -78.5455
      vertex 78.5455 55.7915 -17.0535
    endloop
  endfacet
  facet normal 1 -0 0
    outer loop
      vertex 78.5455 45.3811 -23.6602
      vertex 78.5455 78.5455 -78.5455
      vertex 78.5455 50.4825 -20.1933
    endloop
  endfacet
  facet normal 1 -0 0
    outer loop
      vertex 78.5455 40.5075 -27.4405
      vertex 78.5455 78.5455 -78.5455
      vertex 78.5455 45.3811 -23.6602
    endloop
  endfacet
  facet normal 1 -0 0
    outer loop
      vertex 78.5455 35.8808 -31.5194
      vertex 78.5455 78.5455 -78.5455
      vertex 78.5455 40.5075 -27.4405
    endloop
  endfacet
  facet normal 1 -0 0
    outer loop
      vertex 78.5455 31.5194 -35.8808
      vertex 78.5455 78.5455 -78.5455
      vertex 78.5455 35.8808 -31.5194
    endloop
  endfacet
  facet normal 1 -0 0
    outer loop
      vertex 78.5455 27.4405 -40.5075
      vertex 78.5455 78.5455 -78.5455
      vertex 78.5455 31.5194 -35.8808
    endloop
  endfacet
  facet normal 1 -0 0
    outer loop
      vertex 78.5455 23.6602 -45.3811
      vertex 78.5455 78.5455 -78.5455
      vertex 78.5455 27.4405 -40.5075
    endloop
  endfacet
  facet normal 1 -0 0
    outer loop
      vertex 78.5455 20.1933 -50.4825
      vertex 78.5455 78.5455 -78.5455
      vertex 78.5455 23.6602 -45.3811
    endloop
  endfacet
  facet normal 1 -0 0
    outer loop
      vertex 78.5455 17.0535 -55.7915
      vertex 78.5455 78.5455 -78.5455
      vertex 78.5455 20.1933 -50.4825
    endloop
  endfacet
  facet normal 1 -0 0
    outer loop
      vertex 78.5455 14.2533 -61.2871
      vertex 78.5455 78.5455 -78.5455
      vertex 78.5455 17.0535 -55.7915
    endloop
  endfacet
  facet normal 1 -0 0
    outer loop
      vertex 78.5455 11.8038 -66.9478
      vertex 78.5455 78.5455 -78.5455
      vertex 78.5455 14.2533 -61.2871
    endloop
  endfacet
  facet normal 1 -0 0
    outer loop
      vertex 78.5455 9.71445 -72.7511
      vertex 78.5455 78.5455 -78.5455
      vertex 78.5455 11.8038 -66.9478
    endloop
  endfacet
  facet normal 1 0 0
    outer loop
      vertex 78.5455 78.5455 -78.5455
      vertex 78.5455 9.71445 -72.7511
      vertex 78.5455 8.03102 -78.5455
    endloop
  endfacet
  facet normal 0 1 -0
    outer loop
      vertex 78.5455 78.5455 -78.5455
      vertex 72.7511 78.5455 -9.71445
      vertex 78.5455 78.5455 -8.03102
    endloop
  endfacet
  facet normal 0 1 0
    outer loop
      vertex 72.7511 78.5455 -9.71445
      vertex 78.5455 78.5455 -78.5455
      vertex 66.9478 78.5455 -11.8038
    endloop
  endfacet
  facet normal 0 1 0
    outer loop
      vertex 66.9478 78.5455 -11.8038
      vertex 78.5455 78.5455 -78.5455
      vertex 61.2871 78.5455 -14.2533
    endloop
  endfacet
  facet normal 0 1 0
    outer loop
      vertex 61.2871 78.5455 -14.2533
      vertex 78.5455 78.5455 -78.5455
      vertex 55.7915 78.5455 -17.0535
    endloop
  endfacet
  facet normal 0 1 0
    outer loop
      vertex 55.7915 78.5455 -17.0535
      vertex 78.5455 78.5455 -78.5455
      vertex 50.4825 78.5455 -20.1933
    endloop
  endfacet
  facet normal 0 1 0
    outer loop
      vertex 50.4825 78.5455 -20.1933
      vertex 78.5455 78.5455 -78.5455
      vertex 45.3811 78.5455 -23.6602
    endloop
  endfacet
  facet normal 0 1 0
    outer loop
      vertex 45.3811 78.5455 -23.6602
      vertex 78.5455 78.5455 -78.5455
      vertex 40.5075 78.5455 -27.4405
    endloop
  endfacet
  facet normal 0 1 0
    outer loop
      vertex 40.5075 78.5455 -27.4405
      vertex 78.5455 78.5455 -78.5455
      vertex 35.8808 78.5455 -31.5194
    endloop
  endfacet
  facet normal 0 1 0
    outer loop
      vertex 35.8808 78.5455 -31.5194
      vertex 78.5455 78.5455 -78.5455
      vertex 31.5194 78.5455 -35.8808
    endloop
  endfacet
  facet normal 0 1 0
    outer loop
      vertex 31.5194 78.5455 -35.8808
      vertex 78.5455 78.5455 -78.5455
      vertex 27.4405 78.5455 -40.5075
    endloop
  endfacet
  facet normal 0 1 0
    outer loop
      vertex 27.4405 78.5455 -40.5075
      vertex 78.5455 78.5455 -78.5455
      vertex 23.6602 78.5455 -45.3811
    endloop
  endfacet
  facet normal 0 1 0
    outer loop
      vertex 23.6602 78.5455 -45.3811
      vertex 78.5455 78.5455 -78.5455
      vertex 20.1933 78.5455 -50.4825
    endloop
  endfacet
  facet normal 0 1 0
    outer loop
      vertex 20.1933 78.5455 -50.4825
      vertex 78.5455 78.5455 -78.5455
      vertex 17.0535 78.5455 -55.7915
    endloop
  endfacet
  facet normal 0 1 0
    outer loop
      vertex 17.0535 78.5455 -55.7915
      vertex 78.5455 78.5455 -78.5455
      vertex 14.2533 78.5455 -61.2871
    endloop
  endfacet
  facet normal 0 1 0
    outer loop
      vertex 14.2533 78.5455 -61.2871
      vertex 78.5455 78.5455 -78.5455
      vertex 11.8038 78.5455 -66.9478
    endloop
  endfacet
  facet normal 0 1 0
    outer loop
      vertex 11.8038 78.5455 -66.9478
      vertex 78.5455 78.5455 -78.5455
      vertex 9.71445 78.5455 -72.7511
    endloop
  endfacet
  facet normal 0 1 0
    outer loop
      vertex 9.71445 78.5455 -72.7511
      vertex 78.5455 78.5455 -78.5455
      vertex 8.03102 78.5455 -78.5455
    endloop
  endfacet
  facet normal 0 0 -1
    outer loop
      vertex 72.7511 9.71445 -78.5455
      vertex 78.5455 78.5455 -78.5455
      vertex 78.5455 8.03102 -78.5455
    endloop
  endfacet
  facet normal 0 0 -1
    outer loop
      vertex 66.9478 11.8038 -78.5455
      vertex 78.5455 78.5455 -78.5455
      vertex 72.7511 9.71445 -78.5455
    endloop
  endfacet
  facet normal 0 0 -1
    outer loop
      vertex 61.2871 14.2533 -78.5455
      vertex 78.5455 78.5455 -78.5455
      vertex 66.9478 11.8038 -78.5455
    endloop
  endfacet
  facet normal 0 0 -1
    outer loop
      vertex 55.7915 17.0535 -78.5455
      vertex 78.5455 78.5455 -78.5455
      vertex 61.2871 14.2533 -78.5455
    endloop
  endfacet
  facet normal 0 0 -1
    outer loop
      vertex 50.4825 20.1933 -78.5455
      vertex 78.5455 78.5455 -78.5455
      vertex 55.7915 17.0535 -78.5455
    endloop
  endfacet
  facet normal 0 0 -1
    outer loop
      vertex 45.3811 23.6602 -78.5455
      vertex 78.5455 78.5455 -78.5455
      vertex 50.4825 20.1933 -78.5455
    endloop
  endfacet
  facet normal 0 0 -1
    outer loop
      vertex 40.5075 27.4405 -78.5455
      vertex 78.5455 78.5455 -78.5455
      vertex 45.3811 23.6602 -78.5455
    endloop
  endfacet
  facet normal 0 0 -1
    outer loop
      vertex 35.8808 31.5194 -78.5455
      vertex 78.5455 78.5455 -78.5455
      vertex 40.5075 27.4405 -78.5455
    endloop
  endfacet
  facet normal 0 0 -1
    outer loop
      vertex 31.5194 35.8808 -78.5455
      vertex 78.5455 78.5455 -78.5455
      vertex 35.8808 31.5194 -78.5455
    endloop
  endfacet
  facet normal 0 0 -1
    outer loop
      vertex 27.4405 40.5075 -78.5455
      vertex 78.5455 78.5455 -78.5455
      vertex 31.5194 35.8808 -78.5455
    endloop
  endfacet
  facet normal 0 0 -1
    outer loop
      vertex 23.6602 45.3811 -78.5455
      vertex 78.5455 78.5455 -78.5455
      vertex 27.4405 40.5075 -78.5455
    endloop
  endfacet
  facet normal 0 0 -1
    outer loop
      vertex 20.1933 50.4825 -78.5455
      vertex 78.5455 78.5455 -78.5455
      vertex 23.6602 45.3811 -78.5455
    endloop
  endfacet
  facet normal 0 0 -1
    outer loop
      vertex 17.0535 55.7915 -78.5455
      vertex 78.5455 78.5455 -78.5455
      vertex 20.1933 50.4825 -78.5455
    endloop
  endfacet
  facet normal 0 0 -1
    outer loop
      vertex 14.2533 61.2871 -78.5455
      vertex 78.5455 78.5455 -78.5455
      vertex 17.0535 55.7915 -78.5455
    endloop
  endfacet
  facet normal 0 0 -1
    outer loop
      vertex 11.8038 66.9478 -78.5455
      vertex 78.5455 78.5455 -78.5455
      vertex 14.2533 61.2871 -78.5455
    endloop
  endfacet
  facet normal 0 0 -1
    outer loop
      vertex 9.71445 72.7511 -78.5455
      vertex 78.5455 78.5455 -78.5455
      vertex 11.8038 66.9478 -78.5455
    endloop
  endfacet
  facet normal -0 0 -1
    outer loop
      vertex 78.5455 78.5455 -78.5455
      vertex 9.71445 72.7511 -78.5455
      vertex 8.03102 78.5455 -78.5455
    endloop
  endfacet
  facet normal 0.707107 0.707107 0
    outer loop
      vertex 38.0319 34.5428 -51.5455
      vertex 34.5428 38.0319 -72.1636
      vertex 34.5428 38.0319 -51.5455
    endloop
  endfacet
  facet normal 0.707107 0.707107 0
    outer loop
      vertex 34.5428 38.0319 -72.1636
      vertex 38.0319 34.5428 -51.5455
      vertex 38.0319 34.5428 -72.1636
    endloop
  endfacet
  facet normal 0.940881 0.338737 -0
    outer loop
      vertex 18.7703 62.8855 -72.1636
      vertex 17.0988 67.5281 -67.5281
      vertex 18.7703 62.8855 -62.8855
    endloop
  endfacet
  facet normal 0.940881 0.338737 0
    outer loop
      vertex 17.0988 67.5281 -67.5281
      vertex 18.7703 62.8855 -72.1636
      vertex 17.0988 67.5281 -72.1636
    endloop
  endfacet
  facet normal 0.827081 0.562083 0
    outer loop
      vertex 28.2554 45.6321 -51.5455
      vertex 25.4819 49.7132 -72.1636
      vertex 25.4819 49.7132 -51.5455
    endloop
  endfacet
  facet normal 0.827081 0.562083 0
    outer loop
      vertex 25.4819 49.7132 -72.1636
      vertex 28.2554 45.6321 -51.5455
      vertex 28.2554 45.6321 -72.1636
    endloop
  endfacet
  facet normal 0.338737 0.940881 0
    outer loop
      vertex 62.8855 18.7703 -72.1636
      vertex 67.5281 17.0988 -67.5281
      vertex 67.5281 17.0988 -72.1636
    endloop
  endfacet
  facet normal 0.338737 0.940881 0
    outer loop
      vertex 67.5281 17.0988 -67.5281
      vertex 62.8855 18.7703 -72.1636
      vertex 62.8855 18.7703 -62.8855
    endloop
  endfacet
  facet normal 0.45399 0.891007 0
    outer loop
      vertex 53.9604 22.9701 -72.1636
      vertex 58.357 20.7299 -58.357
      vertex 58.357 20.7299 -72.1636
    endloop
  endfacet
  facet normal 0.45399 0.891007 0
    outer loop
      vertex 58.357 20.7299 -58.357
      vertex 53.9604 22.9701 -72.1636
      vertex 53.9604 22.9701 -53.9604
    endloop
  endfacet
  facet normal 0.562083 0.827081 -0
    outer loop
      vertex 49.7132 25.4819 -72.1636
      vertex 45.6321 28.2554 -51.5455
      vertex 49.7132 25.4819 -51.5455
    endloop
  endfacet
  facet normal 0.562083 0.827081 0
    outer loop
      vertex 45.6321 28.2554 -51.5455
      vertex 49.7132 25.4819 -72.1636
      vertex 45.6321 28.2554 -72.1636
    endloop
  endfacet
  facet normal 0.509041 0.860742 -9.01804e-07
    outer loop
      vertex 53.9604 22.9701 -53.9604
      vertex 49.7132 25.4819 -51.5455
      vertex 51.5455 24.3983 -51.5455
    endloop
  endfacet
  facet normal 0.509042 0.860742 0
    outer loop
      vertex 49.7132 25.4819 -72.1636
      vertex 53.9604 22.9701 -53.9604
      vertex 53.9604 22.9701 -72.1636
    endloop
  endfacet
  facet normal 0.509042 0.860742 0
    outer loop
      vertex 53.9604 22.9701 -53.9604
      vertex 49.7132 25.4819 -72.1636
      vertex 49.7132 25.4819 -51.5455
    endloop
  endfacet
  facet normal 0.661312 0.750111 -0
    outer loop
      vertex 41.7332 31.2797 -72.1636
      vertex 38.0319 34.5428 -51.5455
      vertex 41.7332 31.2797 -51.5455
    endloop
  endfacet
  facet normal 0.661312 0.750111 0
    outer loop
      vertex 38.0319 34.5428 -51.5455
      vertex 41.7332 31.2797 -72.1636
      vertex 38.0319 34.5428 -72.1636
    endloop
  endfacet
  facet normal 0.612907 0.790155 -0
    outer loop
      vertex 45.6321 28.2554 -72.1636
      vertex 41.7332 31.2797 -51.5455
      vertex 45.6321 28.2554 -51.5455
    endloop
  endfacet
  facet normal 0.612907 0.790155 0
    outer loop
      vertex 41.7332 31.2797 -51.5455
      vertex 45.6321 28.2554 -72.1636
      vertex 41.7332 31.2797 -72.1636
    endloop
  endfacet
  facet normal 0.960294 0.278991 0
    outer loop
      vertex 17.0988 67.5281 -67.5281
      vertex 17.0988 67.5281 -72.1636
      vertex 15.7521 72.1636 -72.1636
    endloop
  endfacet
  facet normal 0.860742 0.509041 -9.01804e-07
    outer loop
      vertex 25.4819 49.7132 -51.5455
      vertex 22.9701 53.9604 -53.9604
      vertex 24.3983 51.5455 -51.5455
    endloop
  endfacet
  facet normal 0.860742 0.509042 0
    outer loop
      vertex 22.9701 53.9604 -53.9604
      vertex 25.4819 49.7132 -51.5455
      vertex 25.4819 49.7132 -72.1636
    endloop
  endfacet
  facet normal 0.860742 0.509042 0
    outer loop
      vertex 22.9701 53.9604 -53.9604
      vertex 25.4819 49.7132 -72.1636
      vertex 22.9701 53.9604 -72.1636
    endloop
  endfacet
  facet normal 0.917755 0.397148 -0
    outer loop
      vertex 20.7299 58.357 -72.1636
      vertex 18.7703 62.8855 -62.8855
      vertex 20.7299 58.357 -58.357
    endloop
  endfacet
  facet normal 0.917755 0.397148 0
    outer loop
      vertex 18.7703 62.8855 -62.8855
      vertex 20.7299 58.357 -72.1636
      vertex 18.7703 62.8855 -72.1636
    endloop
  endfacet
  facet normal 0.790155 0.612907 0
    outer loop
      vertex 31.2797 41.7332 -51.5455
      vertex 28.2554 45.6321 -72.1636
      vertex 28.2554 45.6321 -51.5455
    endloop
  endfacet
  facet normal 0.790155 0.612907 0
    outer loop
      vertex 28.2554 45.6321 -72.1636
      vertex 31.2797 41.7332 -51.5455
      vertex 31.2797 41.7332 -72.1636
    endloop
  endfacet
  facet normal 0.278991 0.960294 0
    outer loop
      vertex 67.5281 17.0988 -67.5281
      vertex 72.1636 15.7521 -72.1636
      vertex 67.5281 17.0988 -72.1636
    endloop
  endfacet
  facet normal 0.397148 0.917755 0
    outer loop
      vertex 58.357 20.7299 -72.1636
      vertex 62.8855 18.7703 -62.8855
      vertex 62.8855 18.7703 -72.1636
    endloop
  endfacet
  facet normal 0.397148 0.917755 0
    outer loop
      vertex 62.8855 18.7703 -62.8855
      vertex 58.357 20.7299 -72.1636
      vertex 58.357 20.7299 -58.357
    endloop
  endfacet
  facet normal 0.891007 0.45399 -0
    outer loop
      vertex 22.9701 53.9604 -72.1636
      vertex 20.7299 58.357 -58.357
      vertex 22.9701 53.9604 -53.9604
    endloop
  endfacet
  facet normal 0.891007 0.45399 0
    outer loop
      vertex 20.7299 58.357 -58.357
      vertex 22.9701 53.9604 -72.1636
      vertex 20.7299 58.357 -72.1636
    endloop
  endfacet
  facet normal 0.750111 0.661312 0
    outer loop
      vertex 34.5428 38.0319 -51.5455
      vertex 31.2797 41.7332 -72.1636
      vertex 31.2797 41.7332 -51.5455
    endloop
  endfacet
  facet normal 0.750111 0.661312 0
    outer loop
      vertex 31.2797 41.7332 -72.1636
      vertex 34.5428 38.0319 -51.5455
      vertex 34.5428 38.0319 -72.1636
    endloop
  endfacet
  facet normal 0 0.338737 -0.940881
    outer loop
      vertex 72.1636 62.8855 -18.7703
      vertex 67.5281 67.5281 -17.0988
      vertex 72.1636 67.5281 -17.0988
    endloop
  endfacet
  facet normal 0 0.338737 -0.940881
    outer loop
      vertex 67.5281 67.5281 -17.0988
      vertex 72.1636 62.8855 -18.7703
      vertex 62.8855 62.8855 -18.7703
    endloop
  endfacet
  facet normal 0 0.917755 -0.397148
    outer loop
      vertex 62.8855 18.7703 -62.8855
      vertex 72.1636 20.7299 -58.357
      vertex 72.1636 18.7703 -62.8855
    endloop
  endfacet
  facet normal 0 0.917755 -0.397148
    outer loop
      vertex 72.1636 20.7299 -58.357
      vertex 62.8855 18.7703 -62.8855
      vertex 58.357 20.7299 -58.357
    endloop
  endfacet
  facet normal 0 0.707107 -0.707107
    outer loop
      vertex 72.1636 34.5428 -38.0319
      vertex 51.5455 38.0319 -34.5428
      vertex 72.1636 38.0319 -34.5428
    endloop
  endfacet
  facet normal 0 0.707107 -0.707107
    outer loop
      vertex 51.5455 38.0319 -34.5428
      vertex 72.1636 34.5428 -38.0319
      vertex 51.5455 34.5428 -38.0319
    endloop
  endfacet
  facet normal 0 0.860742 -0.509042
    outer loop
      vertex 53.9604 22.9701 -53.9604
      vertex 51.5455 25.4819 -49.7132
      vertex 72.1636 25.4819 -49.7132
    endloop
  endfacet
  facet normal 0 0.860742 -0.509042
    outer loop
      vertex 53.9604 22.9701 -53.9604
      vertex 72.1636 25.4819 -49.7132
      vertex 72.1636 22.9701 -53.9604
    endloop
  endfacet
  facet normal 9.01804e-07 0.860742 -0.509041
    outer loop
      vertex 51.5455 25.4819 -49.7132
      vertex 53.9604 22.9701 -53.9604
      vertex 51.5455 24.3983 -51.5455
    endloop
  endfacet
  facet normal 0 0.790155 -0.612907
    outer loop
      vertex 72.1636 28.2554 -45.6321
      vertex 51.5455 31.2797 -41.7332
      vertex 72.1636 31.2797 -41.7332
    endloop
  endfacet
  facet normal 0 0.790155 -0.612907
    outer loop
      vertex 51.5455 31.2797 -41.7332
      vertex 72.1636 28.2554 -45.6321
      vertex 51.5455 28.2554 -45.6321
    endloop
  endfacet
  facet normal 0 0.509042 -0.860742
    outer loop
      vertex 72.1636 49.7132 -25.4819
      vertex 53.9604 53.9604 -22.9701
      vertex 72.1636 53.9604 -22.9701
    endloop
  endfacet
  facet normal 0 0.509042 -0.860742
    outer loop
      vertex 51.5455 49.7132 -25.4819
      vertex 53.9604 53.9604 -22.9701
      vertex 72.1636 49.7132 -25.4819
    endloop
  endfacet
  facet normal 9.01804e-07 0.509041 -0.860742
    outer loop
      vertex 53.9604 53.9604 -22.9701
      vertex 51.5455 49.7132 -25.4819
      vertex 51.5455 51.5455 -24.3983
    endloop
  endfacet
  facet normal 0 0.562083 -0.827081
    outer loop
      vertex 51.5455 45.6321 -28.2554
      vertex 72.1636 49.7132 -25.4819
      vertex 72.1636 45.6321 -28.2554
    endloop
  endfacet
  facet normal 0 0.562083 -0.827081
    outer loop
      vertex 72.1636 49.7132 -25.4819
      vertex 51.5455 45.6321 -28.2554
      vertex 51.5455 49.7132 -25.4819
    endloop
  endfacet
  facet normal 0 0.45399 -0.891007
    outer loop
      vertex 72.1636 53.9604 -22.9701
      vertex 58.357 58.357 -20.7299
      vertex 72.1636 58.357 -20.7299
    endloop
  endfacet
  facet normal 0 0.45399 -0.891007
    outer loop
      vertex 58.357 58.357 -20.7299
      vertex 72.1636 53.9604 -22.9701
      vertex 53.9604 53.9604 -22.9701
    endloop
  endfacet
  facet normal 0 0.960294 -0.278991
    outer loop
      vertex 72.1636 17.0988 -67.5281
      vertex 72.1636 15.7521 -72.1636
      vertex 67.5281 17.0988 -67.5281
    endloop
  endfacet
  facet normal 0 0.940881 -0.338737
    outer loop
      vertex 67.5281 17.0988 -67.5281
      vertex 72.1636 18.7703 -62.8855
      vertex 72.1636 17.0988 -67.5281
    endloop
  endfacet
  facet normal 0 0.940881 -0.338737
    outer loop
      vertex 72.1636 18.7703 -62.8855
      vertex 67.5281 17.0988 -67.5281
      vertex 62.8855 18.7703 -62.8855
    endloop
  endfacet
  facet normal 0 0.891007 -0.45399
    outer loop
      vertex 58.357 20.7299 -58.357
      vertex 72.1636 22.9701 -53.9604
      vertex 72.1636 20.7299 -58.357
    endloop
  endfacet
  facet normal 0 0.891007 -0.45399
    outer loop
      vertex 72.1636 22.9701 -53.9604
      vertex 58.357 20.7299 -58.357
      vertex 53.9604 22.9701 -53.9604
    endloop
  endfacet
  facet normal 0 0.827081 -0.562083
    outer loop
      vertex 72.1636 25.4819 -49.7132
      vertex 51.5455 28.2554 -45.6321
      vertex 72.1636 28.2554 -45.6321
    endloop
  endfacet
  facet normal 0 0.827081 -0.562083
    outer loop
      vertex 51.5455 28.2554 -45.6321
      vertex 72.1636 25.4819 -49.7132
      vertex 51.5455 25.4819 -49.7132
    endloop
  endfacet
  facet normal 0 0.750111 -0.661312
    outer loop
      vertex 72.1636 31.2797 -41.7332
      vertex 51.5455 34.5428 -38.0319
      vertex 72.1636 34.5428 -38.0319
    endloop
  endfacet
  facet normal 0 0.750111 -0.661312
    outer loop
      vertex 51.5455 34.5428 -38.0319
      vertex 72.1636 31.2797 -41.7332
      vertex 51.5455 31.2797 -41.7332
    endloop
  endfacet
  facet normal 0 0.278991 -0.960294
    outer loop
      vertex 72.1636 72.1636 -15.7521
      vertex 72.1636 67.5281 -17.0988
      vertex 67.5281 67.5281 -17.0988
    endloop
  endfacet
  facet normal 0 0.397148 -0.917755
    outer loop
      vertex 72.1636 58.357 -20.7299
      vertex 62.8855 62.8855 -18.7703
      vertex 72.1636 62.8855 -18.7703
    endloop
  endfacet
  facet normal 0 0.397148 -0.917755
    outer loop
      vertex 62.8855 62.8855 -18.7703
      vertex 72.1636 58.357 -20.7299
      vertex 58.357 58.357 -20.7299
    endloop
  endfacet
  facet normal 0 0.612907 -0.790155
    outer loop
      vertex 51.5455 41.7332 -31.2797
      vertex 72.1636 45.6321 -28.2554
      vertex 72.1636 41.7332 -31.2797
    endloop
  endfacet
  facet normal 0 0.612907 -0.790155
    outer loop
      vertex 72.1636 45.6321 -28.2554
      vertex 51.5455 41.7332 -31.2797
      vertex 51.5455 45.6321 -28.2554
    endloop
  endfacet
  facet normal 0 0.661312 -0.750111
    outer loop
      vertex 51.5455 38.0319 -34.5428
      vertex 72.1636 41.7332 -31.2797
      vertex 72.1636 38.0319 -34.5428
    endloop
  endfacet
  facet normal 0 0.661312 -0.750111
    outer loop
      vertex 72.1636 41.7332 -31.2797
      vertex 51.5455 38.0319 -34.5428
      vertex 51.5455 41.7332 -31.2797
    endloop
  endfacet
  facet normal 0.338737 0 -0.940881
    outer loop
      vertex 62.8855 72.1636 -18.7703
      vertex 67.5281 67.5281 -17.0988
      vertex 62.8855 62.8855 -18.7703
    endloop
  endfacet
  facet normal 0.338737 0 -0.940881
    outer loop
      vertex 67.5281 67.5281 -17.0988
      vertex 62.8855 72.1636 -18.7703
      vertex 67.5281 72.1636 -17.0988
    endloop
  endfacet
  facet normal 0.940881 0 -0.338737
    outer loop
      vertex 18.7703 72.1636 -62.8855
      vertex 17.0988 67.5281 -67.5281
      vertex 17.0988 72.1636 -67.5281
    endloop
  endfacet
  facet normal 0.940881 0 -0.338737
    outer loop
      vertex 17.0988 67.5281 -67.5281
      vertex 18.7703 72.1636 -62.8855
      vertex 18.7703 62.8855 -62.8855
    endloop
  endfacet
  facet normal 0.790155 0 -0.612907
    outer loop
      vertex 31.2797 51.5455 -41.7332
      vertex 28.2554 72.1636 -45.6321
      vertex 31.2797 72.1636 -41.7332
    endloop
  endfacet
  facet normal 0.790155 0 -0.612907
    outer loop
      vertex 28.2554 72.1636 -45.6321
      vertex 31.2797 51.5455 -41.7332
      vertex 28.2554 51.5455 -45.6321
    endloop
  endfacet
  facet normal 0.707107 0 -0.707107
    outer loop
      vertex 38.0319 51.5455 -34.5428
      vertex 34.5428 72.1636 -38.0319
      vertex 38.0319 72.1636 -34.5428
    endloop
  endfacet
  facet normal 0.707107 0 -0.707107
    outer loop
      vertex 34.5428 72.1636 -38.0319
      vertex 38.0319 51.5455 -34.5428
      vertex 34.5428 51.5455 -38.0319
    endloop
  endfacet
  facet normal 0.509041 9.01804e-07 -0.860742
    outer loop
      vertex 49.7132 51.5455 -25.4819
      vertex 53.9604 53.9604 -22.9701
      vertex 51.5455 51.5455 -24.3983
    endloop
  endfacet
  facet normal 0.509042 0 -0.860742
    outer loop
      vertex 53.9604 53.9604 -22.9701
      vertex 49.7132 51.5455 -25.4819
      vertex 49.7132 72.1636 -25.4819
    endloop
  endfacet
  facet normal 0.509042 0 -0.860742
    outer loop
      vertex 53.9604 53.9604 -22.9701
      vertex 49.7132 72.1636 -25.4819
      vertex 53.9604 72.1636 -22.9701
    endloop
  endfacet
  facet normal 0.45399 0 -0.891007
    outer loop
      vertex 53.9604 72.1636 -22.9701
      vertex 58.357 58.357 -20.7299
      vertex 53.9604 53.9604 -22.9701
    endloop
  endfacet
  facet normal 0.45399 0 -0.891007
    outer loop
      vertex 58.357 58.357 -20.7299
      vertex 53.9604 72.1636 -22.9701
      vertex 58.357 72.1636 -20.7299
    endloop
  endfacet
  facet normal 0.960294 0 -0.278991
    outer loop
      vertex 17.0988 72.1636 -67.5281
      vertex 17.0988 67.5281 -67.5281
      vertex 15.7521 72.1636 -72.1636
    endloop
  endfacet
  facet normal 0.860742 0 -0.509042
    outer loop
      vertex 25.4819 72.1636 -49.7132
      vertex 22.9701 53.9604 -53.9604
      vertex 22.9701 72.1636 -53.9604
    endloop
  endfacet
  facet normal 0.860742 0 -0.509042
    outer loop
      vertex 25.4819 51.5455 -49.7132
      vertex 22.9701 53.9604 -53.9604
      vertex 25.4819 72.1636 -49.7132
    endloop
  endfacet
  facet normal 0.860742 9.01804e-07 -0.509041
    outer loop
      vertex 22.9701 53.9604 -53.9604
      vertex 25.4819 51.5455 -49.7132
      vertex 24.3983 51.5455 -51.5455
    endloop
  endfacet
  facet normal 0.827081 0 -0.562083
    outer loop
      vertex 28.2554 51.5455 -45.6321
      vertex 25.4819 72.1636 -49.7132
      vertex 28.2554 72.1636 -45.6321
    endloop
  endfacet
  facet normal 0.827081 0 -0.562083
    outer loop
      vertex 25.4819 72.1636 -49.7132
      vertex 28.2554 51.5455 -45.6321
      vertex 25.4819 51.5455 -49.7132
    endloop
  endfacet
  facet normal 0.397148 0 -0.917755
    outer loop
      vertex 58.357 72.1636 -20.7299
      vertex 62.8855 62.8855 -18.7703
      vertex 58.357 58.357 -20.7299
    endloop
  endfacet
  facet normal 0.397148 0 -0.917755
    outer loop
      vertex 62.8855 62.8855 -18.7703
      vertex 58.357 72.1636 -20.7299
      vertex 62.8855 72.1636 -18.7703
    endloop
  endfacet
  facet normal 0.562083 0 -0.827081
    outer loop
      vertex 45.6321 51.5455 -28.2554
      vertex 49.7132 72.1636 -25.4819
      vertex 49.7132 51.5455 -25.4819
    endloop
  endfacet
  facet normal 0.562083 0 -0.827081
    outer loop
      vertex 49.7132 72.1636 -25.4819
      vertex 45.6321 51.5455 -28.2554
      vertex 45.6321 72.1636 -28.2554
    endloop
  endfacet
  facet normal 0.661312 0 -0.750111
    outer loop
      vertex 38.0319 51.5455 -34.5428
      vertex 41.7332 72.1636 -31.2797
      vertex 41.7332 51.5455 -31.2797
    endloop
  endfacet
  facet normal 0.661312 0 -0.750111
    outer loop
      vertex 41.7332 72.1636 -31.2797
      vertex 38.0319 51.5455 -34.5428
      vertex 38.0319 72.1636 -34.5428
    endloop
  endfacet
  facet normal 0.891007 0 -0.45399
    outer loop
      vertex 22.9701 72.1636 -53.9604
      vertex 20.7299 58.357 -58.357
      vertex 20.7299 72.1636 -58.357
    endloop
  endfacet
  facet normal 0.891007 0 -0.45399
    outer loop
      vertex 20.7299 58.357 -58.357
      vertex 22.9701 72.1636 -53.9604
      vertex 22.9701 53.9604 -53.9604
    endloop
  endfacet
  facet normal 0.917755 0 -0.397148
    outer loop
      vertex 20.7299 72.1636 -58.357
      vertex 18.7703 62.8855 -62.8855
      vertex 18.7703 72.1636 -62.8855
    endloop
  endfacet
  facet normal 0.917755 0 -0.397148
    outer loop
      vertex 18.7703 62.8855 -62.8855
      vertex 20.7299 72.1636 -58.357
      vertex 20.7299 58.357 -58.357
    endloop
  endfacet
  facet normal 0.750111 0 -0.661312
    outer loop
      vertex 34.5428 51.5455 -38.0319
      vertex 31.2797 72.1636 -41.7332
      vertex 34.5428 72.1636 -38.0319
    endloop
  endfacet
  facet normal 0.750111 0 -0.661312
    outer loop
      vertex 31.2797 72.1636 -41.7332
      vertex 34.5428 51.5455 -38.0319
      vertex 31.2797 51.5455 -41.7332
    endloop
  endfacet
  facet normal 0.278991 0 -0.960294
    outer loop
      vertex 67.5281 72.1636 -17.0988
      vertex 72.1636 72.1636 -15.7521
      vertex 67.5281 67.5281 -17.0988
    endloop
  endfacet
  facet normal 0.612907 0 -0.790155
    outer loop
      vertex 41.7332 51.5455 -31.2797
      vertex 45.6321 72.1636 -28.2554
      vertex 45.6321 51.5455 -28.2554
    endloop
  endfacet
  facet normal 0.612907 0 -0.790155
    outer loop
      vertex 45.6321 72.1636 -28.2554
      vertex 41.7332 51.5455 -31.2797
      vertex 41.7332 72.1636 -31.2797
    endloop
  endfacet
  facet normal -1 0 0
    outer loop
      vertex 72.1636 72.1636 -72.1636
      vertex 72.1636 67.5281 -17.0988
      vertex 72.1636 72.1636 -15.7521
    endloop
  endfacet
  facet normal -1 0 0
    outer loop
      vertex 72.1636 72.1636 -72.1636
      vertex 72.1636 62.8855 -18.7703
      vertex 72.1636 67.5281 -17.0988
    endloop
  endfacet
  facet normal -1 0 0
    outer loop
      vertex 72.1636 72.1636 -72.1636
      vertex 72.1636 58.357 -20.7299
      vertex 72.1636 62.8855 -18.7703
    endloop
  endfacet
  facet normal -1 0 0
    outer loop
      vertex 72.1636 72.1636 -72.1636
      vertex 72.1636 53.9604 -22.9701
      vertex 72.1636 58.357 -20.7299
    endloop
  endfacet
  facet normal -1 0 0
    outer loop
      vertex 72.1636 72.1636 -72.1636
      vertex 72.1636 49.7132 -25.4819
      vertex 72.1636 53.9604 -22.9701
    endloop
  endfacet
  facet normal -1 0 0
    outer loop
      vertex 72.1636 72.1636 -72.1636
      vertex 72.1636 45.6321 -28.2554
      vertex 72.1636 49.7132 -25.4819
    endloop
  endfacet
  facet normal -1 0 0
    outer loop
      vertex 72.1636 72.1636 -72.1636
      vertex 72.1636 41.7332 -31.2797
      vertex 72.1636 45.6321 -28.2554
    endloop
  endfacet
  facet normal -1 0 0
    outer loop
      vertex 72.1636 72.1636 -72.1636
      vertex 72.1636 38.0319 -34.5428
      vertex 72.1636 41.7332 -31.2797
    endloop
  endfacet
  facet normal -1 0 0
    outer loop
      vertex 72.1636 72.1636 -72.1636
      vertex 72.1636 34.5428 -38.0319
      vertex 72.1636 38.0319 -34.5428
    endloop
  endfacet
  facet normal -1 0 0
    outer loop
      vertex 72.1636 72.1636 -72.1636
      vertex 72.1636 31.2797 -41.7332
      vertex 72.1636 34.5428 -38.0319
    endloop
  endfacet
  facet normal -1 0 0
    outer loop
      vertex 72.1636 72.1636 -72.1636
      vertex 72.1636 28.2554 -45.6321
      vertex 72.1636 31.2797 -41.7332
    endloop
  endfacet
  facet normal -1 0 0
    outer loop
      vertex 72.1636 72.1636 -72.1636
      vertex 72.1636 25.4819 -49.7132
      vertex 72.1636 28.2554 -45.6321
    endloop
  endfacet
  facet normal -1 0 0
    outer loop
      vertex 72.1636 72.1636 -72.1636
      vertex 72.1636 22.9701 -53.9604
      vertex 72.1636 25.4819 -49.7132
    endloop
  endfacet
  facet normal -1 0 0
    outer loop
      vertex 72.1636 72.1636 -72.1636
      vertex 72.1636 20.7299 -58.357
      vertex 72.1636 22.9701 -53.9604
    endloop
  endfacet
  facet normal -1 0 0
    outer loop
      vertex 72.1636 72.1636 -72.1636
      vertex 72.1636 18.7703 -62.8855
      vertex 72.1636 20.7299 -58.357
    endloop
  endfacet
  facet normal -1 0 0
    outer loop
      vertex 72.1636 72.1636 -72.1636
      vertex 72.1636 17.0988 -67.5281
      vertex 72.1636 18.7703 -62.8855
    endloop
  endfacet
  facet normal -1 0 -0
    outer loop
      vertex 72.1636 17.0988 -67.5281
      vertex 72.1636 72.1636 -72.1636
      vertex 72.1636 15.7521 -72.1636
    endloop
  endfacet
  facet normal 0 0 1
    outer loop
      vertex 72.1636 72.1636 -72.1636
      vertex 67.5281 17.0988 -72.1636
      vertex 72.1636 15.7521 -72.1636
    endloop
  endfacet
  facet normal 0 0 1
    outer loop
      vertex 72.1636 72.1636 -72.1636
      vertex 62.8855 18.7703 -72.1636
      vertex 67.5281 17.0988 -72.1636
    endloop
  endfacet
  facet normal 0 0 1
    outer loop
      vertex 72.1636 72.1636 -72.1636
      vertex 58.357 20.7299 -72.1636
      vertex 62.8855 18.7703 -72.1636
    endloop
  endfacet
  facet normal 0 0 1
    outer loop
      vertex 72.1636 72.1636 -72.1636
      vertex 53.9604 22.9701 -72.1636
      vertex 58.357 20.7299 -72.1636
    endloop
  endfacet
  facet normal 0 0 1
    outer loop
      vertex 72.1636 72.1636 -72.1636
      vertex 49.7132 25.4819 -72.1636
      vertex 53.9604 22.9701 -72.1636
    endloop
  endfacet
  facet normal 0 0 1
    outer loop
      vertex 72.1636 72.1636 -72.1636
      vertex 45.6321 28.2554 -72.1636
      vertex 49.7132 25.4819 -72.1636
    endloop
  endfacet
  facet normal 0 0 1
    outer loop
      vertex 72.1636 72.1636 -72.1636
      vertex 41.7332 31.2797 -72.1636
      vertex 45.6321 28.2554 -72.1636
    endloop
  endfacet
  facet normal 0 0 1
    outer loop
      vertex 72.1636 72.1636 -72.1636
      vertex 38.0319 34.5428 -72.1636
      vertex 41.7332 31.2797 -72.1636
    endloop
  endfacet
  facet normal 0 0 1
    outer loop
      vertex 72.1636 72.1636 -72.1636
      vertex 34.5428 38.0319 -72.1636
      vertex 38.0319 34.5428 -72.1636
    endloop
  endfacet
  facet normal 0 0 1
    outer loop
      vertex 72.1636 72.1636 -72.1636
      vertex 31.2797 41.7332 -72.1636
      vertex 34.5428 38.0319 -72.1636
    endloop
  endfacet
  facet normal 0 0 1
    outer loop
      vertex 72.1636 72.1636 -72.1636
      vertex 28.2554 45.6321 -72.1636
      vertex 31.2797 41.7332 -72.1636
    endloop
  endfacet
  facet normal 0 0 1
    outer loop
      vertex 72.1636 72.1636 -72.1636
      vertex 25.4819 49.7132 -72.1636
      vertex 28.2554 45.6321 -72.1636
    endloop
  endfacet
  facet normal 0 0 1
    outer loop
      vertex 72.1636 72.1636 -72.1636
      vertex 22.9701 53.9604 -72.1636
      vertex 25.4819 49.7132 -72.1636
    endloop
  endfacet
  facet normal 0 0 1
    outer loop
      vertex 72.1636 72.1636 -72.1636
      vertex 20.7299 58.357 -72.1636
      vertex 22.9701 53.9604 -72.1636
    endloop
  endfacet
  facet normal 0 0 1
    outer loop
      vertex 72.1636 72.1636 -72.1636
      vertex 18.7703 62.8855 -72.1636
      vertex 20.7299 58.357 -72.1636
    endloop
  endfacet
  facet normal 0 0 1
    outer loop
      vertex 72.1636 72.1636 -72.1636
      vertex 17.0988 67.5281 -72.1636
      vertex 18.7703 62.8855 -72.1636
    endloop
  endfacet
  facet normal 0 -0 1
    outer loop
      vertex 17.0988 67.5281 -72.1636
      vertex 72.1636 72.1636 -72.1636
      vertex 15.7521 72.1636 -72.1636
    endloop
  endfacet
  facet normal 0 -1 0
    outer loop
      vertex 72.1636 72.1636 -72.1636
      vertex 67.5281 72.1636 -17.0988
      vertex 62.8855 72.1636 -18.7703
    endloop
  endfacet
  facet normal 0 -1 0
    outer loop
      vertex 72.1636 72.1636 -72.1636
      vertex 62.8855 72.1636 -18.7703
      vertex 58.357 72.1636 -20.7299
    endloop
  endfacet
  facet normal 0 -1 0
    outer loop
      vertex 72.1636 72.1636 -72.1636
      vertex 58.357 72.1636 -20.7299
      vertex 53.9604 72.1636 -22.9701
    endloop
  endfacet
  facet normal 0 -1 0
    outer loop
      vertex 72.1636 72.1636 -72.1636
      vertex 53.9604 72.1636 -22.9701
      vertex 49.7132 72.1636 -25.4819
    endloop
  endfacet
  facet normal 0 -1 0
    outer loop
      vertex 72.1636 72.1636 -72.1636
      vertex 49.7132 72.1636 -25.4819
      vertex 45.6321 72.1636 -28.2554
    endloop
  endfacet
  facet normal 0 -1 0
    outer loop
      vertex 72.1636 72.1636 -72.1636
      vertex 45.6321 72.1636 -28.2554
      vertex 41.7332 72.1636 -31.2797
    endloop
  endfacet
  facet normal 0 -1 0
    outer loop
      vertex 72.1636 72.1636 -72.1636
      vertex 41.7332 72.1636 -31.2797
      vertex 38.0319 72.1636 -34.5428
    endloop
  endfacet
  facet normal 0 -1 0
    outer loop
      vertex 72.1636 72.1636 -72.1636
      vertex 38.0319 72.1636 -34.5428
      vertex 34.5428 72.1636 -38.0319
    endloop
  endfacet
  facet normal 0 -1 0
    outer loop
      vertex 72.1636 72.1636 -72.1636
      vertex 34.5428 72.1636 -38.0319
      vertex 31.2797 72.1636 -41.7332
    endloop
  endfacet
  facet normal 0 -1 0
    outer loop
      vertex 72.1636 72.1636 -72.1636
      vertex 31.2797 72.1636 -41.7332
      vertex 28.2554 72.1636 -45.6321
    endloop
  endfacet
  facet normal 0 -1 0
    outer loop
      vertex 72.1636 72.1636 -72.1636
      vertex 28.2554 72.1636 -45.6321
      vertex 25.4819 72.1636 -49.7132
    endloop
  endfacet
  facet normal 0 -1 0
    outer loop
      vertex 72.1636 72.1636 -72.1636
      vertex 25.4819 72.1636 -49.7132
      vertex 22.9701 72.1636 -53.9604
    endloop
  endfacet
  facet normal 0 -1 0
    outer loop
      vertex 72.1636 72.1636 -72.1636
      vertex 22.9701 72.1636 -53.9604
      vertex 20.7299 72.1636 -58.357
    endloop
  endfacet
  facet normal 0 -1 0
    outer loop
      vertex 72.1636 72.1636 -72.1636
      vertex 20.7299 72.1636 -58.357
      vertex 18.7703 72.1636 -62.8855
    endloop
  endfacet
  facet normal 0 -1 0
    outer loop
      vertex 72.1636 72.1636 -72.1636
      vertex 18.7703 72.1636 -62.8855
      vertex 17.0988 72.1636 -67.5281
    endloop
  endfacet
  facet normal 0 -1 0
    outer loop
      vertex 72.1636 72.1636 -72.1636
      vertex 17.0988 72.1636 -67.5281
      vertex 15.7521 72.1636 -72.1636
    endloop
  endfacet
  facet normal 0 -1 0
    outer loop
      vertex 67.5281 72.1636 -17.0988
      vertex 72.1636 72.1636 -72.1636
      vertex 72.1636 72.1636 -15.7521
    endloop
  endfacet
  facet normal -1 0 0
    outer loop
      vertex 51.5455 51.5455 -24.3983
      vertex 51.5455 50.4825 -20.1933
      vertex 51.5455 51.5455 -19.5646
    endloop
  endfacet
  facet normal -1 0 0
    outer loop
      vertex 51.5455 49.7132 -25.4819
      vertex 51.5455 50.4825 -20.1933
      vertex 51.5455 51.5455 -24.3983
    endloop
  endfacet
  facet normal -1 0 0
    outer loop
      vertex 51.5455 45.3811 -23.6602
      vertex 51.5455 49.7132 -25.4819
      vertex 51.5455 45.6321 -28.2554
    endloop
  endfacet
  facet normal -1 0 0
    outer loop
      vertex 51.5455 49.7132 -25.4819
      vertex 51.5455 45.3811 -23.6602
      vertex 51.5455 50.4825 -20.1933
    endloop
  endfacet
  facet normal -1 0 0
    outer loop
      vertex 51.5455 40.5075 -27.4405
      vertex 51.5455 45.6321 -28.2554
      vertex 51.5455 41.7332 -31.2797
    endloop
  endfacet
  facet normal -1 0 0
    outer loop
      vertex 51.5455 45.6321 -28.2554
      vertex 51.5455 40.5075 -27.4405
      vertex 51.5455 45.3811 -23.6602
    endloop
  endfacet
  facet normal -1 0 0
    outer loop
      vertex 51.5455 35.8808 -31.5194
      vertex 51.5455 41.7332 -31.2797
      vertex 51.5455 38.0319 -34.5428
    endloop
  endfacet
  facet normal -1 -0 0
    outer loop
      vertex 51.5455 41.7332 -31.2797
      vertex 51.5455 35.8808 -31.5194
      vertex 51.5455 40.5075 -27.4405
    endloop
  endfacet
  facet normal -1 0 0
    outer loop
      vertex 51.5455 34.5428 -38.0319
      vertex 51.5455 35.8808 -31.5194
      vertex 51.5455 38.0319 -34.5428
    endloop
  endfacet
  facet normal -1 0 0
    outer loop
      vertex 51.5455 34.5428 -38.0319
      vertex 51.5455 31.5194 -35.8808
      vertex 51.5455 35.8808 -31.5194
    endloop
  endfacet
  facet normal -1 0 0
    outer loop
      vertex 51.5455 31.2797 -41.7332
      vertex 51.5455 31.5194 -35.8808
      vertex 51.5455 34.5428 -38.0319
    endloop
  endfacet
  facet normal -1 0 0
    outer loop
      vertex 51.5455 27.4405 -40.5075
      vertex 51.5455 31.2797 -41.7332
      vertex 51.5455 28.2554 -45.6321
    endloop
  endfacet
  facet normal -1 0 0
    outer loop
      vertex 51.5455 31.2797 -41.7332
      vertex 51.5455 27.4405 -40.5075
      vertex 51.5455 31.5194 -35.8808
    endloop
  endfacet
  facet normal -1 0 0
    outer loop
      vertex 51.5455 23.6602 -45.3811
      vertex 51.5455 28.2554 -45.6321
      vertex 51.5455 25.4819 -49.7132
    endloop
  endfacet
  facet normal -1 0 0
    outer loop
      vertex 51.5455 20.1933 -50.4825
      vertex 51.5455 25.4819 -49.7132
      vertex 51.5455 24.3983 -51.5455
    endloop
  endfacet
  facet normal -1 0 0
    outer loop
      vertex 51.5455 28.2554 -45.6321
      vertex 51.5455 23.6602 -45.3811
      vertex 51.5455 27.4405 -40.5075
    endloop
  endfacet
  facet normal -1 -0 0
    outer loop
      vertex 51.5455 25.4819 -49.7132
      vertex 51.5455 20.1933 -50.4825
      vertex 51.5455 23.6602 -45.3811
    endloop
  endfacet
  facet normal -1 0 -0
    outer loop
      vertex 51.5455 20.1933 -50.4825
      vertex 51.5455 24.3983 -51.5455
      vertex 51.5455 19.5646 -51.5455
    endloop
  endfacet
  facet normal 0 0 1
    outer loop
      vertex 51.5455 24.3983 -51.5455
      vertex 50.4825 20.1933 -51.5455
      vertex 51.5455 19.5646 -51.5455
    endloop
  endfacet
  facet normal 0 0 1
    outer loop
      vertex 49.7132 25.4819 -51.5455
      vertex 50.4825 20.1933 -51.5455
      vertex 51.5455 24.3983 -51.5455
    endloop
  endfacet
  facet normal 0 0 1
    outer loop
      vertex 45.3811 23.6602 -51.5455
      vertex 49.7132 25.4819 -51.5455
      vertex 45.6321 28.2554 -51.5455
    endloop
  endfacet
  facet normal 0 0 1
    outer loop
      vertex 49.7132 25.4819 -51.5455
      vertex 45.3811 23.6602 -51.5455
      vertex 50.4825 20.1933 -51.5455
    endloop
  endfacet
  facet normal 0 0 1
    outer loop
      vertex 40.5075 27.4405 -51.5455
      vertex 45.6321 28.2554 -51.5455
      vertex 41.7332 31.2797 -51.5455
    endloop
  endfacet
  facet normal 0 0 1
    outer loop
      vertex 45.6321 28.2554 -51.5455
      vertex 40.5075 27.4405 -51.5455
      vertex 45.3811 23.6602 -51.5455
    endloop
  endfacet
  facet normal -0 0 1
    outer loop
      vertex 35.8808 31.5194 -51.5455
      vertex 41.7332 31.2797 -51.5455
      vertex 38.0319 34.5428 -51.5455
    endloop
  endfacet
  facet normal 0 0 1
    outer loop
      vertex 41.7332 31.2797 -51.5455
      vertex 35.8808 31.5194 -51.5455
      vertex 40.5075 27.4405 -51.5455
    endloop
  endfacet
  facet normal 0 0 1
    outer loop
      vertex 34.5428 38.0319 -51.5455
      vertex 35.8808 31.5194 -51.5455
      vertex 38.0319 34.5428 -51.5455
    endloop
  endfacet
  facet normal 0 0 1
    outer loop
      vertex 34.5428 38.0319 -51.5455
      vertex 31.5194 35.8808 -51.5455
      vertex 35.8808 31.5194 -51.5455
    endloop
  endfacet
  facet normal 0 0 1
    outer loop
      vertex 31.2797 41.7332 -51.5455
      vertex 31.5194 35.8808 -51.5455
      vertex 34.5428 38.0319 -51.5455
    endloop
  endfacet
  facet normal 0 0 1
    outer loop
      vertex 27.4405 40.5075 -51.5455
      vertex 31.2797 41.7332 -51.5455
      vertex 28.2554 45.6321 -51.5455
    endloop
  endfacet
  facet normal 0 0 1
    outer loop
      vertex 31.2797 41.7332 -51.5455
      vertex 27.4405 40.5075 -51.5455
      vertex 31.5194 35.8808 -51.5455
    endloop
  endfacet
  facet normal 0 0 1
    outer loop
      vertex 23.6602 45.3811 -51.5455
      vertex 28.2554 45.6321 -51.5455
      vertex 25.4819 49.7132 -51.5455
    endloop
  endfacet
  facet normal -0 0 1
    outer loop
      vertex 20.1933 50.4825 -51.5455
      vertex 25.4819 49.7132 -51.5455
      vertex 24.3983 51.5455 -51.5455
    endloop
  endfacet
  facet normal 0 0 1
    outer loop
      vertex 28.2554 45.6321 -51.5455
      vertex 23.6602 45.3811 -51.5455
      vertex 27.4405 40.5075 -51.5455
    endloop
  endfacet
  facet normal 0 0 1
    outer loop
      vertex 25.4819 49.7132 -51.5455
      vertex 20.1933 50.4825 -51.5455
      vertex 23.6602 45.3811 -51.5455
    endloop
  endfacet
  facet normal 0 -0 1
    outer loop
      vertex 20.1933 50.4825 -51.5455
      vertex 24.3983 51.5455 -51.5455
      vertex 19.5646 51.5455 -51.5455
    endloop
  endfacet
  facet normal 0 -1 0
    outer loop
      vertex 49.7132 51.5455 -25.4819
      vertex 50.4825 51.5455 -20.1933
      vertex 45.3811 51.5455 -23.6602
    endloop
  endfacet
  facet normal -0 -1 0
    outer loop
      vertex 51.5455 51.5455 -24.3983
      vertex 50.4825 51.5455 -20.1933
      vertex 49.7132 51.5455 -25.4819
    endloop
  endfacet
  facet normal 0 -1 0
    outer loop
      vertex 50.4825 51.5455 -20.1933
      vertex 51.5455 51.5455 -24.3983
      vertex 51.5455 51.5455 -19.5646
    endloop
  endfacet
  facet normal 0 -1 0
    outer loop
      vertex 45.6321 51.5455 -28.2554
      vertex 45.3811 51.5455 -23.6602
      vertex 40.5075 51.5455 -27.4405
    endloop
  endfacet
  facet normal 0 -1 0
    outer loop
      vertex 45.3811 51.5455 -23.6602
      vertex 45.6321 51.5455 -28.2554
      vertex 49.7132 51.5455 -25.4819
    endloop
  endfacet
  facet normal 0 -1 0
    outer loop
      vertex 40.5075 51.5455 -27.4405
      vertex 41.7332 51.5455 -31.2797
      vertex 45.6321 51.5455 -28.2554
    endloop
  endfacet
  facet normal 0 -1 0
    outer loop
      vertex 35.8808 51.5455 -31.5194
      vertex 41.7332 51.5455 -31.2797
      vertex 40.5075 51.5455 -27.4405
    endloop
  endfacet
  facet normal 0 -1 0
    outer loop
      vertex 35.8808 51.5455 -31.5194
      vertex 38.0319 51.5455 -34.5428
      vertex 41.7332 51.5455 -31.2797
    endloop
  endfacet
  facet normal 0 -1 0
    outer loop
      vertex 31.5194 51.5455 -35.8808
      vertex 38.0319 51.5455 -34.5428
      vertex 35.8808 51.5455 -31.5194
    endloop
  endfacet
  facet normal 0 -1 0
    outer loop
      vertex 31.5194 51.5455 -35.8808
      vertex 34.5428 51.5455 -38.0319
      vertex 38.0319 51.5455 -34.5428
    endloop
  endfacet
  facet normal 0 -1 0
    outer loop
      vertex 31.2797 51.5455 -41.7332
      vertex 31.5194 51.5455 -35.8808
      vertex 27.4405 51.5455 -40.5075
    endloop
  endfacet
  facet normal 0 -1 -0
    outer loop
      vertex 31.5194 51.5455 -35.8808
      vertex 31.2797 51.5455 -41.7332
      vertex 34.5428 51.5455 -38.0319
    endloop
  endfacet
  facet normal 0 -1 0
    outer loop
      vertex 28.2554 51.5455 -45.6321
      vertex 27.4405 51.5455 -40.5075
      vertex 23.6602 51.5455 -45.3811
    endloop
  endfacet
  facet normal 0 -1 0
    outer loop
      vertex 27.4405 51.5455 -40.5075
      vertex 28.2554 51.5455 -45.6321
      vertex 31.2797 51.5455 -41.7332
    endloop
  endfacet
  facet normal 0 -1 0
    outer loop
      vertex 23.6602 51.5455 -45.3811
      vertex 25.4819 51.5455 -49.7132
      vertex 28.2554 51.5455 -45.6321
    endloop
  endfacet
  facet normal 0 -1 0
    outer loop
      vertex 20.1933 51.5455 -50.4825
      vertex 25.4819 51.5455 -49.7132
      vertex 23.6602 51.5455 -45.3811
    endloop
  endfacet
  facet normal 0 -1 0
    outer loop
      vertex 24.3983 51.5455 -51.5455
      vertex 20.1933 51.5455 -50.4825
      vertex 19.5646 51.5455 -51.5455
    endloop
  endfacet
  facet normal 0 -1 0
    outer loop
      vertex 20.1933 51.5455 -50.4825
      vertex 24.3983 51.5455 -51.5455
      vertex 25.4819 51.5455 -49.7132
    endloop
  endfacet
endsolid OpenSCAD_Model
