  0
SECTION
  2
BLOCKS
  0
ENDSEC
  0
SECTION
  2
ENTITIES
  0
LINE
  8
0
 10
-51.2954
 20
-42.9102
 11
-51.1975
 21
-43.348
  0
LINE
  8
0
 10
-51.1975
 20
-43.348
 11
-51.0064
 21
-44.0058
  0
LINE
  8
0
 10
-51.0064
 20
-44.0058
 11
-50.7744
 21
-44.6503
  0
LINE
  8
0
 10
-50.7744
 20
-44.6503
 11
-50.5023
 21
-45.2789
  0
LINE
  8
0
 10
-50.5023
 20
-45.2789
 11
-50.1914
 21
-45.8893
  0
LINE
  8
0
 10
-50.1914
 20
-45.8893
 11
-49.8427
 21
-46.4789
  0
LINE
  8
0
 10
-49.8427
 20
-46.4789
 11
-49.4576
 21
-47.0454
  0
LINE
  8
0
 10
-49.4576
 20
-47.0454
 11
-49.0378
 21
-47.5866
  0
LINE
  8
0
 10
-49.0378
 20
-47.5866
 11
-48.5848
 21
-48.1005
  0
LINE
  8
0
 10
-48.5848
 20
-48.1005
 11
-48.1005
 21
-48.5848
  0
LINE
  8
0
 10
-48.1005
 20
-48.5848
 11
-47.5866
 21
-49.0378
  0
LINE
  8
0
 10
-47.5866
 20
-49.0378
 11
-47.0454
 21
-49.4576
  0
LINE
  8
0
 10
-47.0454
 20
-49.4576
 11
-46.4789
 21
-49.8427
  0
LINE
  8
0
 10
-46.4789
 20
-49.8427
 11
-45.8893
 21
-50.1914
  0
LINE
  8
0
 10
-45.8893
 20
-50.1914
 11
-45.2789
 21
-50.5023
  0
LINE
  8
0
 10
-45.2789
 20
-50.5023
 11
-44.6503
 21
-50.7744
  0
LINE
  8
0
 10
-44.6503
 20
-50.7744
 11
-44.0058
 21
-51.0064
  0
LINE
  8
0
 10
-44.0058
 20
-51.0064
 11
-43.348
 21
-51.1975
  0
LINE
  8
0
 10
-43.348
 20
-51.1975
 11
-42.9102
 21
-51.2954
  0
LINE
  8
0
 10
-42.9102
 20
-51.2954
 11
-42.9102
 21
-45.5455
  0
LINE
  8
0
 10
-42.9102
 20
-45.5455
 11
42.9102
 21
-45.5455
  0
LINE
  8
0
 10
42.9102
 20
-45.5455
 11
42.9102
 21
-51.2954
  0
LINE
  8
0
 10
42.9102
 20
-51.2954
 11
43.348
 21
-51.1975
  0
LINE
  8
0
 10
43.348
 20
-51.1975
 11
44.0058
 21
-51.0064
  0
LINE
  8
0
 10
44.0058
 20
-51.0064
 11
44.6503
 21
-50.7744
  0
LINE
  8
0
 10
44.6503
 20
-50.7744
 11
45.2789
 21
-50.5023
  0
LINE
  8
0
 10
45.2789
 20
-50.5023
 11
45.8893
 21
-50.1914
  0
LINE
  8
0
 10
45.8893
 20
-50.1914
 11
46.4789
 21
-49.8427
  0
LINE
  8
0
 10
46.4789
 20
-49.8427
 11
47.0454
 21
-49.4576
  0
LINE
  8
0
 10
47.0454
 20
-49.4576
 11
47.5866
 21
-49.0378
  0
LINE
  8
0
 10
47.5866
 20
-49.0378
 11
48.1005
 21
-48.5848
  0
LINE
  8
0
 10
48.1005
 20
-48.5848
 11
48.5848
 21
-48.1005
  0
LINE
  8
0
 10
48.5848
 20
-48.1005
 11
49.0378
 21
-47.5866
  0
LINE
  8
0
 10
49.0378
 20
-47.5866
 11
49.4576
 21
-47.0454
  0
LINE
  8
0
 10
49.4576
 20
-47.0454
 11
49.8427
 21
-46.4789
  0
LINE
  8
0
 10
49.8427
 20
-46.4789
 11
50.1914
 21
-45.8893
  0
LINE
  8
0
 10
50.1914
 20
-45.8893
 11
50.5023
 21
-45.2789
  0
LINE
  8
0
 10
50.5023
 20
-45.2789
 11
50.7744
 21
-44.6503
  0
LINE
  8
0
 10
50.7744
 20
-44.6503
 11
51.0064
 21
-44.0058
  0
LINE
  8
0
 10
51.0064
 20
-44.0058
 11
51.1975
 21
-43.348
  0
LINE
  8
0
 10
51.1975
 20
-43.348
 11
51.3469
 21
-42.6795
  0
LINE
  8
0
 10
51.3469
 20
-42.6795
 11
51.4541
 21
-42.003
  0
LINE
  8
0
 10
51.4541
 20
-42.003
 11
51.5186
 21
-41.321
  0
LINE
  8
0
 10
51.5186
 20
-41.321
 11
51.5401
 21
-40.6364
  0
LINE
  8
0
 10
51.5401
 20
-40.6364
 11
51.5401
 21
40.6364
  0
LINE
  8
0
 10
51.5401
 20
40.6364
 11
51.5186
 21
41.321
  0
LINE
  8
0
 10
51.5186
 20
41.321
 11
51.4541
 21
42.003
  0
LINE
  8
0
 10
51.4541
 20
42.003
 11
51.3469
 21
42.6795
  0
LINE
  8
0
 10
51.3469
 20
42.6795
 11
51.1975
 21
43.348
  0
LINE
  8
0
 10
51.1975
 20
43.348
 11
51.0064
 21
44.0058
  0
LINE
  8
0
 10
51.0064
 20
44.0058
 11
50.7744
 21
44.6503
  0
LINE
  8
0
 10
50.7744
 20
44.6503
 11
50.5023
 21
45.2789
  0
LINE
  8
0
 10
50.5023
 20
45.2789
 11
50.1914
 21
45.8893
  0
LINE
  8
0
 10
50.1914
 20
45.8893
 11
49.8427
 21
46.4789
  0
LINE
  8
0
 10
49.8427
 20
46.4789
 11
49.4576
 21
47.0454
  0
LINE
  8
0
 10
49.4576
 20
47.0454
 11
49.0378
 21
47.5866
  0
LINE
  8
0
 10
49.0378
 20
47.5866
 11
48.5848
 21
48.1005
  0
LINE
  8
0
 10
48.5848
 20
48.1005
 11
48.1005
 21
48.5848
  0
LINE
  8
0
 10
48.1005
 20
48.5848
 11
47.5866
 21
49.0378
  0
LINE
  8
0
 10
47.5866
 20
49.0378
 11
47.0454
 21
49.4576
  0
LINE
  8
0
 10
47.0454
 20
49.4576
 11
46.4789
 21
49.8427
  0
LINE
  8
0
 10
46.4789
 20
49.8427
 11
45.8893
 21
50.1914
  0
LINE
  8
0
 10
45.8893
 20
50.1914
 11
45.2789
 21
50.5023
  0
LINE
  8
0
 10
45.2789
 20
50.5023
 11
44.6503
 21
50.7744
  0
LINE
  8
0
 10
44.6503
 20
50.7744
 11
44.0058
 21
51.0064
  0
LINE
  8
0
 10
44.0058
 20
51.0064
 11
43.348
 21
51.1975
  0
LINE
  8
0
 10
43.348
 20
51.1975
 11
42.6795
 21
51.3469
  0
LINE
  8
0
 10
42.6795
 20
51.3469
 11
42.003
 21
51.4541
  0
LINE
  8
0
 10
42.003
 20
51.4541
 11
41.321
 21
51.5186
  0
LINE
  8
0
 10
41.321
 20
51.5186
 11
40.6364
 21
51.5401
  0
LINE
  8
0
 10
40.6364
 20
51.5401
 11
-40.6364
 21
51.5401
  0
LINE
  8
0
 10
-40.6364
 20
51.5401
 11
-41.321
 21
51.5186
  0
LINE
  8
0
 10
-41.321
 20
51.5186
 11
-42.003
 21
51.4541
  0
LINE
  8
0
 10
-42.003
 20
51.4541
 11
-42.6795
 21
51.3469
  0
LINE
  8
0
 10
-42.6795
 20
51.3469
 11
-43.348
 21
51.1975
  0
LINE
  8
0
 10
-43.348
 20
51.1975
 11
-44.0058
 21
51.0064
  0
LINE
  8
0
 10
-44.0058
 20
51.0064
 11
-44.6503
 21
50.7744
  0
LINE
  8
0
 10
-44.6503
 20
50.7744
 11
-45.2789
 21
50.5023
  0
LINE
  8
0
 10
-45.2789
 20
50.5023
 11
-45.8893
 21
50.1914
  0
LINE
  8
0
 10
-45.8893
 20
50.1914
 11
-46.4789
 21
49.8427
  0
LINE
  8
0
 10
-46.4789
 20
49.8427
 11
-47.0454
 21
49.4576
  0
LINE
  8
0
 10
-47.0454
 20
49.4576
 11
-47.5866
 21
49.0378
  0
LINE
  8
0
 10
-47.5866
 20
49.0378
 11
-48.1005
 21
48.5848
  0
LINE
  8
0
 10
-48.1005
 20
48.5848
 11
-48.5848
 21
48.1005
  0
LINE
  8
0
 10
-48.5848
 20
48.1005
 11
-49.0378
 21
47.5866
  0
LINE
  8
0
 10
-49.0378
 20
47.5866
 11
-49.4576
 21
47.0454
  0
LINE
  8
0
 10
-49.4576
 20
47.0454
 11
-49.8427
 21
46.4789
  0
LINE
  8
0
 10
-49.8427
 20
46.4789
 11
-50.1914
 21
45.8893
  0
LINE
  8
0
 10
-50.1914
 20
45.8893
 11
-50.5023
 21
45.2789
  0
LINE
  8
0
 10
-50.5023
 20
45.2789
 11
-50.7744
 21
44.6503
  0
LINE
  8
0
 10
-50.7744
 20
44.6503
 11
-51.0064
 21
44.0058
  0
LINE
  8
0
 10
-51.0064
 20
44.0058
 11
-51.1975
 21
43.348
  0
LINE
  8
0
 10
-51.1975
 20
43.348
 11
-51.2954
 21
42.9102
  0
LINE
  8
0
 10
-51.2954
 20
42.9102
 11
-45.5455
 21
42.9102
  0
LINE
  8
0
 10
-45.5455
 20
42.9102
 11
-45.5455
 21
-42.9102
  0
LINE
  8
0
 10
-45.5455
 20
-42.9102
 11
-51.2954
 21
-42.9102
  0
ENDSEC
  0
SECTION
  2
OBJECTS
  0
DICTIONARY
  0
ENDSEC
  0
EOF
