  0
SECTION
  2
BLOCKS
  0
ENDSEC
  0
SECTION
  2
ENTITIES
  0
LINE
  8
0
 10
32.3813
 20
-42.5839
 11
33.0636
 21
-42.5194
  0
LINE
  8
0
 10
33.0636
 20
-42.5194
 11
33.7405
 21
-42.4122
  0
LINE
  8
0
 10
33.7405
 20
-42.4122
 11
34.4093
 21
-42.2627
  0
LINE
  8
0
 10
34.4093
 20
-42.2627
 11
35.0674
 21
-42.0715
  0
LINE
  8
0
 10
35.0674
 20
-42.0715
 11
35.7123
 21
-41.8394
  0
LINE
  8
0
 10
35.7123
 20
-41.8394
 11
36.3412
 21
-41.5672
  0
LINE
  8
0
 10
36.3412
 20
-41.5672
 11
36.9518
 21
-41.2561
  0
LINE
  8
0
 10
36.9518
 20
-41.2561
 11
37.5417
 21
-40.9072
  0
LINE
  8
0
 10
37.5417
 20
-40.9072
 11
38.1086
 21
-40.522
  0
LINE
  8
0
 10
38.1086
 20
-40.522
 11
38.6501
 21
-40.102
  0
LINE
  8
0
 10
38.6501
 20
-40.102
 11
39.1641
 21
-39.6487
  0
LINE
  8
0
 10
39.1641
 20
-39.6487
 11
39.6487
 21
-39.1641
  0
LINE
  8
0
 10
39.6487
 20
-39.1641
 11
40.102
 21
-38.6501
  0
LINE
  8
0
 10
40.102
 20
-38.6501
 11
40.522
 21
-38.1086
  0
LINE
  8
0
 10
40.522
 20
-38.1086
 11
40.9072
 21
-37.5417
  0
LINE
  8
0
 10
40.9072
 20
-37.5417
 11
41.2561
 21
-36.9518
  0
LINE
  8
0
 10
41.2561
 20
-36.9518
 11
41.5672
 21
-36.3412
  0
LINE
  8
0
 10
41.5672
 20
-36.3412
 11
41.8394
 21
-35.7123
  0
LINE
  8
0
 10
41.8394
 20
-35.7123
 11
42.0715
 21
-35.0674
  0
LINE
  8
0
 10
42.0715
 20
-35.0674
 11
42.2627
 21
-34.4093
  0
LINE
  8
0
 10
42.2627
 20
-34.4093
 11
42.4122
 21
-33.7405
  0
LINE
  8
0
 10
42.4122
 20
-33.7405
 11
42.5194
 21
-33.0636
  0
LINE
  8
0
 10
42.5194
 20
-33.0636
 11
42.5839
 21
-32.3813
  0
LINE
  8
0
 10
42.5839
 20
-32.3813
 11
42.6054
 21
-31.6964
  0
LINE
  8
0
 10
42.6054
 20
-31.6964
 11
42.6054
 21
31.6964
  0
LINE
  8
0
 10
42.6054
 20
31.6964
 11
42.5839
 21
32.3813
  0
LINE
  8
0
 10
42.5839
 20
32.3813
 11
42.5194
 21
33.0636
  0
LINE
  8
0
 10
42.5194
 20
33.0636
 11
42.4122
 21
33.7405
  0
LINE
  8
0
 10
42.4122
 20
33.7405
 11
42.2627
 21
34.4093
  0
LINE
  8
0
 10
42.2627
 20
34.4093
 11
42.0715
 21
35.0674
  0
LINE
  8
0
 10
42.0715
 20
35.0674
 11
41.8394
 21
35.7123
  0
LINE
  8
0
 10
41.8394
 20
35.7123
 11
41.5672
 21
36.3412
  0
LINE
  8
0
 10
41.5672
 20
36.3412
 11
41.2561
 21
36.9518
  0
LINE
  8
0
 10
41.2561
 20
36.9518
 11
40.9072
 21
37.5417
  0
LINE
  8
0
 10
40.9072
 20
37.5417
 11
40.522
 21
38.1086
  0
LINE
  8
0
 10
40.522
 20
38.1086
 11
40.102
 21
38.6501
  0
LINE
  8
0
 10
40.102
 20
38.6501
 11
39.6487
 21
39.1641
  0
LINE
  8
0
 10
39.6487
 20
39.1641
 11
39.1641
 21
39.6487
  0
LINE
  8
0
 10
39.1641
 20
39.6487
 11
38.6501
 21
40.102
  0
LINE
  8
0
 10
38.6501
 20
40.102
 11
38.1086
 21
40.522
  0
LINE
  8
0
 10
38.1086
 20
40.522
 11
37.5417
 21
40.9072
  0
LINE
  8
0
 10
37.5417
 20
40.9072
 11
36.9518
 21
41.2561
  0
LINE
  8
0
 10
36.9518
 20
41.2561
 11
36.3412
 21
41.5672
  0
LINE
  8
0
 10
36.3412
 20
41.5672
 11
35.7123
 21
41.8394
  0
LINE
  8
0
 10
35.7123
 20
41.8394
 11
35.0674
 21
42.0715
  0
LINE
  8
0
 10
35.0674
 20
42.0715
 11
34.4093
 21
42.2627
  0
LINE
  8
0
 10
34.4093
 20
42.2627
 11
33.7405
 21
42.4122
  0
LINE
  8
0
 10
33.7405
 20
42.4122
 11
33.0636
 21
42.5194
  0
LINE
  8
0
 10
33.0636
 20
42.5194
 11
32.3813
 21
42.5839
  0
LINE
  8
0
 10
32.3813
 20
42.5839
 11
31.6964
 21
42.6054
  0
LINE
  8
0
 10
31.6964
 20
42.6054
 11
-31.6964
 21
42.6054
  0
LINE
  8
0
 10
-31.6964
 20
42.6054
 11
-32.3813
 21
42.5839
  0
LINE
  8
0
 10
-32.3813
 20
42.5839
 11
-33.0636
 21
42.5194
  0
LINE
  8
0
 10
-33.0636
 20
42.5194
 11
-33.7405
 21
42.4122
  0
LINE
  8
0
 10
-33.7405
 20
42.4122
 11
-34.4093
 21
42.2627
  0
LINE
  8
0
 10
-34.4093
 20
42.2627
 11
-35.0674
 21
42.0715
  0
LINE
  8
0
 10
-35.0674
 20
42.0715
 11
-35.7123
 21
41.8394
  0
LINE
  8
0
 10
-35.7123
 20
41.8394
 11
-36.3412
 21
41.5672
  0
LINE
  8
0
 10
-36.3412
 20
41.5672
 11
-36.9518
 21
41.2561
  0
LINE
  8
0
 10
-36.9518
 20
41.2561
 11
-37.5417
 21
40.9072
  0
LINE
  8
0
 10
-37.5417
 20
40.9072
 11
-38.1086
 21
40.522
  0
LINE
  8
0
 10
-38.1086
 20
40.522
 11
-38.6501
 21
40.102
  0
LINE
  8
0
 10
-38.6501
 20
40.102
 11
-39.1641
 21
39.6487
  0
LINE
  8
0
 10
-39.1641
 20
39.6487
 11
-39.6487
 21
39.1641
  0
LINE
  8
0
 10
-39.6487
 20
39.1641
 11
-40.102
 21
38.6501
  0
LINE
  8
0
 10
-40.102
 20
38.6501
 11
-40.522
 21
38.1086
  0
LINE
  8
0
 10
-40.522
 20
38.1086
 11
-40.9072
 21
37.5417
  0
LINE
  8
0
 10
-40.9072
 20
37.5417
 11
-41.2561
 21
36.9518
  0
LINE
  8
0
 10
-41.2561
 20
36.9518
 11
-41.5672
 21
36.3412
  0
LINE
  8
0
 10
-41.5672
 20
36.3412
 11
-41.8394
 21
35.7123
  0
LINE
  8
0
 10
-41.8394
 20
35.7123
 11
-42.0715
 21
35.0674
  0
LINE
  8
0
 10
-42.0715
 20
35.0674
 11
-42.2627
 21
34.4093
  0
LINE
  8
0
 10
-42.2627
 20
34.4093
 11
-42.4122
 21
33.7405
  0
LINE
  8
0
 10
-42.4122
 20
33.7405
 11
-42.5194
 21
33.0636
  0
LINE
  8
0
 10
-42.5194
 20
33.0636
 11
-42.5839
 21
32.3813
  0
LINE
  8
0
 10
-42.5839
 20
32.3813
 11
-42.6055
 21
31.6964
  0
LINE
  8
0
 10
-42.6055
 20
31.6964
 11
-42.6055
 21
-31.6964
  0
LINE
  8
0
 10
-42.6055
 20
-31.6964
 11
-42.5839
 21
-32.3813
  0
LINE
  8
0
 10
-42.5839
 20
-32.3813
 11
-42.5194
 21
-33.0636
  0
LINE
  8
0
 10
-42.5194
 20
-33.0636
 11
-42.4122
 21
-33.7405
  0
LINE
  8
0
 10
-42.4122
 20
-33.7405
 11
-42.2627
 21
-34.4093
  0
LINE
  8
0
 10
-42.2627
 20
-34.4093
 11
-42.0715
 21
-35.0674
  0
LINE
  8
0
 10
-42.0715
 20
-35.0674
 11
-41.8394
 21
-35.7123
  0
LINE
  8
0
 10
-41.8394
 20
-35.7123
 11
-41.5672
 21
-36.3412
  0
LINE
  8
0
 10
-41.5672
 20
-36.3412
 11
-41.2561
 21
-36.9518
  0
LINE
  8
0
 10
-41.2561
 20
-36.9518
 11
-40.9072
 21
-37.5417
  0
LINE
  8
0
 10
-40.9072
 20
-37.5417
 11
-40.522
 21
-38.1086
  0
LINE
  8
0
 10
-40.522
 20
-38.1086
 11
-40.102
 21
-38.6501
  0
LINE
  8
0
 10
-40.102
 20
-38.6501
 11
-39.6487
 21
-39.1641
  0
LINE
  8
0
 10
-39.6487
 20
-39.1641
 11
-39.1641
 21
-39.6487
  0
LINE
  8
0
 10
-39.1641
 20
-39.6487
 11
-38.6501
 21
-40.102
  0
LINE
  8
0
 10
-38.6501
 20
-40.102
 11
-38.1086
 21
-40.522
  0
LINE
  8
0
 10
-38.1086
 20
-40.522
 11
-37.5417
 21
-40.9072
  0
LINE
  8
0
 10
-37.5417
 20
-40.9072
 11
-36.9518
 21
-41.2561
  0
LINE
  8
0
 10
-36.9518
 20
-41.2561
 11
-36.3412
 21
-41.5672
  0
LINE
  8
0
 10
-36.3412
 20
-41.5672
 11
-35.7123
 21
-41.8394
  0
LINE
  8
0
 10
-35.7123
 20
-41.8394
 11
-35.0674
 21
-42.0715
  0
LINE
  8
0
 10
-35.0674
 20
-42.0715
 11
-34.4093
 21
-42.2627
  0
LINE
  8
0
 10
-34.4093
 20
-42.2627
 11
-33.7405
 21
-42.4122
  0
LINE
  8
0
 10
-33.7405
 20
-42.4122
 11
-33.0636
 21
-42.5194
  0
LINE
  8
0
 10
-33.0636
 20
-42.5194
 11
-32.3813
 21
-42.5839
  0
LINE
  8
0
 10
-32.3813
 20
-42.5839
 11
-31.6964
 21
-42.6055
  0
LINE
  8
0
 10
-31.6964
 20
-42.6055
 11
31.6964
 21
-42.6055
  0
LINE
  8
0
 10
31.6964
 20
-42.6055
 11
32.3813
 21
-42.5839
  0
ENDSEC
  0
SECTION
  2
OBJECTS
  0
DICTIONARY
  0
ENDSEC
  0
EOF
