  0
SECTION
  2
BLOCKS
  0
ENDSEC
  0
SECTION
  2
ENTITIES
  0
LINE
  8
0
 10
31.1622
 20
-41.3648
 11
31.8445
 21
-41.3003
  0
LINE
  8
0
 10
31.8445
 20
-41.3003
 11
32.5214
 21
-41.1931
  0
LINE
  8
0
 10
32.5214
 20
-41.1931
 11
33.1902
 21
-41.0436
  0
LINE
  8
0
 10
33.1902
 20
-41.0436
 11
33.8484
 21
-40.8524
  0
LINE
  8
0
 10
33.8484
 20
-40.8524
 11
34.4932
 21
-40.6203
  0
LINE
  8
0
 10
34.4932
 20
-40.6203
 11
35.1221
 21
-40.3481
  0
LINE
  8
0
 10
35.1221
 20
-40.3481
 11
35.7328
 21
-40.037
  0
LINE
  8
0
 10
35.7328
 20
-40.037
 11
36.3226
 21
-39.6881
  0
LINE
  8
0
 10
36.3226
 20
-39.6881
 11
36.8895
 21
-39.3029
  0
LINE
  8
0
 10
36.8895
 20
-39.3029
 11
37.431
 21
-38.8829
  0
LINE
  8
0
 10
37.431
 20
-38.8829
 11
37.9451
 21
-38.4297
  0
LINE
  8
0
 10
37.9451
 20
-38.4297
 11
38.4297
 21
-37.9451
  0
LINE
  8
0
 10
38.4297
 20
-37.9451
 11
38.8829
 21
-37.431
  0
LINE
  8
0
 10
38.8829
 20
-37.431
 11
39.3029
 21
-36.8895
  0
LINE
  8
0
 10
39.3029
 20
-36.8895
 11
39.6881
 21
-36.3226
  0
LINE
  8
0
 10
39.6881
 20
-36.3226
 11
40.037
 21
-35.7328
  0
LINE
  8
0
 10
40.037
 20
-35.7328
 11
40.3481
 21
-35.1221
  0
LINE
  8
0
 10
40.3481
 20
-35.1221
 11
40.6203
 21
-34.4932
  0
LINE
  8
0
 10
40.6203
 20
-34.4932
 11
40.8524
 21
-33.8484
  0
LINE
  8
0
 10
40.8524
 20
-33.8484
 11
41.0436
 21
-33.1902
  0
LINE
  8
0
 10
41.0436
 20
-33.1902
 11
41.1931
 21
-32.5214
  0
LINE
  8
0
 10
41.1931
 20
-32.5214
 11
41.3003
 21
-31.8445
  0
LINE
  8
0
 10
41.3003
 20
-31.8445
 11
41.3648
 21
-31.1622
  0
LINE
  8
0
 10
41.3648
 20
-31.1622
 11
41.3864
 21
-30.4773
  0
LINE
  8
0
 10
41.3864
 20
-30.4773
 11
41.3864
 21
30.4773
  0
LINE
  8
0
 10
41.3864
 20
30.4773
 11
41.3648
 21
31.1622
  0
LINE
  8
0
 10
41.3648
 20
31.1622
 11
41.3003
 21
31.8445
  0
LINE
  8
0
 10
41.3003
 20
31.8445
 11
41.1931
 21
32.5214
  0
LINE
  8
0
 10
41.1931
 20
32.5214
 11
41.0436
 21
33.1902
  0
LINE
  8
0
 10
41.0436
 20
33.1902
 11
40.8524
 21
33.8484
  0
LINE
  8
0
 10
40.8524
 20
33.8484
 11
40.6203
 21
34.4932
  0
LINE
  8
0
 10
40.6203
 20
34.4932
 11
40.3481
 21
35.1221
  0
LINE
  8
0
 10
40.3481
 20
35.1221
 11
40.037
 21
35.7328
  0
LINE
  8
0
 10
40.037
 20
35.7328
 11
39.6881
 21
36.3226
  0
LINE
  8
0
 10
39.6881
 20
36.3226
 11
39.3029
 21
36.8895
  0
LINE
  8
0
 10
39.3029
 20
36.8895
 11
38.8829
 21
37.431
  0
LINE
  8
0
 10
38.8829
 20
37.431
 11
38.4297
 21
37.9451
  0
LINE
  8
0
 10
38.4297
 20
37.9451
 11
37.9451
 21
38.4297
  0
LINE
  8
0
 10
37.9451
 20
38.4297
 11
37.431
 21
38.8829
  0
LINE
  8
0
 10
37.431
 20
38.8829
 11
36.8895
 21
39.3029
  0
LINE
  8
0
 10
36.8895
 20
39.3029
 11
36.3226
 21
39.6881
  0
LINE
  8
0
 10
36.3226
 20
39.6881
 11
35.7328
 21
40.037
  0
LINE
  8
0
 10
35.7328
 20
40.037
 11
35.1221
 21
40.3481
  0
LINE
  8
0
 10
35.1221
 20
40.3481
 11
34.4932
 21
40.6203
  0
LINE
  8
0
 10
34.4932
 20
40.6203
 11
33.8484
 21
40.8524
  0
LINE
  8
0
 10
33.8484
 20
40.8524
 11
33.1902
 21
41.0436
  0
LINE
  8
0
 10
33.1902
 20
41.0436
 11
32.5214
 21
41.1931
  0
LINE
  8
0
 10
32.5214
 20
41.1931
 11
31.8445
 21
41.3003
  0
LINE
  8
0
 10
31.8445
 20
41.3003
 11
31.1622
 21
41.3648
  0
LINE
  8
0
 10
31.1622
 20
41.3648
 11
30.4773
 21
41.3864
  0
LINE
  8
0
 10
30.4773
 20
41.3864
 11
-30.4773
 21
41.3864
  0
LINE
  8
0
 10
-30.4773
 20
41.3864
 11
-31.1622
 21
41.3648
  0
LINE
  8
0
 10
-31.1622
 20
41.3648
 11
-31.8445
 21
41.3003
  0
LINE
  8
0
 10
-31.8445
 20
41.3003
 11
-32.5214
 21
41.1931
  0
LINE
  8
0
 10
-32.5214
 20
41.1931
 11
-33.1902
 21
41.0436
  0
LINE
  8
0
 10
-33.1902
 20
41.0436
 11
-33.8484
 21
40.8524
  0
LINE
  8
0
 10
-33.8484
 20
40.8524
 11
-34.4932
 21
40.6203
  0
LINE
  8
0
 10
-34.4932
 20
40.6203
 11
-35.1221
 21
40.3481
  0
LINE
  8
0
 10
-35.1221
 20
40.3481
 11
-35.7328
 21
40.037
  0
LINE
  8
0
 10
-35.7328
 20
40.037
 11
-36.3226
 21
39.6881
  0
LINE
  8
0
 10
-36.3226
 20
39.6881
 11
-36.8895
 21
39.3029
  0
LINE
  8
0
 10
-36.8895
 20
39.3029
 11
-37.431
 21
38.8829
  0
LINE
  8
0
 10
-37.431
 20
38.8829
 11
-37.9451
 21
38.4297
  0
LINE
  8
0
 10
-37.9451
 20
38.4297
 11
-38.4297
 21
37.9451
  0
LINE
  8
0
 10
-38.4297
 20
37.9451
 11
-38.8829
 21
37.431
  0
LINE
  8
0
 10
-38.8829
 20
37.431
 11
-39.3029
 21
36.8895
  0
LINE
  8
0
 10
-39.3029
 20
36.8895
 11
-39.6881
 21
36.3226
  0
LINE
  8
0
 10
-39.6881
 20
36.3226
 11
-40.037
 21
35.7328
  0
LINE
  8
0
 10
-40.037
 20
35.7328
 11
-40.3481
 21
35.1221
  0
LINE
  8
0
 10
-40.3481
 20
35.1221
 11
-40.6203
 21
34.4932
  0
LINE
  8
0
 10
-40.6203
 20
34.4932
 11
-40.8524
 21
33.8484
  0
LINE
  8
0
 10
-40.8524
 20
33.8484
 11
-41.0436
 21
33.1902
  0
LINE
  8
0
 10
-41.0436
 20
33.1902
 11
-41.1931
 21
32.5214
  0
LINE
  8
0
 10
-41.1931
 20
32.5214
 11
-41.3003
 21
31.8445
  0
LINE
  8
0
 10
-41.3003
 20
31.8445
 11
-41.3648
 21
31.1622
  0
LINE
  8
0
 10
-41.3648
 20
31.1622
 11
-41.3864
 21
30.4773
  0
LINE
  8
0
 10
-41.3864
 20
30.4773
 11
-41.3864
 21
-30.4773
  0
LINE
  8
0
 10
-41.3864
 20
-30.4773
 11
-41.3648
 21
-31.1622
  0
LINE
  8
0
 10
-41.3648
 20
-31.1622
 11
-41.3003
 21
-31.8445
  0
LINE
  8
0
 10
-41.3003
 20
-31.8445
 11
-41.1931
 21
-32.5214
  0
LINE
  8
0
 10
-41.1931
 20
-32.5214
 11
-41.0436
 21
-33.1902
  0
LINE
  8
0
 10
-41.0436
 20
-33.1902
 11
-40.8524
 21
-33.8484
  0
LINE
  8
0
 10
-40.8524
 20
-33.8484
 11
-40.6203
 21
-34.4932
  0
LINE
  8
0
 10
-40.6203
 20
-34.4932
 11
-40.3481
 21
-35.1221
  0
LINE
  8
0
 10
-40.3481
 20
-35.1221
 11
-40.037
 21
-35.7328
  0
LINE
  8
0
 10
-40.037
 20
-35.7328
 11
-39.6881
 21
-36.3226
  0
LINE
  8
0
 10
-39.6881
 20
-36.3226
 11
-39.3029
 21
-36.8895
  0
LINE
  8
0
 10
-39.3029
 20
-36.8895
 11
-38.8829
 21
-37.431
  0
LINE
  8
0
 10
-38.8829
 20
-37.431
 11
-38.4297
 21
-37.9451
  0
LINE
  8
0
 10
-38.4297
 20
-37.9451
 11
-37.9451
 21
-38.4297
  0
LINE
  8
0
 10
-37.9451
 20
-38.4297
 11
-37.431
 21
-38.8829
  0
LINE
  8
0
 10
-37.431
 20
-38.8829
 11
-36.8895
 21
-39.3029
  0
LINE
  8
0
 10
-36.8895
 20
-39.3029
 11
-36.3226
 21
-39.6881
  0
LINE
  8
0
 10
-36.3226
 20
-39.6881
 11
-35.7328
 21
-40.037
  0
LINE
  8
0
 10
-35.7328
 20
-40.037
 11
-35.1221
 21
-40.3481
  0
LINE
  8
0
 10
-35.1221
 20
-40.3481
 11
-34.4932
 21
-40.6203
  0
LINE
  8
0
 10
-34.4932
 20
-40.6203
 11
-33.8484
 21
-40.8524
  0
LINE
  8
0
 10
-33.8484
 20
-40.8524
 11
-33.1902
 21
-41.0436
  0
LINE
  8
0
 10
-33.1902
 20
-41.0436
 11
-32.5214
 21
-41.1931
  0
LINE
  8
0
 10
-32.5214
 20
-41.1931
 11
-31.8445
 21
-41.3003
  0
LINE
  8
0
 10
-31.8445
 20
-41.3003
 11
-31.1622
 21
-41.3648
  0
LINE
  8
0
 10
-31.1622
 20
-41.3648
 11
-30.4773
 21
-41.3864
  0
LINE
  8
0
 10
-30.4773
 20
-41.3864
 11
30.4773
 21
-41.3864
  0
LINE
  8
0
 10
30.4773
 20
-41.3864
 11
31.1622
 21
-41.3648
  0
ENDSEC
  0
SECTION
  2
OBJECTS
  0
DICTIONARY
  0
ENDSEC
  0
EOF
