solid OpenSCAD_Model
  facet normal 0 -1 0
    outer loop
      vertex -31.1623 -41.3648 -5.45455
      vertex 31.1623 -41.3648 -5.45455
      vertex 31.1623 -41.3648 5.45455
    endloop
  endfacet
  facet normal 0 -1 0
    outer loop
      vertex -31.1623 -41.3648 5.45455
      vertex -31.1623 -41.3648 -5.45455
      vertex 31.1623 -41.3648 5.45455
    endloop
  endfacet
  facet normal -0.125333 -0.992115 0
    outer loop
      vertex -32.5214 -41.1931 -5.45455
      vertex -31.1623 -41.3648 -5.45455
      vertex -31.1623 -41.3648 5.45455
    endloop
  endfacet
  facet normal -0.125333 -0.992115 0
    outer loop
      vertex -32.5214 -41.1931 5.45455
      vertex -32.5214 -41.1931 -5.45455
      vertex -31.1623 -41.3648 5.45455
    endloop
  endfacet
  facet normal 0 0 1
    outer loop
      vertex -41.3864 -30.4773 5.45455
      vertex -41.3003 -31.8445 5.45455
      vertex -41.0436 -33.1903 5.45455
    endloop
  endfacet
  facet normal 0 0 1
    outer loop
      vertex -40.037 -35.7328 5.45455
      vertex -41.3864 -30.4773 5.45455
      vertex -40.6203 -34.4932 5.45455
    endloop
  endfacet
  facet normal 0 0 1
    outer loop
      vertex -40.6203 -34.4932 5.45455
      vertex -41.3864 -30.4773 5.45455
      vertex -41.0436 -33.1903 5.45455
    endloop
  endfacet
  facet normal 0 0 1
    outer loop
      vertex -39.3029 -36.8895 5.45455
      vertex -41.3864 -30.4773 5.45455
      vertex -40.037 -35.7328 5.45455
    endloop
  endfacet
  facet normal 0 0 1
    outer loop
      vertex -38.4297 -37.9451 5.45455
      vertex -41.3864 -30.4773 5.45455
      vertex -39.3029 -36.8895 5.45455
    endloop
  endfacet
  facet normal 0 0 1
    outer loop
      vertex -37.431 -38.8829 5.45455
      vertex -41.3864 -30.4773 5.45455
      vertex -38.4297 -37.9451 5.45455
    endloop
  endfacet
  facet normal 0 0 1
    outer loop
      vertex -36.3227 -39.6881 5.45455
      vertex -41.3864 -30.4773 5.45455
      vertex -37.431 -38.8829 5.45455
    endloop
  endfacet
  facet normal 0 0 1
    outer loop
      vertex -35.1221 -40.3481 5.45455
      vertex -41.3864 -30.4773 5.45455
      vertex -36.3227 -39.6881 5.45455
    endloop
  endfacet
  facet normal 0 0 1
    outer loop
      vertex -33.8484 -40.8524 5.45455
      vertex -41.3864 -30.4773 5.45455
      vertex -35.1221 -40.3481 5.45455
    endloop
  endfacet
  facet normal 0 0 1
    outer loop
      vertex -32.5214 -41.1931 5.45455
      vertex -41.3864 -30.4773 5.45455
      vertex -33.8484 -40.8524 5.45455
    endloop
  endfacet
  facet normal 0 0 1
    outer loop
      vertex -31.1623 -41.3648 5.45455
      vertex -41.3864 -30.4773 5.45455
      vertex -32.5214 -41.1931 5.45455
    endloop
  endfacet
  facet normal 0 0 1
    outer loop
      vertex 31.1623 -41.3648 5.45455
      vertex -41.3864 -30.4773 5.45455
      vertex -31.1623 -41.3648 5.45455
    endloop
  endfacet
  facet normal 0 0 1
    outer loop
      vertex 32.5214 -41.1931 5.45455
      vertex -41.3864 -30.4773 5.45455
      vertex 31.1623 -41.3648 5.45455
    endloop
  endfacet
  facet normal 0 0 1
    outer loop
      vertex 33.8484 -40.8524 5.45455
      vertex -41.3864 -30.4773 5.45455
      vertex 32.5214 -41.1931 5.45455
    endloop
  endfacet
  facet normal 0 0 1
    outer loop
      vertex 35.1221 -40.3481 5.45455
      vertex -41.3864 -30.4773 5.45455
      vertex 33.8484 -40.8524 5.45455
    endloop
  endfacet
  facet normal 0 0 1
    outer loop
      vertex 36.3227 -39.6881 5.45455
      vertex -41.3864 -30.4773 5.45455
      vertex 35.1221 -40.3481 5.45455
    endloop
  endfacet
  facet normal 0 0 1
    outer loop
      vertex 37.431 -38.8829 5.45455
      vertex -41.3864 -30.4773 5.45455
      vertex 36.3227 -39.6881 5.45455
    endloop
  endfacet
  facet normal 0 0 1
    outer loop
      vertex 38.4297 -37.9451 5.45455
      vertex -41.3864 -30.4773 5.45455
      vertex 37.431 -38.8829 5.45455
    endloop
  endfacet
  facet normal 0 0 1
    outer loop
      vertex 39.3029 -36.8895 5.45455
      vertex -41.3864 -30.4773 5.45455
      vertex 38.4297 -37.9451 5.45455
    endloop
  endfacet
  facet normal 0 0 1
    outer loop
      vertex 40.037 -35.7328 5.45455
      vertex -41.3864 -30.4773 5.45455
      vertex 39.3029 -36.8895 5.45455
    endloop
  endfacet
  facet normal 0 0 1
    outer loop
      vertex 40.6203 -34.4932 5.45455
      vertex -41.3864 -30.4773 5.45455
      vertex 40.037 -35.7328 5.45455
    endloop
  endfacet
  facet normal 0 0 1
    outer loop
      vertex 41.0436 -33.1903 5.45455
      vertex -41.3864 -30.4773 5.45455
      vertex 40.6203 -34.4932 5.45455
    endloop
  endfacet
  facet normal 0 0 1
    outer loop
      vertex 41.3003 -31.8445 5.45455
      vertex -41.3864 -30.4773 5.45455
      vertex 41.0436 -33.1903 5.45455
    endloop
  endfacet
  facet normal 0 0 1
    outer loop
      vertex 41.3864 -30.4773 5.45455
      vertex -41.3864 -30.4773 5.45455
      vertex 41.3003 -31.8445 5.45455
    endloop
  endfacet
  facet normal 0 0 1
    outer loop
      vertex 41.3864 30.4773 5.45455
      vertex -41.3864 -30.4773 5.45455
      vertex 41.3864 -30.4773 5.45455
    endloop
  endfacet
  facet normal 0 0 1
    outer loop
      vertex 41.3003 31.8445 5.45455
      vertex -41.3864 -30.4773 5.45455
      vertex 41.3864 30.4773 5.45455
    endloop
  endfacet
  facet normal 0 0 1
    outer loop
      vertex 41.0436 33.1903 5.45455
      vertex -41.3864 -30.4773 5.45455
      vertex 41.3003 31.8445 5.45455
    endloop
  endfacet
  facet normal 0 0 1
    outer loop
      vertex 40.6203 34.4932 5.45455
      vertex -41.3864 -30.4773 5.45455
      vertex 41.0436 33.1903 5.45455
    endloop
  endfacet
  facet normal 0 0 1
    outer loop
      vertex 40.037 35.7328 5.45455
      vertex -41.3864 -30.4773 5.45455
      vertex 40.6203 34.4932 5.45455
    endloop
  endfacet
  facet normal 0 0 1
    outer loop
      vertex 39.3029 36.8895 5.45455
      vertex -41.3864 -30.4773 5.45455
      vertex 40.037 35.7328 5.45455
    endloop
  endfacet
  facet normal 0 0 1
    outer loop
      vertex 38.4297 37.9451 5.45455
      vertex -41.3864 -30.4773 5.45455
      vertex 39.3029 36.8895 5.45455
    endloop
  endfacet
  facet normal 0 0 1
    outer loop
      vertex 37.431 38.8829 5.45455
      vertex -41.3864 -30.4773 5.45455
      vertex 38.4297 37.9451 5.45455
    endloop
  endfacet
  facet normal 0 0 1
    outer loop
      vertex 36.3227 39.6881 5.45455
      vertex -41.3864 -30.4773 5.45455
      vertex 37.431 38.8829 5.45455
    endloop
  endfacet
  facet normal 0 0 1
    outer loop
      vertex 35.1221 40.3481 5.45455
      vertex -41.3864 -30.4773 5.45455
      vertex 36.3227 39.6881 5.45455
    endloop
  endfacet
  facet normal 0 0 1
    outer loop
      vertex 33.8484 40.8524 5.45455
      vertex -41.3864 -30.4773 5.45455
      vertex 35.1221 40.3481 5.45455
    endloop
  endfacet
  facet normal 0 0 1
    outer loop
      vertex 32.5214 41.1931 5.45455
      vertex -41.3864 -30.4773 5.45455
      vertex 33.8484 40.8524 5.45455
    endloop
  endfacet
  facet normal 0 0 1
    outer loop
      vertex 31.1623 41.3648 5.45455
      vertex -41.3864 -30.4773 5.45455
      vertex 32.5214 41.1931 5.45455
    endloop
  endfacet
  facet normal 0 0 1
    outer loop
      vertex -31.1623 41.3648 5.45455
      vertex -41.3864 -30.4773 5.45455
      vertex 31.1623 41.3648 5.45455
    endloop
  endfacet
  facet normal 0 0 1
    outer loop
      vertex -32.5214 41.1931 5.45455
      vertex -41.3864 -30.4773 5.45455
      vertex -31.1623 41.3648 5.45455
    endloop
  endfacet
  facet normal 0 0 1
    outer loop
      vertex -33.8484 40.8524 5.45455
      vertex -41.3864 -30.4773 5.45455
      vertex -32.5214 41.1931 5.45455
    endloop
  endfacet
  facet normal 0 0 1
    outer loop
      vertex -35.1221 40.3481 5.45455
      vertex -41.3864 -30.4773 5.45455
      vertex -33.8484 40.8524 5.45455
    endloop
  endfacet
  facet normal 0 0 1
    outer loop
      vertex -36.3227 39.6881 5.45455
      vertex -41.3864 -30.4773 5.45455
      vertex -35.1221 40.3481 5.45455
    endloop
  endfacet
  facet normal 0 0 1
    outer loop
      vertex -37.431 38.8829 5.45455
      vertex -41.3864 -30.4773 5.45455
      vertex -36.3227 39.6881 5.45455
    endloop
  endfacet
  facet normal 0 0 1
    outer loop
      vertex -38.4297 37.9451 5.45455
      vertex -41.3864 -30.4773 5.45455
      vertex -37.431 38.8829 5.45455
    endloop
  endfacet
  facet normal 0 0 1
    outer loop
      vertex -39.3029 36.8895 5.45455
      vertex -41.3864 -30.4773 5.45455
      vertex -38.4297 37.9451 5.45455
    endloop
  endfacet
  facet normal 0 0 1
    outer loop
      vertex -40.037 35.7328 5.45455
      vertex -41.3864 -30.4773 5.45455
      vertex -39.3029 36.8895 5.45455
    endloop
  endfacet
  facet normal 0 0 1
    outer loop
      vertex -40.6203 34.4932 5.45455
      vertex -41.3864 -30.4773 5.45455
      vertex -40.037 35.7328 5.45455
    endloop
  endfacet
  facet normal 0 0 1
    outer loop
      vertex -41.0436 33.1903 5.45455
      vertex -41.3864 -30.4773 5.45455
      vertex -40.6203 34.4932 5.45455
    endloop
  endfacet
  facet normal 0 0 1
    outer loop
      vertex -41.3003 31.8445 5.45455
      vertex -41.3864 -30.4773 5.45455
      vertex -41.0436 33.1903 5.45455
    endloop
  endfacet
  facet normal 0 0 1
    outer loop
      vertex -41.3864 30.4773 5.45455
      vertex -41.3864 -30.4773 5.45455
      vertex -41.3003 31.8445 5.45455
    endloop
  endfacet
  facet normal 0 0 -1
    outer loop
      vertex -41.3864 30.4773 -5.45455
      vertex -41.3003 31.8445 -5.45455
      vertex -41.3864 -30.4773 -5.45455
    endloop
  endfacet
  facet normal 0 0 -1
    outer loop
      vertex -41.3864 -30.4773 -5.45455
      vertex -41.3003 31.8445 -5.45455
      vertex -41.0436 33.1903 -5.45455
    endloop
  endfacet
  facet normal 0 0 -1
    outer loop
      vertex -41.3864 -30.4773 -5.45455
      vertex -41.0436 33.1903 -5.45455
      vertex -40.6203 34.4932 -5.45455
    endloop
  endfacet
  facet normal 0 0 -1
    outer loop
      vertex -41.3864 -30.4773 -5.45455
      vertex -40.6203 34.4932 -5.45455
      vertex -40.037 35.7328 -5.45455
    endloop
  endfacet
  facet normal 0 0 -1
    outer loop
      vertex -41.3864 -30.4773 -5.45455
      vertex -40.037 35.7328 -5.45455
      vertex -39.3029 36.8895 -5.45455
    endloop
  endfacet
  facet normal 0 0 -1
    outer loop
      vertex -41.3864 -30.4773 -5.45455
      vertex -39.3029 36.8895 -5.45455
      vertex -38.4297 37.9451 -5.45455
    endloop
  endfacet
  facet normal 0 0 -1
    outer loop
      vertex -41.3864 -30.4773 -5.45455
      vertex -38.4297 37.9451 -5.45455
      vertex -37.431 38.8829 -5.45455
    endloop
  endfacet
  facet normal 0 0 -1
    outer loop
      vertex -41.3864 -30.4773 -5.45455
      vertex -37.431 38.8829 -5.45455
      vertex -36.3227 39.6881 -5.45455
    endloop
  endfacet
  facet normal 0 0 -1
    outer loop
      vertex -41.3864 -30.4773 -5.45455
      vertex -36.3227 39.6881 -5.45455
      vertex -35.1221 40.3481 -5.45455
    endloop
  endfacet
  facet normal 0 0 -1
    outer loop
      vertex -41.3864 -30.4773 -5.45455
      vertex -35.1221 40.3481 -5.45455
      vertex -33.8484 40.8524 -5.45455
    endloop
  endfacet
  facet normal 0 0 -1
    outer loop
      vertex -41.3864 -30.4773 -5.45455
      vertex -33.8484 40.8524 -5.45455
      vertex -32.5214 41.1931 -5.45455
    endloop
  endfacet
  facet normal 0 0 -1
    outer loop
      vertex -41.3864 -30.4773 -5.45455
      vertex -32.5214 41.1931 -5.45455
      vertex -31.1623 41.3648 -5.45455
    endloop
  endfacet
  facet normal 0 0 -1
    outer loop
      vertex -41.3864 -30.4773 -5.45455
      vertex -31.1623 41.3648 -5.45455
      vertex 31.1623 41.3648 -5.45455
    endloop
  endfacet
  facet normal 0 0 -1
    outer loop
      vertex -41.3864 -30.4773 -5.45455
      vertex 31.1623 41.3648 -5.45455
      vertex 32.5214 41.1931 -5.45455
    endloop
  endfacet
  facet normal 0 0 -1
    outer loop
      vertex -41.3864 -30.4773 -5.45455
      vertex 32.5214 41.1931 -5.45455
      vertex 33.8484 40.8524 -5.45455
    endloop
  endfacet
  facet normal 0 0 -1
    outer loop
      vertex -41.3864 -30.4773 -5.45455
      vertex 33.8484 40.8524 -5.45455
      vertex 35.1221 40.3481 -5.45455
    endloop
  endfacet
  facet normal 0 0 -1
    outer loop
      vertex -41.3864 -30.4773 -5.45455
      vertex 35.1221 40.3481 -5.45455
      vertex 36.3227 39.6881 -5.45455
    endloop
  endfacet
  facet normal 0 0 -1
    outer loop
      vertex -41.3864 -30.4773 -5.45455
      vertex 36.3227 39.6881 -5.45455
      vertex 37.431 38.8829 -5.45455
    endloop
  endfacet
  facet normal 0 0 -1
    outer loop
      vertex -41.3864 -30.4773 -5.45455
      vertex 37.431 38.8829 -5.45455
      vertex 38.4297 37.9451 -5.45455
    endloop
  endfacet
  facet normal 0 0 -1
    outer loop
      vertex -41.3864 -30.4773 -5.45455
      vertex 38.4297 37.9451 -5.45455
      vertex 39.3029 36.8895 -5.45455
    endloop
  endfacet
  facet normal 0 0 -1
    outer loop
      vertex -41.3864 -30.4773 -5.45455
      vertex 39.3029 36.8895 -5.45455
      vertex 40.037 35.7328 -5.45455
    endloop
  endfacet
  facet normal 0 0 -1
    outer loop
      vertex -41.3864 -30.4773 -5.45455
      vertex 40.037 35.7328 -5.45455
      vertex 40.6203 34.4932 -5.45455
    endloop
  endfacet
  facet normal 0 0 -1
    outer loop
      vertex -41.3864 -30.4773 -5.45455
      vertex 40.6203 34.4932 -5.45455
      vertex 41.0436 33.1903 -5.45455
    endloop
  endfacet
  facet normal 0 0 -1
    outer loop
      vertex -41.3864 -30.4773 -5.45455
      vertex 41.0436 33.1903 -5.45455
      vertex 41.3003 31.8445 -5.45455
    endloop
  endfacet
  facet normal 0 0 -1
    outer loop
      vertex -41.3864 -30.4773 -5.45455
      vertex 41.3003 31.8445 -5.45455
      vertex 41.3864 30.4773 -5.45455
    endloop
  endfacet
  facet normal 0 0 -1
    outer loop
      vertex -41.3864 -30.4773 -5.45455
      vertex 41.3864 30.4773 -5.45455
      vertex 41.3864 -30.4773 -5.45455
    endloop
  endfacet
  facet normal 0 0 -1
    outer loop
      vertex -41.3864 -30.4773 -5.45455
      vertex 41.3864 -30.4773 -5.45455
      vertex 41.3003 -31.8445 -5.45455
    endloop
  endfacet
  facet normal 0 0 -1
    outer loop
      vertex -41.3864 -30.4773 -5.45455
      vertex 41.3003 -31.8445 -5.45455
      vertex 41.0436 -33.1903 -5.45455
    endloop
  endfacet
  facet normal 0 0 -1
    outer loop
      vertex -41.3864 -30.4773 -5.45455
      vertex 41.0436 -33.1903 -5.45455
      vertex 40.6203 -34.4932 -5.45455
    endloop
  endfacet
  facet normal 0 0 -1
    outer loop
      vertex -41.3864 -30.4773 -5.45455
      vertex 40.6203 -34.4932 -5.45455
      vertex 40.037 -35.7328 -5.45455
    endloop
  endfacet
  facet normal 0 0 -1
    outer loop
      vertex -41.3864 -30.4773 -5.45455
      vertex 40.037 -35.7328 -5.45455
      vertex 39.3029 -36.8895 -5.45455
    endloop
  endfacet
  facet normal 0 0 -1
    outer loop
      vertex -41.3864 -30.4773 -5.45455
      vertex 39.3029 -36.8895 -5.45455
      vertex 38.4297 -37.9451 -5.45455
    endloop
  endfacet
  facet normal 0 0 -1
    outer loop
      vertex -41.3864 -30.4773 -5.45455
      vertex 38.4297 -37.9451 -5.45455
      vertex 37.431 -38.8829 -5.45455
    endloop
  endfacet
  facet normal 0 0 -1
    outer loop
      vertex -41.3864 -30.4773 -5.45455
      vertex 37.431 -38.8829 -5.45455
      vertex 36.3227 -39.6881 -5.45455
    endloop
  endfacet
  facet normal 0 0 -1
    outer loop
      vertex -41.3864 -30.4773 -5.45455
      vertex 36.3227 -39.6881 -5.45455
      vertex 35.1221 -40.3481 -5.45455
    endloop
  endfacet
  facet normal 0 0 -1
    outer loop
      vertex -41.3864 -30.4773 -5.45455
      vertex 35.1221 -40.3481 -5.45455
      vertex 33.8484 -40.8524 -5.45455
    endloop
  endfacet
  facet normal 0 0 -1
    outer loop
      vertex -41.3864 -30.4773 -5.45455
      vertex 33.8484 -40.8524 -5.45455
      vertex 32.5214 -41.1931 -5.45455
    endloop
  endfacet
  facet normal 0 0 -1
    outer loop
      vertex -41.3864 -30.4773 -5.45455
      vertex 32.5214 -41.1931 -5.45455
      vertex 31.1623 -41.3648 -5.45455
    endloop
  endfacet
  facet normal 0 0 -1
    outer loop
      vertex -41.3864 -30.4773 -5.45455
      vertex 31.1623 -41.3648 -5.45455
      vertex -31.1623 -41.3648 -5.45455
    endloop
  endfacet
  facet normal 0 0 -1
    outer loop
      vertex -41.3864 -30.4773 -5.45455
      vertex -31.1623 -41.3648 -5.45455
      vertex -32.5214 -41.1931 -5.45455
    endloop
  endfacet
  facet normal 0 0 -1
    outer loop
      vertex -41.3864 -30.4773 -5.45455
      vertex -32.5214 -41.1931 -5.45455
      vertex -33.8484 -40.8524 -5.45455
    endloop
  endfacet
  facet normal 0 0 -1
    outer loop
      vertex -41.3864 -30.4773 -5.45455
      vertex -33.8484 -40.8524 -5.45455
      vertex -35.1221 -40.3481 -5.45455
    endloop
  endfacet
  facet normal 0 0 -1
    outer loop
      vertex -41.3864 -30.4773 -5.45455
      vertex -35.1221 -40.3481 -5.45455
      vertex -36.3227 -39.6881 -5.45455
    endloop
  endfacet
  facet normal 0 0 -1
    outer loop
      vertex -41.3864 -30.4773 -5.45455
      vertex -36.3227 -39.6881 -5.45455
      vertex -37.431 -38.8829 -5.45455
    endloop
  endfacet
  facet normal 0 0 -1
    outer loop
      vertex -41.3864 -30.4773 -5.45455
      vertex -37.431 -38.8829 -5.45455
      vertex -38.4297 -37.9451 -5.45455
    endloop
  endfacet
  facet normal 0 0 -1
    outer loop
      vertex -41.3864 -30.4773 -5.45455
      vertex -38.4297 -37.9451 -5.45455
      vertex -39.3029 -36.8895 -5.45455
    endloop
  endfacet
  facet normal 0 0 -1
    outer loop
      vertex -41.3864 -30.4773 -5.45455
      vertex -39.3029 -36.8895 -5.45455
      vertex -40.037 -35.7328 -5.45455
    endloop
  endfacet
  facet normal 0 0 -1
    outer loop
      vertex -41.3864 -30.4773 -5.45455
      vertex -40.037 -35.7328 -5.45455
      vertex -40.6203 -34.4932 -5.45455
    endloop
  endfacet
  facet normal 0 0 -1
    outer loop
      vertex -41.3864 -30.4773 -5.45455
      vertex -40.6203 -34.4932 -5.45455
      vertex -41.0436 -33.1903 -5.45455
    endloop
  endfacet
  facet normal 0 0 -1
    outer loop
      vertex -41.3864 -30.4773 -5.45455
      vertex -41.0436 -33.1903 -5.45455
      vertex -41.3003 -31.8445 -5.45455
    endloop
  endfacet
  facet normal 0.125333 -0.992115 0
    outer loop
      vertex 31.1623 -41.3648 -5.45455
      vertex 32.5214 -41.1931 -5.45455
      vertex 32.5214 -41.1931 5.45455
    endloop
  endfacet
  facet normal 0.125333 -0.992115 0
    outer loop
      vertex 31.1623 -41.3648 5.45455
      vertex 31.1623 -41.3648 -5.45455
      vertex 32.5214 -41.1931 5.45455
    endloop
  endfacet
  facet normal -0.24869 -0.968583 0
    outer loop
      vertex -33.8484 -40.8524 -5.45455
      vertex -32.5214 -41.1931 -5.45455
      vertex -32.5214 -41.1931 5.45455
    endloop
  endfacet
  facet normal -0.24869 -0.968583 0
    outer loop
      vertex -33.8484 -40.8524 5.45455
      vertex -33.8484 -40.8524 -5.45455
      vertex -32.5214 -41.1931 5.45455
    endloop
  endfacet
  facet normal -0.998027 -0.0627909 0
    outer loop
      vertex -41.3003 -31.8445 -5.45455
      vertex -41.3003 -31.8445 5.45455
      vertex -41.3864 -30.4773 -5.45455
    endloop
  endfacet
  facet normal -0.998027 -0.0627909 0
    outer loop
      vertex -41.3864 -30.4773 -5.45455
      vertex -41.3003 -31.8445 5.45455
      vertex -41.3864 -30.4773 5.45455
    endloop
  endfacet
  facet normal -1 0 0
    outer loop
      vertex -41.3864 -30.4773 5.45455
      vertex -41.3864 30.4773 5.45455
      vertex -41.3864 -30.4773 -5.45455
    endloop
  endfacet
  facet normal -1 0 0
    outer loop
      vertex -41.3864 -30.4773 -5.45455
      vertex -41.3864 30.4773 5.45455
      vertex -41.3864 30.4773 -5.45455
    endloop
  endfacet
  facet normal -0.998027 0.0627909 0
    outer loop
      vertex -41.3864 30.4773 5.45455
      vertex -41.3003 31.8445 5.45455
      vertex -41.3864 30.4773 -5.45455
    endloop
  endfacet
  facet normal -0.998027 0.0627909 0
    outer loop
      vertex -41.3864 30.4773 -5.45455
      vertex -41.3003 31.8445 5.45455
      vertex -41.3003 31.8445 -5.45455
    endloop
  endfacet
  facet normal -0.982287 0.187381 0
    outer loop
      vertex -41.3003 31.8445 5.45455
      vertex -41.0436 33.1903 5.45455
      vertex -41.3003 31.8445 -5.45455
    endloop
  endfacet
  facet normal -0.982287 0.187381 0
    outer loop
      vertex -41.3003 31.8445 -5.45455
      vertex -41.0436 33.1903 5.45455
      vertex -41.0436 33.1903 -5.45455
    endloop
  endfacet
  facet normal -0.951056 0.309017 0
    outer loop
      vertex -41.0436 33.1903 5.45455
      vertex -40.6203 34.4932 5.45455
      vertex -41.0436 33.1903 -5.45455
    endloop
  endfacet
  facet normal -0.951056 0.309017 0
    outer loop
      vertex -41.0436 33.1903 -5.45455
      vertex -40.6203 34.4932 5.45455
      vertex -40.6203 34.4932 -5.45455
    endloop
  endfacet
  facet normal -0.904827 0.425779 0
    outer loop
      vertex -40.6203 34.4932 5.45455
      vertex -40.037 35.7328 5.45455
      vertex -40.6203 34.4932 -5.45455
    endloop
  endfacet
  facet normal -0.904827 0.425779 0
    outer loop
      vertex -40.6203 34.4932 -5.45455
      vertex -40.037 35.7328 5.45455
      vertex -40.037 35.7328 -5.45455
    endloop
  endfacet
  facet normal -0.844328 0.535827 0
    outer loop
      vertex -40.037 35.7328 5.45455
      vertex -39.3029 36.8895 5.45455
      vertex -40.037 35.7328 -5.45455
    endloop
  endfacet
  facet normal -0.844328 0.535827 0
    outer loop
      vertex -40.037 35.7328 -5.45455
      vertex -39.3029 36.8895 5.45455
      vertex -39.3029 36.8895 -5.45455
    endloop
  endfacet
  facet normal -0.770513 0.637424 0
    outer loop
      vertex -39.3029 36.8895 5.45455
      vertex -38.4297 37.9451 5.45455
      vertex -39.3029 36.8895 -5.45455
    endloop
  endfacet
  facet normal -0.770513 0.637424 0
    outer loop
      vertex -39.3029 36.8895 -5.45455
      vertex -38.4297 37.9451 5.45455
      vertex -38.4297 37.9451 -5.45455
    endloop
  endfacet
  facet normal -0.684547 0.728969 0
    outer loop
      vertex -38.4297 37.9451 5.45455
      vertex -37.431 38.8829 5.45455
      vertex -38.4297 37.9451 -5.45455
    endloop
  endfacet
  facet normal -0.684547 0.728969 0
    outer loop
      vertex -38.4297 37.9451 -5.45455
      vertex -37.431 38.8829 5.45455
      vertex -37.431 38.8829 -5.45455
    endloop
  endfacet
  facet normal -0.587785 0.809017 0
    outer loop
      vertex -37.431 38.8829 5.45455
      vertex -36.3227 39.6881 5.45455
      vertex -37.431 38.8829 -5.45455
    endloop
  endfacet
  facet normal -0.587785 0.809017 0
    outer loop
      vertex -37.431 38.8829 -5.45455
      vertex -36.3227 39.6881 5.45455
      vertex -36.3227 39.6881 -5.45455
    endloop
  endfacet
  facet normal -0.481754 0.876306 0
    outer loop
      vertex -36.3227 39.6881 5.45455
      vertex -35.1221 40.3481 5.45455
      vertex -36.3227 39.6881 -5.45455
    endloop
  endfacet
  facet normal -0.481754 0.876306 0
    outer loop
      vertex -36.3227 39.6881 -5.45455
      vertex -35.1221 40.3481 5.45455
      vertex -35.1221 40.3481 -5.45455
    endloop
  endfacet
  facet normal -0.368124 0.929777 0
    outer loop
      vertex -35.1221 40.3481 5.45455
      vertex -33.8484 40.8524 5.45455
      vertex -35.1221 40.3481 -5.45455
    endloop
  endfacet
  facet normal -0.368124 0.929777 0
    outer loop
      vertex -35.1221 40.3481 -5.45455
      vertex -33.8484 40.8524 5.45455
      vertex -33.8484 40.8524 -5.45455
    endloop
  endfacet
  facet normal -0.24869 0.968583 0
    outer loop
      vertex -33.8484 40.8524 5.45455
      vertex -32.5214 41.1931 5.45455
      vertex -33.8484 40.8524 -5.45455
    endloop
  endfacet
  facet normal -0.24869 0.968583 0
    outer loop
      vertex -33.8484 40.8524 -5.45455
      vertex -32.5214 41.1931 5.45455
      vertex -32.5214 41.1931 -5.45455
    endloop
  endfacet
  facet normal -0.125333 0.992115 0
    outer loop
      vertex -32.5214 41.1931 5.45455
      vertex -31.1623 41.3648 5.45455
      vertex -32.5214 41.1931 -5.45455
    endloop
  endfacet
  facet normal -0.125333 0.992115 0
    outer loop
      vertex -32.5214 41.1931 -5.45455
      vertex -31.1623 41.3648 5.45455
      vertex -31.1623 41.3648 -5.45455
    endloop
  endfacet
  facet normal 0 1 0
    outer loop
      vertex -31.1623 41.3648 5.45455
      vertex 31.1623 41.3648 5.45455
      vertex -31.1623 41.3648 -5.45455
    endloop
  endfacet
  facet normal 0 1 0
    outer loop
      vertex -31.1623 41.3648 -5.45455
      vertex 31.1623 41.3648 5.45455
      vertex 31.1623 41.3648 -5.45455
    endloop
  endfacet
  facet normal 0.125333 0.992115 0
    outer loop
      vertex 31.1623 41.3648 5.45455
      vertex 32.5214 41.1931 5.45455
      vertex 31.1623 41.3648 -5.45455
    endloop
  endfacet
  facet normal 0.125333 0.992115 0
    outer loop
      vertex 31.1623 41.3648 -5.45455
      vertex 32.5214 41.1931 5.45455
      vertex 32.5214 41.1931 -5.45455
    endloop
  endfacet
  facet normal 0.24869 0.968583 0
    outer loop
      vertex 32.5214 41.1931 5.45455
      vertex 33.8484 40.8524 5.45455
      vertex 32.5214 41.1931 -5.45455
    endloop
  endfacet
  facet normal 0.24869 0.968583 0
    outer loop
      vertex 32.5214 41.1931 -5.45455
      vertex 33.8484 40.8524 5.45455
      vertex 33.8484 40.8524 -5.45455
    endloop
  endfacet
  facet normal 0.368124 0.929777 0
    outer loop
      vertex 33.8484 40.8524 5.45455
      vertex 35.1221 40.3481 5.45455
      vertex 33.8484 40.8524 -5.45455
    endloop
  endfacet
  facet normal 0.368124 0.929777 0
    outer loop
      vertex 33.8484 40.8524 -5.45455
      vertex 35.1221 40.3481 5.45455
      vertex 35.1221 40.3481 -5.45455
    endloop
  endfacet
  facet normal 0.481754 0.876306 0
    outer loop
      vertex 35.1221 40.3481 5.45455
      vertex 36.3227 39.6881 5.45455
      vertex 35.1221 40.3481 -5.45455
    endloop
  endfacet
  facet normal 0.481754 0.876306 0
    outer loop
      vertex 35.1221 40.3481 -5.45455
      vertex 36.3227 39.6881 5.45455
      vertex 36.3227 39.6881 -5.45455
    endloop
  endfacet
  facet normal 0.587785 0.809017 0
    outer loop
      vertex 36.3227 39.6881 5.45455
      vertex 37.431 38.8829 5.45455
      vertex 36.3227 39.6881 -5.45455
    endloop
  endfacet
  facet normal 0.587785 0.809017 0
    outer loop
      vertex 36.3227 39.6881 -5.45455
      vertex 37.431 38.8829 5.45455
      vertex 37.431 38.8829 -5.45455
    endloop
  endfacet
  facet normal 0.684547 0.728969 0
    outer loop
      vertex 37.431 38.8829 5.45455
      vertex 38.4297 37.9451 5.45455
      vertex 37.431 38.8829 -5.45455
    endloop
  endfacet
  facet normal 0.684547 0.728969 0
    outer loop
      vertex 37.431 38.8829 -5.45455
      vertex 38.4297 37.9451 5.45455
      vertex 38.4297 37.9451 -5.45455
    endloop
  endfacet
  facet normal 0.770513 0.637424 0
    outer loop
      vertex 38.4297 37.9451 -5.45455
      vertex 38.4297 37.9451 5.45455
      vertex 39.3029 36.8895 5.45455
    endloop
  endfacet
  facet normal 0.770513 0.637424 0
    outer loop
      vertex 39.3029 36.8895 -5.45455
      vertex 38.4297 37.9451 -5.45455
      vertex 39.3029 36.8895 5.45455
    endloop
  endfacet
  facet normal 0.844328 0.535827 0
    outer loop
      vertex 39.3029 36.8895 -5.45455
      vertex 39.3029 36.8895 5.45455
      vertex 40.037 35.7328 5.45455
    endloop
  endfacet
  facet normal 0.844328 0.535827 0
    outer loop
      vertex 40.037 35.7328 -5.45455
      vertex 39.3029 36.8895 -5.45455
      vertex 40.037 35.7328 5.45455
    endloop
  endfacet
  facet normal 0.904827 0.425779 0
    outer loop
      vertex 40.037 35.7328 -5.45455
      vertex 40.037 35.7328 5.45455
      vertex 40.6203 34.4932 5.45455
    endloop
  endfacet
  facet normal 0.904827 0.425779 0
    outer loop
      vertex 40.6203 34.4932 -5.45455
      vertex 40.037 35.7328 -5.45455
      vertex 40.6203 34.4932 5.45455
    endloop
  endfacet
  facet normal 0.951056 0.309017 0
    outer loop
      vertex 40.6203 34.4932 -5.45455
      vertex 40.6203 34.4932 5.45455
      vertex 41.0436 33.1903 5.45455
    endloop
  endfacet
  facet normal 0.951056 0.309017 0
    outer loop
      vertex 41.0436 33.1903 -5.45455
      vertex 40.6203 34.4932 -5.45455
      vertex 41.0436 33.1903 5.45455
    endloop
  endfacet
  facet normal 0.982287 0.187381 0
    outer loop
      vertex 41.0436 33.1903 -5.45455
      vertex 41.0436 33.1903 5.45455
      vertex 41.3003 31.8445 5.45455
    endloop
  endfacet
  facet normal 0.982287 0.187381 0
    outer loop
      vertex 41.3003 31.8445 -5.45455
      vertex 41.0436 33.1903 -5.45455
      vertex 41.3003 31.8445 5.45455
    endloop
  endfacet
  facet normal 0.998027 0.0627909 0
    outer loop
      vertex 41.3003 31.8445 -5.45455
      vertex 41.3003 31.8445 5.45455
      vertex 41.3864 30.4773 5.45455
    endloop
  endfacet
  facet normal 0.998027 0.0627909 0
    outer loop
      vertex 41.3864 30.4773 -5.45455
      vertex 41.3003 31.8445 -5.45455
      vertex 41.3864 30.4773 5.45455
    endloop
  endfacet
  facet normal 1 0 0
    outer loop
      vertex 41.3864 -30.4773 -5.45455
      vertex 41.3864 30.4773 -5.45455
      vertex 41.3864 30.4773 5.45455
    endloop
  endfacet
  facet normal 1 0 0
    outer loop
      vertex 41.3864 -30.4773 5.45455
      vertex 41.3864 -30.4773 -5.45455
      vertex 41.3864 30.4773 5.45455
    endloop
  endfacet
  facet normal 0.998027 -0.0627909 0
    outer loop
      vertex 41.3003 -31.8445 -5.45455
      vertex 41.3864 -30.4773 -5.45455
      vertex 41.3864 -30.4773 5.45455
    endloop
  endfacet
  facet normal 0.998027 -0.0627909 0
    outer loop
      vertex 41.3003 -31.8445 5.45455
      vertex 41.3003 -31.8445 -5.45455
      vertex 41.3864 -30.4773 5.45455
    endloop
  endfacet
  facet normal 0.982287 -0.187381 0
    outer loop
      vertex 41.0436 -33.1903 -5.45455
      vertex 41.3003 -31.8445 -5.45455
      vertex 41.3003 -31.8445 5.45455
    endloop
  endfacet
  facet normal 0.982287 -0.187381 0
    outer loop
      vertex 41.0436 -33.1903 5.45455
      vertex 41.0436 -33.1903 -5.45455
      vertex 41.3003 -31.8445 5.45455
    endloop
  endfacet
  facet normal 0.951056 -0.309017 0
    outer loop
      vertex 40.6203 -34.4932 -5.45455
      vertex 41.0436 -33.1903 -5.45455
      vertex 41.0436 -33.1903 5.45455
    endloop
  endfacet
  facet normal 0.951056 -0.309017 0
    outer loop
      vertex 40.6203 -34.4932 5.45455
      vertex 40.6203 -34.4932 -5.45455
      vertex 41.0436 -33.1903 5.45455
    endloop
  endfacet
  facet normal 0.904827 -0.425779 0
    outer loop
      vertex 40.037 -35.7328 -5.45455
      vertex 40.6203 -34.4932 -5.45455
      vertex 40.6203 -34.4932 5.45455
    endloop
  endfacet
  facet normal 0.904827 -0.425779 0
    outer loop
      vertex 40.037 -35.7328 5.45455
      vertex 40.037 -35.7328 -5.45455
      vertex 40.6203 -34.4932 5.45455
    endloop
  endfacet
  facet normal 0.844328 -0.535827 0
    outer loop
      vertex 39.3029 -36.8895 -5.45455
      vertex 40.037 -35.7328 -5.45455
      vertex 40.037 -35.7328 5.45455
    endloop
  endfacet
  facet normal 0.844328 -0.535827 0
    outer loop
      vertex 39.3029 -36.8895 5.45455
      vertex 39.3029 -36.8895 -5.45455
      vertex 40.037 -35.7328 5.45455
    endloop
  endfacet
  facet normal 0.770513 -0.637424 0
    outer loop
      vertex 38.4297 -37.9451 -5.45455
      vertex 39.3029 -36.8895 -5.45455
      vertex 39.3029 -36.8895 5.45455
    endloop
  endfacet
  facet normal 0.770513 -0.637424 0
    outer loop
      vertex 38.4297 -37.9451 5.45455
      vertex 38.4297 -37.9451 -5.45455
      vertex 39.3029 -36.8895 5.45455
    endloop
  endfacet
  facet normal 0.684547 -0.728969 0
    outer loop
      vertex 37.431 -38.8829 -5.45455
      vertex 38.4297 -37.9451 -5.45455
      vertex 38.4297 -37.9451 5.45455
    endloop
  endfacet
  facet normal 0.684547 -0.728969 0
    outer loop
      vertex 37.431 -38.8829 5.45455
      vertex 37.431 -38.8829 -5.45455
      vertex 38.4297 -37.9451 5.45455
    endloop
  endfacet
  facet normal 0.587785 -0.809017 0
    outer loop
      vertex 36.3227 -39.6881 -5.45455
      vertex 37.431 -38.8829 -5.45455
      vertex 37.431 -38.8829 5.45455
    endloop
  endfacet
  facet normal 0.587785 -0.809017 0
    outer loop
      vertex 36.3227 -39.6881 5.45455
      vertex 36.3227 -39.6881 -5.45455
      vertex 37.431 -38.8829 5.45455
    endloop
  endfacet
  facet normal 0.481754 -0.876306 0
    outer loop
      vertex 35.1221 -40.3481 -5.45455
      vertex 36.3227 -39.6881 -5.45455
      vertex 36.3227 -39.6881 5.45455
    endloop
  endfacet
  facet normal 0.481754 -0.876306 0
    outer loop
      vertex 35.1221 -40.3481 5.45455
      vertex 35.1221 -40.3481 -5.45455
      vertex 36.3227 -39.6881 5.45455
    endloop
  endfacet
  facet normal 0.368124 -0.929777 0
    outer loop
      vertex 33.8484 -40.8524 -5.45455
      vertex 35.1221 -40.3481 -5.45455
      vertex 35.1221 -40.3481 5.45455
    endloop
  endfacet
  facet normal 0.368124 -0.929777 0
    outer loop
      vertex 33.8484 -40.8524 5.45455
      vertex 33.8484 -40.8524 -5.45455
      vertex 35.1221 -40.3481 5.45455
    endloop
  endfacet
  facet normal 0.24869 -0.968583 0
    outer loop
      vertex 32.5214 -41.1931 -5.45455
      vertex 33.8484 -40.8524 -5.45455
      vertex 33.8484 -40.8524 5.45455
    endloop
  endfacet
  facet normal 0.24869 -0.968583 0
    outer loop
      vertex 32.5214 -41.1931 5.45455
      vertex 32.5214 -41.1931 -5.45455
      vertex 33.8484 -40.8524 5.45455
    endloop
  endfacet
  facet normal -0.368124 -0.929777 0
    outer loop
      vertex -35.1221 -40.3481 -5.45455
      vertex -33.8484 -40.8524 -5.45455
      vertex -33.8484 -40.8524 5.45455
    endloop
  endfacet
  facet normal -0.368124 -0.929777 0
    outer loop
      vertex -35.1221 -40.3481 5.45455
      vertex -35.1221 -40.3481 -5.45455
      vertex -33.8484 -40.8524 5.45455
    endloop
  endfacet
  facet normal -0.481754 -0.876306 0
    outer loop
      vertex -36.3227 -39.6881 -5.45455
      vertex -35.1221 -40.3481 -5.45455
      vertex -35.1221 -40.3481 5.45455
    endloop
  endfacet
  facet normal -0.481754 -0.876306 0
    outer loop
      vertex -36.3227 -39.6881 5.45455
      vertex -36.3227 -39.6881 -5.45455
      vertex -35.1221 -40.3481 5.45455
    endloop
  endfacet
  facet normal -0.587785 -0.809017 0
    outer loop
      vertex -37.431 -38.8829 -5.45455
      vertex -36.3227 -39.6881 -5.45455
      vertex -36.3227 -39.6881 5.45455
    endloop
  endfacet
  facet normal -0.587785 -0.809017 0
    outer loop
      vertex -37.431 -38.8829 5.45455
      vertex -37.431 -38.8829 -5.45455
      vertex -36.3227 -39.6881 5.45455
    endloop
  endfacet
  facet normal -0.684547 -0.728969 0
    outer loop
      vertex -38.4297 -37.9451 -5.45455
      vertex -37.431 -38.8829 -5.45455
      vertex -37.431 -38.8829 5.45455
    endloop
  endfacet
  facet normal -0.684547 -0.728969 0
    outer loop
      vertex -38.4297 -37.9451 5.45455
      vertex -38.4297 -37.9451 -5.45455
      vertex -37.431 -38.8829 5.45455
    endloop
  endfacet
  facet normal -0.770513 -0.637424 0
    outer loop
      vertex -38.4297 -37.9451 -5.45455
      vertex -38.4297 -37.9451 5.45455
      vertex -39.3029 -36.8895 -5.45455
    endloop
  endfacet
  facet normal -0.770513 -0.637424 0
    outer loop
      vertex -39.3029 -36.8895 -5.45455
      vertex -38.4297 -37.9451 5.45455
      vertex -39.3029 -36.8895 5.45455
    endloop
  endfacet
  facet normal -0.844328 -0.535827 0
    outer loop
      vertex -39.3029 -36.8895 -5.45455
      vertex -39.3029 -36.8895 5.45455
      vertex -40.037 -35.7328 -5.45455
    endloop
  endfacet
  facet normal -0.844328 -0.535827 0
    outer loop
      vertex -40.037 -35.7328 -5.45455
      vertex -39.3029 -36.8895 5.45455
      vertex -40.037 -35.7328 5.45455
    endloop
  endfacet
  facet normal -0.904827 -0.425779 0
    outer loop
      vertex -40.037 -35.7328 -5.45455
      vertex -40.037 -35.7328 5.45455
      vertex -40.6203 -34.4932 -5.45455
    endloop
  endfacet
  facet normal -0.904827 -0.425779 0
    outer loop
      vertex -40.6203 -34.4932 -5.45455
      vertex -40.037 -35.7328 5.45455
      vertex -40.6203 -34.4932 5.45455
    endloop
  endfacet
  facet normal -0.951056 -0.309017 0
    outer loop
      vertex -40.6203 -34.4932 -5.45455
      vertex -40.6203 -34.4932 5.45455
      vertex -41.0436 -33.1903 -5.45455
    endloop
  endfacet
  facet normal -0.951056 -0.309017 0
    outer loop
      vertex -41.0436 -33.1903 -5.45455
      vertex -40.6203 -34.4932 5.45455
      vertex -41.0436 -33.1903 5.45455
    endloop
  endfacet
  facet normal -0.982287 -0.187381 0
    outer loop
      vertex -41.0436 -33.1903 -5.45455
      vertex -41.0436 -33.1903 5.45455
      vertex -41.3003 -31.8445 -5.45455
    endloop
  endfacet
  facet normal -0.982287 -0.187381 0
    outer loop
      vertex -41.3003 -31.8445 -5.45455
      vertex -41.0436 -33.1903 5.45455
      vertex -41.3003 -31.8445 5.45455
    endloop
  endfacet
endsolid OpenSCAD_Model
