  0
SECTION
  2
HEADER
  9
$ACADVER
  1
AC1009
  9
$EXTMIN
 10
0.0
 20
0.0
 30
0.0
  9
$EXTMAX
 10
1000.0
 20
1000.0
 30
0.0
  9
$FILLMODE
 70
 0
  9
$SPLFRAME
 70
 1
  0
ENDSEC
  0
SECTION
  2
TABLES
  0
TABLE
  2
LAYER
 70
1
  0
LAYER
  2
0
 70
     0
 62
     7
  6
CONTINUOUS
  0
ENDTAB
  0
ENDSEC
  0
SECTION
  2
ENTITIES
  0
TEXT
  8
0
 62
     0
 10
0.421539
 20
2.86889
 30
0
 40
1.42694
  1
__
 50
0
  0
TEXT
  8
0
 62
     0
 10
1.88583
 20
2.86889
 30
0
 40
1.42694
  1
underscore
 50
0
  0
TEXT
  8
0
 62
     0
 10
7.27576
 20
2.86889
 30
0
 40
1.42694
  1
__
 50
0
  0
POLYLINE
  8
0
 62
     0
 66
     1
 10
0
 20
0
 30
0.0
 70
     1
 40
0
 41
0
  0
VERTEX
  8
0
 10
3.73275
 20
4.4445
 30
0.0
 40
0
 41
0
  0
VERTEX
  8
0
 10
3.73275
 20
4.72629
 30
0.0
 40
0
 41
0
  0
VERTEX
  8
0
 10
4.34056
 20
4.72629
 30
0.0
 40
0
 41
0
  0
VERTEX
  8
0
 10
4.34056
 20
4.9784
 30
0.0
 40
0
 41
0
  0
VERTEX
  8
0
 10
3.88624
 20
4.9784
 30
0.0
 40
0
 41
0
  0
VERTEX
  8
0
 10
3.8686
 20
5.39729
 30
0.0
 40
0
 41
0
  0
VERTEX
  8
0
 10
3.86171
 20
5.56614
 30
0.0
 40
0
 41
0
  0
VERTEX
  8
0
 10
3.85618
 20
5.7161
 30
0.0
 40
0
 41
0
  0
VERTEX
  8
0
 10
3.85243
 20
5.83083
 30
0.0
 40
0
 41
0
  0
VERTEX
  8
0
 10
3.85113
 20
5.8941
 30
0.0
 40
0
 41
0
  0
VERTEX
  8
0
 10
3.85135
 20
5.97194
 30
0.0
 40
0
 41
0
  0
VERTEX
  8
0
 10
3.83556
 20
5.97194
 30
0.0
 40
0
 41
0
  0
VERTEX
  8
0
 10
3.81549
 20
5.96724
 30
0.0
 40
0
 41
0
  0
VERTEX
  8
0
 10
3.7895
 20
5.95578
 30
0.0
 40
0
 41
0
  0
VERTEX
  8
0
 10
3.75928
 20
5.93961
 30
0.0
 40
0
 41
0
  0
VERTEX
  8
0
 10
3.70731
 20
5.94933
 30
0.0
 40
0
 41
0
  0
VERTEX
  8
0
 10
3.65539
 20
5.9591
 30
0.0
 40
0
 41
0
  0
VERTEX
  8
0
 10
3.61996
 20
5.99735
 30
0.0
 40
0
 41
0
  0
VERTEX
  8
0
 10
3.58447
 20
6.03558
 30
0.0
 40
0
 41
0
  0
VERTEX
  8
0
 10
3.58447
 20
6.17404
 30
0.0
 40
0
 41
0
  0
VERTEX
  8
0
 10
3.62528
 20
6.21283
 30
0.0
 40
0
 41
0
  0
VERTEX
  8
0
 10
3.66601
 20
6.25163
 30
0.0
 40
0
 41
0
  0
VERTEX
  8
0
 10
3.70469
 20
6.26118
 30
0.0
 40
0
 41
0
  0
VERTEX
  8
0
 10
3.74333
 20
6.27072
 30
0.0
 40
0
 41
0
  0
VERTEX
  8
0
 10
3.79633
 20
6.24854
 30
0.0
 40
0
 41
0
  0
VERTEX
  8
0
 10
3.84939
 20
6.2264
 30
0.0
 40
0
 41
0
  0
VERTEX
  8
0
 10
3.87299
 20
6.18078
 30
0.0
 40
0
 41
0
  0
VERTEX
  8
0
 10
3.8966
 20
6.1351
 30
0.0
 40
0
 41
0
  0
VERTEX
  8
0
 10
5.11068
 20
6.1351
 30
0.0
 40
0
 41
0
  0
VERTEX
  8
0
 10
5.13428
 20
6.18078
 30
0.0
 40
0
 41
0
  0
VERTEX
  8
0
 10
5.15788
 20
6.2264
 30
0.0
 40
0
 41
0
  0
VERTEX
  8
0
 10
5.21029
 20
6.24832
 30
0.0
 40
0
 41
0
  0
VERTEX
  8
0
 10
5.26275
 20
6.27024
 30
0.0
 40
0
 41
0
  0
VERTEX
  8
0
 10
5.30528
 20
6.2609
 30
0.0
 40
0
 41
0
  0
VERTEX
  8
0
 10
5.34782
 20
6.25151
 30
0.0
 40
0
 41
0
  0
VERTEX
  8
0
 10
5.38525
 20
6.20703
 30
0.0
 40
0
 41
0
  0
VERTEX
  8
0
 10
5.42275
 20
6.16249
 30
0.0
 40
0
 41
0
  0
VERTEX
  8
0
 10
5.42275
 20
6.03558
 30
0.0
 40
0
 41
0
  0
VERTEX
  8
0
 10
5.38732
 20
5.99735
 30
0.0
 40
0
 41
0
  0
VERTEX
  8
0
 10
5.35183
 20
5.9591
 30
0.0
 40
0
 41
0
  0
VERTEX
  8
0
 10
5.29992
 20
5.94933
 30
0.0
 40
0
 41
0
  0
VERTEX
  8
0
 10
5.24799
 20
5.93961
 30
0.0
 40
0
 41
0
  0
VERTEX
  8
0
 10
5.21772
 20
5.95578
 30
0.0
 40
0
 41
0
  0
VERTEX
  8
0
 10
5.19174
 20
5.96724
 30
0.0
 40
0
 41
0
  0
VERTEX
  8
0
 10
5.17171
 20
5.97194
 30
0.0
 40
0
 41
0
  0
VERTEX
  8
0
 10
5.15593
 20
5.97194
 30
0.0
 40
0
 41
0
  0
VERTEX
  8
0
 10
5.15608
 20
5.8941
 30
0.0
 40
0
 41
0
  0
VERTEX
  8
0
 10
5.15474
 20
5.83083
 30
0.0
 40
0
 41
0
  0
VERTEX
  8
0
 10
5.15104
 20
5.7161
 30
0.0
 40
0
 41
0
  0
VERTEX
  8
0
 10
5.14546
 20
5.56614
 30
0.0
 40
0
 41
0
  0
VERTEX
  8
0
 10
5.13867
 20
5.39729
 30
0.0
 40
0
 41
0
  0
VERTEX
  8
0
 10
5.12099
 20
4.9784
 30
0.0
 40
0
 41
0
  0
VERTEX
  8
0
 10
4.66667
 20
4.9784
 30
0.0
 40
0
 41
0
  0
VERTEX
  8
0
 10
4.66667
 20
4.72629
 30
0.0
 40
0
 41
0
  0
VERTEX
  8
0
 10
5.27453
 20
4.72629
 30
0.0
 40
0
 41
0
  0
VERTEX
  8
0
 10
5.27453
 20
4.16276
 30
0.0
 40
0
 41
0
  0
VERTEX
  8
0
 10
3.73275
 20
4.16276
 30
0.0
 40
0
 41
0
  0
VERTEX
  8
0
 10
3.73275
 20
4.4445
 30
0.0
 40
0
 41
0
  0
SEQEND
 8
0
  0
POLYLINE
  8
0
 62
     0
 66
     1
 10
0
 20
0
 30
0.0
 70
     1
 40
0
 41
0
  0
VERTEX
  8
0
 10
5.20036
 20
4.45193
 30
0.0
 40
0
 41
0
  0
VERTEX
  8
0
 10
5.20036
 20
4.66694
 30
0.0
 40
0
 41
0
  0
VERTEX
  8
0
 10
3.80686
 20
4.66694
 30
0.0
 40
0
 41
0
  0
VERTEX
  8
0
 10
3.80686
 20
4.23693
 30
0.0
 40
0
 41
0
  0
VERTEX
  8
0
 10
5.20036
 20
4.23693
 30
0.0
 40
0
 41
0
  0
VERTEX
  8
0
 10
5.20036
 20
4.45193
 30
0.0
 40
0
 41
0
  0
SEQEND
 8
0
  0
POLYLINE
  8
0
 62
     0
 66
     1
 10
0
 20
0
 30
0.0
 70
     1
 40
0
 41
0
  0
VERTEX
  8
0
 10
4.02924
 20
4.38519
 30
0.0
 40
0
 41
0
  0
VERTEX
  8
0
 10
3.99957
 20
4.41488
 30
0.0
 40
0
 41
0
  0
VERTEX
  8
0
 10
3.99957
 20
4.47418
 30
0.0
 40
0
 41
0
  0
VERTEX
  8
0
 10
4.05886
 20
4.53347
 30
0.0
 40
0
 41
0
  0
VERTEX
  8
0
 10
4.11817
 20
4.53347
 30
0.0
 40
0
 41
0
  0
VERTEX
  8
0
 10
4.14785
 20
4.50385
 30
0.0
 40
0
 41
0
  0
VERTEX
  8
0
 10
4.17746
 20
4.47418
 30
0.0
 40
0
 41
0
  0
VERTEX
  8
0
 10
4.17746
 20
4.41488
 30
0.0
 40
0
 41
0
  0
VERTEX
  8
0
 10
4.14785
 20
4.38519
 30
0.0
 40
0
 41
0
  0
VERTEX
  8
0
 10
4.11817
 20
4.35553
 30
0.0
 40
0
 41
0
  0
VERTEX
  8
0
 10
4.05886
 20
4.35553
 30
0.0
 40
0
 41
0
  0
VERTEX
  8
0
 10
4.02924
 20
4.38519
 30
0.0
 40
0
 41
0
  0
SEQEND
 8
0
  0
POLYLINE
  8
0
 62
     0
 66
     1
 10
0
 20
0
 30
0.0
 70
     1
 40
0
 41
0
  0
VERTEX
  8
0
 10
4.29688
 20
4.39497
 30
0.0
 40
0
 41
0
  0
VERTEX
  8
0
 10
4.2659
 20
4.43435
 30
0.0
 40
0
 41
0
  0
VERTEX
  8
0
 10
4.27507
 20
4.46539
 30
0.0
 40
0
 41
0
  0
VERTEX
  8
0
 10
4.28782
 20
4.49224
 30
0.0
 40
0
 41
0
  0
VERTEX
  8
0
 10
4.30757
 20
4.51383
 30
0.0
 40
0
 41
0
  0
VERTEX
  8
0
 10
4.33182
 20
4.52826
 30
0.0
 40
0
 41
0
  0
VERTEX
  8
0
 10
4.35818
 20
4.53347
 30
0.0
 40
0
 41
0
  0
VERTEX
  8
0
 10
4.38504
 20
4.53347
 30
0.0
 40
0
 41
0
  0
VERTEX
  8
0
 10
4.44433
 20
4.47418
 30
0.0
 40
0
 41
0
  0
VERTEX
  8
0
 10
4.44433
 20
4.41488
 30
0.0
 40
0
 41
0
  0
VERTEX
  8
0
 10
4.41465
 20
4.38519
 30
0.0
 40
0
 41
0
  0
VERTEX
  8
0
 10
4.38504
 20
4.35553
 30
0.0
 40
0
 41
0
  0
VERTEX
  8
0
 10
4.32785
 20
4.35553
 30
0.0
 40
0
 41
0
  0
VERTEX
  8
0
 10
4.29688
 20
4.39497
 30
0.0
 40
0
 41
0
  0
SEQEND
 8
0
  0
POLYLINE
  8
0
 62
     0
 66
     1
 10
0
 20
0
 30
0.0
 70
     1
 40
0
 41
0
  0
VERTEX
  8
0
 10
4.59256
 20
4.38519
 30
0.0
 40
0
 41
0
  0
VERTEX
  8
0
 10
4.56293
 20
4.41488
 30
0.0
 40
0
 41
0
  0
VERTEX
  8
0
 10
4.56293
 20
4.47418
 30
0.0
 40
0
 41
0
  0
VERTEX
  8
0
 10
4.59256
 20
4.50385
 30
0.0
 40
0
 41
0
  0
VERTEX
  8
0
 10
4.62224
 20
4.53347
 30
0.0
 40
0
 41
0
  0
VERTEX
  8
0
 10
4.64903
 20
4.53347
 30
0.0
 40
0
 41
0
  0
VERTEX
  8
0
 10
4.6754
 20
4.52826
 30
0.0
 40
0
 41
0
  0
VERTEX
  8
0
 10
4.69965
 20
4.51383
 30
0.0
 40
0
 41
0
  0
VERTEX
  8
0
 10
4.71935
 20
4.49224
 30
0.0
 40
0
 41
0
  0
VERTEX
  8
0
 10
4.73215
 20
4.46539
 30
0.0
 40
0
 41
0
  0
VERTEX
  8
0
 10
4.74132
 20
4.43435
 30
0.0
 40
0
 41
0
  0
VERTEX
  8
0
 10
4.71035
 20
4.39497
 30
0.0
 40
0
 41
0
  0
VERTEX
  8
0
 10
4.67936
 20
4.35553
 30
0.0
 40
0
 41
0
  0
VERTEX
  8
0
 10
4.62224
 20
4.35553
 30
0.0
 40
0
 41
0
  0
VERTEX
  8
0
 10
4.59256
 20
4.38519
 30
0.0
 40
0
 41
0
  0
SEQEND
 8
0
  0
POLYLINE
  8
0
 62
     0
 66
     1
 10
0
 20
0
 30
0.0
 70
     1
 40
0
 41
0
  0
VERTEX
  8
0
 10
4.85943
 20
4.38519
 30
0.0
 40
0
 41
0
  0
VERTEX
  8
0
 10
4.82975
 20
4.41488
 30
0.0
 40
0
 41
0
  0
VERTEX
  8
0
 10
4.82975
 20
4.47418
 30
0.0
 40
0
 41
0
  0
VERTEX
  8
0
 10
4.88906
 20
4.53347
 30
0.0
 40
0
 41
0
  0
VERTEX
  8
0
 10
4.94835
 20
4.53347
 30
0.0
 40
0
 41
0
  0
VERTEX
  8
0
 10
4.97803
 20
4.50385
 30
0.0
 40
0
 41
0
  0
VERTEX
  8
0
 10
5.00765
 20
4.47418
 30
0.0
 40
0
 41
0
  0
VERTEX
  8
0
 10
5.00765
 20
4.41488
 30
0.0
 40
0
 41
0
  0
VERTEX
  8
0
 10
4.97803
 20
4.38519
 30
0.0
 40
0
 41
0
  0
VERTEX
  8
0
 10
4.94835
 20
4.35553
 30
0.0
 40
0
 41
0
  0
VERTEX
  8
0
 10
4.88906
 20
4.35553
 30
0.0
 40
0
 41
0
  0
VERTEX
  8
0
 10
4.85943
 20
4.38519
 30
0.0
 40
0
 41
0
  0
SEQEND
 8
0
  0
POLYLINE
  8
0
 62
     0
 66
     1
 10
0
 20
0
 30
0.0
 70
     1
 40
0
 41
0
  0
VERTEX
  8
0
 10
4.63704
 20
5.08724
 30
0.0
 40
0
 41
0
  0
VERTEX
  8
0
 10
4.63704
 20
5.1071
 30
0.0
 40
0
 41
0
  0
VERTEX
  8
0
 10
4.71083
 20
5.14074
 30
0.0
 40
0
 41
0
  0
VERTEX
  8
0
 10
4.7334
 20
5.13206
 30
0.0
 40
0
 41
0
  0
VERTEX
  8
0
 10
4.75603
 20
5.12337
 30
0.0
 40
0
 41
0
  0
VERTEX
  8
0
 10
4.7786
 20
5.14214
 30
0.0
 40
0
 41
0
  0
VERTEX
  8
0
 10
4.80122
 20
5.16086
 30
0.0
 40
0
 41
0
  0
VERTEX
  8
0
 10
4.79829
 20
5.18457
 30
0.0
 40
0
 41
0
  0
VERTEX
  8
0
 10
4.79958
 20
5.21332
 30
0.0
 40
0
 41
0
  0
VERTEX
  8
0
 10
4.80675
 20
5.24903
 30
0.0
 40
0
 41
0
  0
VERTEX
  8
0
 10
4.81814
 20
5.28982
 30
0.0
 40
0
 41
0
  0
VERTEX
  8
0
 10
4.87424
 20
5.28982
 30
0.0
 40
0
 41
0
  0
VERTEX
  8
0
 10
4.87424
 20
5.36035
 30
0.0
 40
0
 41
0
  0
VERTEX
  8
0
 10
4.84229
 20
5.38157
 30
0.0
 40
0
 41
0
  0
VERTEX
  8
0
 10
4.81039
 20
5.40278
 30
0.0
 40
0
 41
0
  0
VERTEX
  8
0
 10
4.80849
 20
5.45378
 30
0.0
 40
0
 41
0
  0
VERTEX
  8
0
 10
4.80365
 20
5.49556
 30
0.0
 40
0
 41
0
  0
VERTEX
  8
0
 10
4.79465
 20
5.52408
 30
0.0
 40
0
 41
0
  0
VERTEX
  8
0
 10
4.78267
 20
5.54335
 30
0.0
 40
0
 41
0
  0
VERTEX
  8
0
 10
4.75803
 20
5.54025
 30
0.0
 40
0
 41
0
  0
VERTEX
  8
0
 10
4.729
 20
5.54135
 30
0.0
 40
0
 41
0
  0
VERTEX
  8
0
 10
4.69401
 20
5.54824
 30
0.0
 40
0
 41
0
  0
VERTEX
  8
0
 10
4.65468
 20
5.55925
 30
0.0
 40
0
 41
0
  0
VERTEX
  8
0
 10
4.64725
 20
5.58767
 30
0.0
 40
0
 41
0
  0
VERTEX
  8
0
 10
4.63981
 20
5.61604
 30
0.0
 40
0
 41
0
  0
VERTEX
  8
0
 10
4.56293
 20
5.61604
 30
0.0
 40
0
 41
0
  0
VERTEX
  8
0
 10
4.56293
 20
5.57449
 30
0.0
 40
0
 41
0
  0
VERTEX
  8
0
 10
4.51676
 20
5.55838
 30
0.0
 40
0
 41
0
  0
VERTEX
  8
0
 10
4.47054
 20
5.54226
 30
0.0
 40
0
 41
0
  0
VERTEX
  8
0
 10
4.44493
 20
5.55811
 30
0.0
 40
0
 41
0
  0
VERTEX
  8
0
 10
4.41428
 20
5.54167
 30
0.0
 40
0
 41
0
  0
VERTEX
  8
0
 10
4.38357
 20
5.52528
 30
0.0
 40
0
 41
0
  0
VERTEX
  8
0
 10
4.39219
 20
5.49821
 30
0.0
 40
0
 41
0
  0
VERTEX
  8
0
 10
4.40076
 20
5.47119
 30
0.0
 40
0
 41
0
  0
VERTEX
  8
0
 10
4.38308
 20
5.4324
 30
0.0
 40
0
 41
0
  0
VERTEX
  8
0
 10
4.36544
 20
5.39361
 30
0.0
 40
0
 41
0
  0
VERTEX
  8
0
 10
4.32574
 20
5.39361
 30
0.0
 40
0
 41
0
  0
VERTEX
  8
0
 10
4.32574
 20
5.30464
 30
0.0
 40
0
 41
0
  0
VERTEX
  8
0
 10
4.36372
 20
5.30464
 30
0.0
 40
0
 41
0
  0
VERTEX
  8
0
 10
4.38162
 20
5.25722
 30
0.0
 40
0
 41
0
  0
VERTEX
  8
0
 10
4.39947
 20
5.20979
 30
0.0
 40
0
 41
0
  0
VERTEX
  8
0
 10
4.38172
 20
5.19878
 30
0.0
 40
0
 41
0
  0
VERTEX
  8
0
 10
4.36399
 20
5.18782
 30
0.0
 40
0
 41
0
  0
VERTEX
  8
0
 10
4.39182
 20
5.15701
 30
0.0
 40
0
 41
0
  0
VERTEX
  8
0
 10
4.41965
 20
5.12625
 30
0.0
 40
0
 41
0
  0
VERTEX
  8
0
 10
4.47054
 20
5.14242
 30
0.0
 40
0
 41
0
  0
VERTEX
  8
0
 10
4.50933
 20
5.12478
 30
0.0
 40
0
 41
0
  0
VERTEX
  8
0
 10
4.54807
 20
5.1071
 30
0.0
 40
0
 41
0
  0
VERTEX
  8
0
 10
4.54807
 20
5.06739
 30
0.0
 40
0
 41
0
  0
VERTEX
  8
0
 10
4.63704
 20
5.06739
 30
0.0
 40
0
 41
0
  0
VERTEX
  8
0
 10
4.63704
 20
5.08724
 30
0.0
 40
0
 41
0
  0
SEQEND
 8
0
  0
POLYLINE
  8
0
 62
     0
 66
     1
 10
0
 20
0
 30
0.0
 70
     1
 40
0
 41
0
  0
VERTEX
  8
0
 10
4.53868
 20
5.23301
 30
0.0
 40
0
 41
0
  0
VERTEX
  8
0
 10
4.507
 20
5.24832
 30
0.0
 40
0
 41
0
  0
VERTEX
  8
0
 10
4.4905
 20
5.28461
 30
0.0
 40
0
 41
0
  0
VERTEX
  8
0
 10
4.47879
 20
5.31814
 30
0.0
 40
0
 41
0
  0
VERTEX
  8
0
 10
4.47396
 20
5.34782
 30
0.0
 40
0
 41
0
  0
VERTEX
  8
0
 10
4.47396
 20
5.37478
 30
0.0
 40
0
 41
0
  0
VERTEX
  8
0
 10
4.50472
 20
5.41385
 30
0.0
 40
0
 41
0
  0
VERTEX
  8
0
 10
4.53543
 20
5.4529
 30
0.0
 40
0
 41
0
  0
VERTEX
  8
0
 10
4.65186
 20
5.4529
 30
0.0
 40
0
 41
0
  0
VERTEX
  8
0
 10
4.68153
 20
5.42329
 30
0.0
 40
0
 41
0
  0
VERTEX
  8
0
 10
4.71115
 20
5.39361
 30
0.0
 40
0
 41
0
  0
VERTEX
  8
0
 10
4.71289
 20
5.36768
 30
0.0
 40
0
 41
0
  0
VERTEX
  8
0
 10
4.71332
 20
5.34065
 30
0.0
 40
0
 41
0
  0
VERTEX
  8
0
 10
4.71208
 20
5.31207
 30
0.0
 40
0
 41
0
  0
VERTEX
  8
0
 10
4.70953
 20
5.28239
 30
0.0
 40
0
 41
0
  0
VERTEX
  8
0
 10
4.67247
 20
5.24903
 30
0.0
 40
0
 41
0
  0
VERTEX
  8
0
 10
4.63536
 20
5.21565
 30
0.0
 40
0
 41
0
  0
VERTEX
  8
0
 10
4.60286
 20
5.21669
 30
0.0
 40
0
 41
0
  0
VERTEX
  8
0
 10
4.57058
 20
5.2219
 30
0.0
 40
0
 41
0
  0
VERTEX
  8
0
 10
4.53868
 20
5.23301
 30
0.0
 40
0
 41
0
  0
SEQEND
 8
0
  0
POLYLINE
  8
0
 62
     0
 66
     1
 10
0
 20
0
 30
0.0
 70
     1
 40
0
 41
0
  0
VERTEX
  8
0
 10
4.64296
 20
5.32406
 30
0.0
 40
0
 41
0
  0
VERTEX
  8
0
 10
4.65929
 20
5.35086
 30
0.0
 40
0
 41
0
  0
VERTEX
  8
0
 10
4.63021
 20
5.37244
 30
0.0
 40
0
 41
0
  0
VERTEX
  8
0
 10
4.60118
 20
5.39399
 30
0.0
 40
0
 41
0
  0
VERTEX
  8
0
 10
4.58681
 20
5.38921
 30
0.0
 40
0
 41
0
  0
VERTEX
  8
0
 10
4.57238
 20
5.37912
 30
0.0
 40
0
 41
0
  0
VERTEX
  8
0
 10
4.55789
 20
5.36139
 30
0.0
 40
0
 41
0
  0
VERTEX
  8
0
 10
4.54335
 20
5.33832
 30
0.0
 40
0
 41
0
  0
VERTEX
  8
0
 10
4.55306
 20
5.31304
 30
0.0
 40
0
 41
0
  0
VERTEX
  8
0
 10
4.56278
 20
5.28771
 30
0.0
 40
0
 41
0
  0
VERTEX
  8
0
 10
4.59467
 20
5.29249
 30
0.0
 40
0
 41
0
  0
VERTEX
  8
0
 10
4.62657
 20
5.29719
 30
0.0
 40
0
 41
0
  0
VERTEX
  8
0
 10
4.64296
 20
5.32406
 30
0.0
 40
0
 41
0
  0
SEQEND
 8
0
  0
POLYLINE
  8
0
 62
     0
 66
     1
 10
0
 20
0
 30
0.0
 70
     1
 40
0
 41
0
  0
VERTEX
  8
0
 10
4.37044
 20
5.63113
 30
0.0
 40
0
 41
0
  0
VERTEX
  8
0
 10
4.40028
 20
5.66097
 30
0.0
 40
0
 41
0
  0
VERTEX
  8
0
 10
4.46875
 20
5.64382
 30
0.0
 40
0
 41
0
  0
VERTEX
  8
0
 10
4.48693
 20
5.66569
 30
0.0
 40
0
 41
0
  0
VERTEX
  8
0
 10
4.50504
 20
5.68756
 30
0.0
 40
0
 41
0
  0
VERTEX
  8
0
 10
4.4751
 20
5.70611
 30
0.0
 40
0
 41
0
  0
VERTEX
  8
0
 10
4.49175
 20
5.74262
 30
0.0
 40
0
 41
0
  0
VERTEX
  8
0
 10
4.50836
 20
5.77919
 30
0.0
 40
0
 41
0
  0
VERTEX
  8
0
 10
4.54807
 20
5.77919
 30
0.0
 40
0
 41
0
  0
VERTEX
  8
0
 10
4.54807
 20
5.84267
 30
0.0
 40
0
 41
0
  0
VERTEX
  8
0
 10
4.50043
 20
5.8775
 30
0.0
 40
0
 41
0
  0
VERTEX
  8
0
 10
4.49804
 20
5.921
 30
0.0
 40
0
 41
0
  0
VERTEX
  8
0
 10
4.49283
 20
5.95736
 30
0.0
 40
0
 41
0
  0
VERTEX
  8
0
 10
4.48367
 20
5.9835
 30
0.0
 40
0
 41
0
  0
VERTEX
  8
0
 10
4.47174
 20
6.00239
 30
0.0
 40
0
 41
0
  0
VERTEX
  8
0
 10
4.45432
 20
5.99914
 30
0.0
 40
0
 41
0
  0
VERTEX
  8
0
 10
4.43261
 20
6
 30
0.0
 40
0
 41
0
  0
VERTEX
  8
0
 10
4.40494
 20
6.00667
 30
0.0
 40
0
 41
0
  0
VERTEX
  8
0
 10
4.37294
 20
6.01758
 30
0.0
 40
0
 41
0
  0
VERTEX
  8
0
 10
4.36464
 20
6.03928
 30
0.0
 40
0
 41
0
  0
VERTEX
  8
0
 10
4.36426
 20
6.06228
 30
0.0
 40
0
 41
0
  0
VERTEX
  8
0
 10
4.33154
 20
6.06093
 30
0.0
 40
0
 41
0
  0
VERTEX
  8
0
 10
4.30675
 20
6.06093
 30
0.0
 40
0
 41
0
  0
VERTEX
  8
0
 10
4.26947
 20
6.05826
 30
0.0
 40
0
 41
0
  0
VERTEX
  8
0
 10
4.27192
 20
6.01324
 30
0.0
 40
0
 41
0
  0
VERTEX
  8
0
 10
4.2284
 20
6.01085
 30
0.0
 40
0
 41
0
  0
VERTEX
  8
0
 10
4.19211
 20
6.00569
 30
0.0
 40
0
 41
0
  0
VERTEX
  8
0
 10
4.16596
 20
5.99653
 30
0.0
 40
0
 41
0
  0
VERTEX
  8
0
 10
4.14703
 20
5.98454
 30
0.0
 40
0
 41
0
  0
VERTEX
  8
0
 10
4.14985
 20
5.96712
 30
0.0
 40
0
 41
0
  0
VERTEX
  8
0
 10
4.14844
 20
5.94287
 30
0.0
 40
0
 41
0
  0
VERTEX
  8
0
 10
4.14122
 20
5.90896
 30
0.0
 40
0
 41
0
  0
VERTEX
  8
0
 10
4.12978
 20
5.86817
 30
0.0
 40
0
 41
0
  0
VERTEX
  8
0
 10
4.08854
 20
5.86817
 30
0.0
 40
0
 41
0
  0
VERTEX
  8
0
 10
4.08854
 20
5.81033
 30
0.0
 40
0
 41
0
  0
VERTEX
  8
0
 10
4.11231
 20
5.79699
 30
0.0
 40
0
 41
0
  0
VERTEX
  8
0
 10
4.13612
 20
5.78369
 30
0.0
 40
0
 41
0
  0
VERTEX
  8
0
 10
4.13975
 20
5.73747
 30
0.0
 40
0
 41
0
  0
VERTEX
  8
0
 10
4.14339
 20
5.69119
 30
0.0
 40
0
 41
0
  0
VERTEX
  8
0
 10
4.17854
 20
5.64876
 30
0.0
 40
0
 41
0
  0
VERTEX
  8
0
 10
4.20632
 20
5.65603
 30
0.0
 40
0
 41
0
  0
VERTEX
  8
0
 10
4.23406
 20
5.66331
 30
0.0
 40
0
 41
0
  0
VERTEX
  8
0
 10
4.26133
 20
5.63351
 30
0.0
 40
0
 41
0
  0
VERTEX
  8
0
 10
4.28868
 20
5.60368
 30
0.0
 40
0
 41
0
  0
VERTEX
  8
0
 10
4.31461
 20
5.60249
 30
0.0
 40
0
 41
0
  0
VERTEX
  8
0
 10
4.34056
 20
5.60124
 30
0.0
 40
0
 41
0
  0
VERTEX
  8
0
 10
4.37044
 20
5.63113
 30
0.0
 40
0
 41
0
  0
SEQEND
 8
0
  0
POLYLINE
  8
0
 62
     0
 66
     1
 10
0
 20
0
 30
0.0
 70
     1
 40
0
 41
0
  0
VERTEX
  8
0
 10
4.29606
 20
5.73036
 30
0.0
 40
0
 41
0
  0
VERTEX
  8
0
 10
4.27274
 20
5.74283
 30
0.0
 40
0
 41
0
  0
VERTEX
  8
0
 10
4.24789
 20
5.76118
 30
0.0
 40
0
 41
0
  0
VERTEX
  8
0
 10
4.22194
 20
5.78381
 30
0.0
 40
0
 41
0
  0
VERTEX
  8
0
 10
4.22194
 20
5.86817
 30
0.0
 40
0
 41
0
  0
VERTEX
  8
0
 10
4.25157
 20
5.89785
 30
0.0
 40
0
 41
0
  0
VERTEX
  8
0
 10
4.28125
 20
5.92746
 30
0.0
 40
0
 41
0
  0
VERTEX
  8
0
 10
4.36561
 20
5.92746
 30
0.0
 40
0
 41
0
  0
VERTEX
  8
0
 10
4.38878
 20
5.90153
 30
0.0
 40
0
 41
0
  0
VERTEX
  8
0
 10
4.40631
 20
5.87761
 30
0.0
 40
0
 41
0
  0
VERTEX
  8
0
 10
4.41547
 20
5.85314
 30
0.0
 40
0
 41
0
  0
VERTEX
  8
0
 10
4.41678
 20
5.82574
 30
0.0
 40
0
 41
0
  0
VERTEX
  8
0
 10
4.41069
 20
5.79286
 30
0.0
 40
0
 41
0
  0
VERTEX
  8
0
 10
4.40056
 20
5.75461
 30
0.0
 40
0
 41
0
  0
VERTEX
  8
0
 10
4.36247
 20
5.73725
 30
0.0
 40
0
 41
0
  0
VERTEX
  8
0
 10
4.33464
 20
5.72532
 30
0.0
 40
0
 41
0
  0
VERTEX
  8
0
 10
4.32135
 20
5.72103
 30
0.0
 40
0
 41
0
  0
VERTEX
  8
0
 10
4.31267
 20
5.72428
 30
0.0
 40
0
 41
0
  0
VERTEX
  8
0
 10
4.29606
 20
5.73036
 30
0.0
 40
0
 41
0
  0
SEQEND
 8
0
  0
POLYLINE
  8
0
 62
     0
 66
     1
 10
0
 20
0
 30
0.0
 70
     1
 40
0
 41
0
  0
VERTEX
  8
0
 10
4.35385
 20
5.80593
 30
0.0
 40
0
 41
0
  0
VERTEX
  8
0
 10
4.36811
 20
5.83268
 30
0.0
 40
0
 41
0
  0
VERTEX
  8
0
 10
4.35628
 20
5.85189
 30
0.0
 40
0
 41
0
  0
VERTEX
  8
0
 10
4.3444
 20
5.8711
 30
0.0
 40
0
 41
0
  0
VERTEX
  8
0
 10
4.31668
 20
5.86572
 30
0.0
 40
0
 41
0
  0
VERTEX
  8
0
 10
4.28901
 20
5.8604
 30
0.0
 40
0
 41
0
  0
VERTEX
  8
0
 10
4.28369
 20
5.83268
 30
0.0
 40
0
 41
0
  0
VERTEX
  8
0
 10
4.27832
 20
5.80496
 30
0.0
 40
0
 41
0
  0
VERTEX
  8
0
 10
4.29833
 20
5.79232
 30
0.0
 40
0
 41
0
  0
VERTEX
  8
0
 10
4.31711
 20
5.78244
 30
0.0
 40
0
 41
0
  0
VERTEX
  8
0
 10
4.33111
 20
5.78097
 30
0.0
 40
0
 41
0
  0
VERTEX
  8
0
 10
4.34256
 20
5.78868
 30
0.0
 40
0
 41
0
  0
VERTEX
  8
0
 10
4.35385
 20
5.80593
 30
0.0
 40
0
 41
0
  0
SEQEND
 8
0
  0
POLYLINE
  8
0
 62
     0
 66
     1
 10
0
 20
0
 30
0.0
 70
     1
 40
0
 41
0
  0
VERTEX
  8
0
 10
3.62153
 20
4.88943
 30
0.0
 40
0
 41
0
  0
VERTEX
  8
0
 10
3.63157
 20
4.94874
 30
0.0
 40
0
 41
0
  0
VERTEX
  8
0
 10
3.60271
 20
4.94874
 30
0.0
 40
0
 41
0
  0
VERTEX
  8
0
 10
3.56239
 20
4.9515
 30
0.0
 40
0
 41
0
  0
VERTEX
  8
0
 10
3.50612
 20
4.95801
 30
0.0
 40
0
 41
0
  0
VERTEX
  8
0
 10
3.43842
 20
4.96729
 30
0.0
 40
0
 41
0
  0
VERTEX
  8
0
 10
3.4336
 20
4.91721
 30
0.0
 40
0
 41
0
  0
VERTEX
  8
0
 10
3.42882
 20
4.86719
 30
0.0
 40
0
 41
0
  0
VERTEX
  8
0
 10
3.39919
 20
4.86339
 30
0.0
 40
0
 41
0
  0
VERTEX
  8
0
 10
3.36951
 20
4.8596
 30
0.0
 40
0
 41
0
  0
VERTEX
  8
0
 10
3.35129
 20
4.87147
 30
0.0
 40
0
 41
0
  0
VERTEX
  8
0
 10
3.33306
 20
4.8834
 30
0.0
 40
0
 41
0
  0
VERTEX
  8
0
 10
3.34711
 20
4.97
 30
0.0
 40
0
 41
0
  0
VERTEX
  8
0
 10
3.35314
 20
5.00424
 30
0.0
 40
0
 41
0
  0
VERTEX
  8
0
 10
3.35926
 20
5.03336
 30
0.0
 40
0
 41
0
  0
VERTEX
  8
0
 10
3.36469
 20
5.05436
 30
0.0
 40
0
 41
0
  0
VERTEX
  8
0
 10
3.36876
 20
5.06413
 30
0.0
 40
0
 41
0
  0
VERTEX
  8
0
 10
3.37631
 20
5.07167
 30
0.0
 40
0
 41
0
  0
VERTEX
  8
0
 10
3.51378
 20
5.05393
 30
0.0
 40
0
 41
0
  0
VERTEX
  8
0
 10
3.57031
 20
5.0465
 30
0.0
 40
0
 41
0
  0
VERTEX
  8
0
 10
3.62278
 20
5.03917
 30
0.0
 40
0
 41
0
  0
VERTEX
  8
0
 10
3.66525
 20
5.03288
 30
0.0
 40
0
 41
0
  0
VERTEX
  8
0
 10
3.69194
 20
5.02838
 30
0.0
 40
0
 41
0
  0
VERTEX
  8
0
 10
3.73269
 20
5.02051
 30
0.0
 40
0
 41
0
  0
VERTEX
  8
0
 10
3.72439
 20
4.95865
 30
0.0
 40
0
 41
0
  0
VERTEX
  8
0
 10
3.71647
 20
4.90522
 30
0.0
 40
0
 41
0
  0
VERTEX
  8
0
 10
3.70931
 20
4.86344
 30
0.0
 40
0
 41
0
  0
VERTEX
  8
0
 10
3.70253
 20
4.83008
 30
0.0
 40
0
 41
0
  0
VERTEX
  8
0
 10
3.61154
 20
4.83008
 30
0.0
 40
0
 41
0
  0
VERTEX
  8
0
 10
3.62153
 20
4.88943
 30
0.0
 40
0
 41
0
  0
SEQEND
 8
0
  0
POLYLINE
  8
0
 62
     0
 66
     1
 10
0
 20
0
 30
0.0
 70
     1
 40
0
 41
0
  0
VERTEX
  8
0
 10
5.29796
 20
4.86344
 30
0.0
 40
0
 41
0
  0
VERTEX
  8
0
 10
5.29069
 20
4.90522
 30
0.0
 40
0
 41
0
  0
VERTEX
  8
0
 10
5.28288
 20
4.95865
 30
0.0
 40
0
 41
0
  0
VERTEX
  8
0
 10
5.27453
 20
5.02051
 30
0.0
 40
0
 41
0
  0
VERTEX
  8
0
 10
5.31526
 20
5.02838
 30
0.0
 40
0
 41
0
  0
VERTEX
  8
0
 10
5.3419
 20
5.03288
 30
0.0
 40
0
 41
0
  0
VERTEX
  8
0
 10
5.38439
 20
5.03917
 30
0.0
 40
0
 41
0
  0
VERTEX
  8
0
 10
5.43685
 20
5.0465
 30
0.0
 40
0
 41
0
  0
VERTEX
  8
0
 10
5.49349
 20
5.05393
 30
0.0
 40
0
 41
0
  0
VERTEX
  8
0
 10
5.63092
 20
5.07167
 30
0.0
 40
0
 41
0
  0
VERTEX
  8
0
 10
5.63846
 20
5.06413
 30
0.0
 40
0
 41
0
  0
VERTEX
  8
0
 10
5.64247
 20
5.05436
 30
0.0
 40
0
 41
0
  0
VERTEX
  8
0
 10
5.64789
 20
5.03336
 30
0.0
 40
0
 41
0
  0
VERTEX
  8
0
 10
5.65403
 20
5.00424
 30
0.0
 40
0
 41
0
  0
VERTEX
  8
0
 10
5.6601
 20
4.97
 30
0.0
 40
0
 41
0
  0
VERTEX
  8
0
 10
5.67421
 20
4.8834
 30
0.0
 40
0
 41
0
  0
VERTEX
  8
0
 10
5.65593
 20
4.87147
 30
0.0
 40
0
 41
0
  0
VERTEX
  8
0
 10
5.63769
 20
4.8596
 30
0.0
 40
0
 41
0
  0
VERTEX
  8
0
 10
5.60807
 20
4.86339
 30
0.0
 40
0
 41
0
  0
VERTEX
  8
0
 10
5.5784
 20
4.86719
 30
0.0
 40
0
 41
0
  0
VERTEX
  8
0
 10
5.57362
 20
4.91721
 30
0.0
 40
0
 41
0
  0
VERTEX
  8
0
 10
5.56885
 20
4.96729
 30
0.0
 40
0
 41
0
  0
VERTEX
  8
0
 10
5.50114
 20
4.95801
 30
0.0
 40
0
 41
0
  0
VERTEX
  8
0
 10
5.44515
 20
4.9515
 30
0.0
 40
0
 41
0
  0
VERTEX
  8
0
 10
5.40565
 20
4.94874
 30
0.0
 40
0
 41
0
  0
VERTEX
  8
0
 10
5.37793
 20
4.94874
 30
0.0
 40
0
 41
0
  0
VERTEX
  8
0
 10
5.38743
 20
4.88943
 30
0.0
 40
0
 41
0
  0
VERTEX
  8
0
 10
5.39686
 20
4.83008
 30
0.0
 40
0
 41
0
  0
VERTEX
  8
0
 10
5.30469
 20
4.83008
 30
0.0
 40
0
 41
0
  0
VERTEX
  8
0
 10
5.29796
 20
4.86344
 30
0.0
 40
0
 41
0
  0
SEQEND
 8
0
  0
POLYLINE
  8
0
 62
     0
 66
     1
 10
0
 20
0
 30
0.0
 70
     1
 40
0
 41
0
  0
VERTEX
  8
0
 10
3.60672
 20
5.10444
 30
0.0
 40
0
 41
0
  0
VERTEX
  8
0
 10
3.57557
 20
5.11083
 30
0.0
 40
0
 41
0
  0
VERTEX
  8
0
 10
3.52149
 20
5.11903
 30
0.0
 40
0
 41
0
  0
VERTEX
  8
0
 10
3.45107
 20
5.12847
 30
0.0
 40
0
 41
0
  0
VERTEX
  8
0
 10
3.45107
 20
5.20085
 30
0.0
 40
0
 41
0
  0
VERTEX
  8
0
 10
3.48443
 20
5.20068
 30
0.0
 40
0
 41
0
  0
VERTEX
  8
0
 10
3.53396
 20
5.19607
 30
0.0
 40
0
 41
0
  0
VERTEX
  8
0
 10
3.6096
 20
5.1856
 30
0.0
 40
0
 41
0
  0
VERTEX
  8
0
 10
3.67979
 20
5.17393
 30
0.0
 40
0
 41
0
  0
VERTEX
  8
0
 10
3.71326
 20
5.16596
 30
0.0
 40
0
 41
0
  0
VERTEX
  8
0
 10
3.71317
 20
5.15386
 30
0.0
 40
0
 41
0
  0
VERTEX
  8
0
 10
3.70817
 20
5.12972
 30
0.0
 40
0
 41
0
  0
VERTEX
  8
0
 10
3.69965
 20
5.097
 30
0.0
 40
0
 41
0
  0
VERTEX
  8
0
 10
3.66058
 20
5.09819
 30
0.0
 40
0
 41
0
  0
VERTEX
  8
0
 10
3.62864
 20
5.10053
 30
0.0
 40
0
 41
0
  0
VERTEX
  8
0
 10
3.60672
 20
5.10444
 30
0.0
 40
0
 41
0
  0
SEQEND
 8
0
  0
POLYLINE
  8
0
 62
     0
 66
     1
 10
0
 20
0
 30
0.0
 70
     1
 40
0
 41
0
  0
VERTEX
  8
0
 10
5.30414
 20
5.10872
 30
0.0
 40
0
 41
0
  0
VERTEX
  8
0
 10
5.30165
 20
5.12608
 30
0.0
 40
0
 41
0
  0
VERTEX
  8
0
 10
5.29579
 20
5.14606
 30
0.0
 40
0
 41
0
  0
VERTEX
  8
0
 10
5.28743
 20
5.16781
 30
0.0
 40
0
 41
0
  0
VERTEX
  8
0
 10
5.38226
 20
5.18431
 30
0.0
 40
0
 41
0
  0
VERTEX
  8
0
 10
5.42215
 20
5.19075
 30
0.0
 40
0
 41
0
  0
VERTEX
  8
0
 10
5.46083
 20
5.19601
 30
0.0
 40
0
 41
0
  0
VERTEX
  8
0
 10
5.49376
 20
5.19954
 30
0.0
 40
0
 41
0
  0
VERTEX
  8
0
 10
5.5166
 20
5.20085
 30
0.0
 40
0
 41
0
  0
VERTEX
  8
0
 10
5.55615
 20
5.20085
 30
0.0
 40
0
 41
0
  0
VERTEX
  8
0
 10
5.55615
 20
5.12999
 30
0.0
 40
0
 41
0
  0
VERTEX
  8
0
 10
5.50797
 20
5.12142
 30
0.0
 40
0
 41
0
  0
VERTEX
  8
0
 10
5.45107
 20
5.11253
 30
0.0
 40
0
 41
0
  0
VERTEX
  8
0
 10
5.382
 20
5.10303
 30
0.0
 40
0
 41
0
  0
VERTEX
  8
0
 10
5.30414
 20
5.09321
 30
0.0
 40
0
 41
0
  0
VERTEX
  8
0
 10
5.30414
 20
5.10872
 30
0.0
 40
0
 41
0
  0
SEQEND
 8
0
  0
POLYLINE
  8
0
 62
     0
 66
     1
 10
0
 20
0
 30
0.0
 70
     1
 40
0
 41
0
  0
VERTEX
  8
0
 10
3.55854
 20
5.23367
 30
0.0
 40
0
 41
0
  0
VERTEX
  8
0
 10
3.46588
 20
5.24789
 30
0.0
 40
0
 41
0
  0
VERTEX
  8
0
 10
3.46588
 20
5.26764
 30
0.0
 40
0
 41
0
  0
VERTEX
  8
0
 10
3.46821
 20
5.28771
 30
0.0
 40
0
 41
0
  0
VERTEX
  8
0
 10
3.4739
 20
5.30821
 30
0.0
 40
0
 41
0
  0
VERTEX
  8
0
 10
3.48188
 20
5.32904
 30
0.0
 40
0
 41
0
  0
VERTEX
  8
0
 10
3.60183
 20
5.30994
 30
0.0
 40
0
 41
0
  0
VERTEX
  8
0
 10
3.64893
 20
5.30203
 30
0.0
 40
0
 41
0
  0
VERTEX
  8
0
 10
3.68858
 20
5.29449
 30
0.0
 40
0
 41
0
  0
VERTEX
  8
0
 10
3.71647
 20
5.28819
 30
0.0
 40
0
 41
0
  0
VERTEX
  8
0
 10
3.72863
 20
5.28401
 30
0.0
 40
0
 41
0
  0
VERTEX
  8
0
 10
3.73058
 20
5.27018
 30
0.0
 40
0
 41
0
  0
VERTEX
  8
0
 10
3.72569
 20
5.24642
 30
0.0
 40
0
 41
0
  0
VERTEX
  8
0
 10
3.71593
 20
5.21565
 30
0.0
 40
0
 41
0
  0
VERTEX
  8
0
 10
3.68354
 20
5.21756
 30
0.0
 40
0
 41
0
  0
VERTEX
  8
0
 10
3.66363
 20
5.21946
 30
0.0
 40
0
 41
0
  0
VERTEX
  8
0
 10
3.63346
 20
5.22308
 30
0.0
 40
0
 41
0
  0
VERTEX
  8
0
 10
3.59706
 20
5.22803
 30
0.0
 40
0
 41
0
  0
VERTEX
  8
0
 10
3.55854
 20
5.23367
 30
0.0
 40
0
 41
0
  0
SEQEND
 8
0
  0
POLYLINE
  8
0
 62
     0
 66
     1
 10
0
 20
0
 30
0.0
 70
     1
 40
0
 41
0
  0
VERTEX
  8
0
 10
5.28157
 20
5.24642
 30
0.0
 40
0
 41
0
  0
VERTEX
  8
0
 10
5.27664
 20
5.27018
 30
0.0
 40
0
 41
0
  0
VERTEX
  8
0
 10
5.2786
 20
5.28401
 30
0.0
 40
0
 41
0
  0
VERTEX
  8
0
 10
5.29069
 20
5.28819
 30
0.0
 40
0
 41
0
  0
VERTEX
  8
0
 10
5.31863
 20
5.29449
 30
0.0
 40
0
 41
0
  0
VERTEX
  8
0
 10
5.35824
 20
5.30203
 30
0.0
 40
0
 41
0
  0
VERTEX
  8
0
 10
5.40539
 20
5.30994
 30
0.0
 40
0
 41
0
  0
VERTEX
  8
0
 10
5.52539
 20
5.32904
 30
0.0
 40
0
 41
0
  0
VERTEX
  8
0
 10
5.53336
 20
5.30821
 30
0.0
 40
0
 41
0
  0
VERTEX
  8
0
 10
5.53896
 20
5.28787
 30
0.0
 40
0
 41
0
  0
VERTEX
  8
0
 10
5.54135
 20
5.26818
 30
0.0
 40
0
 41
0
  0
VERTEX
  8
0
 10
5.54135
 20
5.24892
 30
0.0
 40
0
 41
0
  0
VERTEX
  8
0
 10
5.42953
 20
5.23232
 30
0.0
 40
0
 41
0
  0
VERTEX
  8
0
 10
5.38504
 20
5.22586
 30
0.0
 40
0
 41
0
  0
VERTEX
  8
0
 10
5.34668
 20
5.2206
 30
0.0
 40
0
 41
0
  0
VERTEX
  8
0
 10
5.31847
 20
5.21701
 30
0.0
 40
0
 41
0
  0
VERTEX
  8
0
 10
5.30453
 20
5.21565
 30
0.0
 40
0
 41
0
  0
VERTEX
  8
0
 10
5.29135
 20
5.21565
 30
0.0
 40
0
 41
0
  0
VERTEX
  8
0
 10
5.28157
 20
5.24642
 30
0.0
 40
0
 41
0
  0
SEQEND
 8
0
  0
POLYLINE
  8
0
 62
     0
 66
     1
 10
0
 20
0
 30
0.0
 70
     1
 40
0
 41
0
  0
VERTEX
  8
0
 10
3.5771
 20
5.35183
 30
0.0
 40
0
 41
0
  0
VERTEX
  8
0
 10
3.54221
 20
5.35786
 30
0.0
 40
0
 41
0
  0
VERTEX
  8
0
 10
3.51297
 20
5.36344
 30
0.0
 40
0
 41
0
  0
VERTEX
  8
0
 10
3.49246
 20
5.36794
 30
0.0
 40
0
 41
0
  0
VERTEX
  8
0
 10
3.48372
 20
5.37082
 30
0.0
 40
0
 41
0
  0
VERTEX
  8
0
 10
3.48324
 20
5.38476
 30
0.0
 40
0
 41
0
  0
VERTEX
  8
0
 10
3.48844
 20
5.41189
 30
0.0
 40
0
 41
0
  0
VERTEX
  8
0
 10
3.49767
 20
5.44846
 30
0.0
 40
0
 41
0
  0
VERTEX
  8
0
 10
3.61892
 20
5.42876
 30
0.0
 40
0
 41
0
  0
VERTEX
  8
0
 10
3.66635
 20
5.42111
 30
0.0
 40
0
 41
0
  0
VERTEX
  8
0
 10
3.70589
 20
5.41476
 30
0.0
 40
0
 41
0
  0
VERTEX
  8
0
 10
3.73346
 20
5.41043
 30
0.0
 40
0
 41
0
  0
VERTEX
  8
0
 10
3.7449
 20
5.40875
 30
0.0
 40
0
 41
0
  0
VERTEX
  8
0
 10
3.74685
 20
5.39876
 30
0.0
 40
0
 41
0
  0
VERTEX
  8
0
 10
3.7449
 20
5.37506
 30
0.0
 40
0
 41
0
  0
VERTEX
  8
0
 10
3.74013
 20
5.34169
 30
0.0
 40
0
 41
0
  0
VERTEX
  8
0
 10
3.70307
 20
5.33946
 30
0.0
 40
0
 41
0
  0
VERTEX
  8
0
 10
3.68164
 20
5.33979
 30
0.0
 40
0
 41
0
  0
VERTEX
  8
0
 10
3.65076
 20
5.34224
 30
0.0
 40
0
 41
0
  0
VERTEX
  8
0
 10
3.61453
 20
5.34636
 30
0.0
 40
0
 41
0
  0
VERTEX
  8
0
 10
3.5771
 20
5.35183
 30
0.0
 40
0
 41
0
  0
SEQEND
 8
0
  0
POLYLINE
  8
0
 62
     0
 66
     1
 10
0
 20
0
 30
0.0
 70
     1
 40
0
 41
0
  0
VERTEX
  8
0
 10
5.27078
 20
5.34289
 30
0.0
 40
0
 41
0
  0
VERTEX
  8
0
 10
5.26411
 20
5.35736
 30
0.0
 40
0
 41
0
  0
VERTEX
  8
0
 10
5.25993
 20
5.37939
 30
0.0
 40
0
 41
0
  0
VERTEX
  8
0
 10
5.25933
 20
5.39963
 30
0.0
 40
0
 41
0
  0
VERTEX
  8
0
 10
5.2634
 20
5.40875
 30
0.0
 40
0
 41
0
  0
VERTEX
  8
0
 10
5.27447
 20
5.41043
 30
0.0
 40
0
 41
0
  0
VERTEX
  8
0
 10
5.30186
 20
5.41482
 30
0.0
 40
0
 41
0
  0
VERTEX
  8
0
 10
5.34158
 20
5.42122
 30
0.0
 40
0
 41
0
  0
VERTEX
  8
0
 10
5.38938
 20
5.42893
 30
0.0
 40
0
 41
0
  0
VERTEX
  8
0
 10
5.51167
 20
5.44883
 30
0.0
 40
0
 41
0
  0
VERTEX
  8
0
 10
5.51167
 20
5.42985
 30
0.0
 40
0
 41
0
  0
VERTEX
  8
0
 10
5.51406
 20
5.41021
 30
0.0
 40
0
 41
0
  0
VERTEX
  8
0
 10
5.51986
 20
5.38954
 30
0.0
 40
0
 41
0
  0
VERTEX
  8
0
 10
5.52806
 20
5.36822
 30
0.0
 40
0
 41
0
  0
VERTEX
  8
0
 10
5.46431
 20
5.35943
 30
0.0
 40
0
 41
0
  0
VERTEX
  8
0
 10
5.40181
 20
5.35047
 30
0.0
 40
0
 41
0
  0
VERTEX
  8
0
 10
5.34119
 20
5.34119
 30
0.0
 40
0
 41
0
  0
VERTEX
  8
0
 10
5.2819
 20
5.33176
 30
0.0
 40
0
 41
0
  0
VERTEX
  8
0
 10
5.27078
 20
5.34289
 30
0.0
 40
0
 41
0
  0
SEQEND
 8
0
  0
POLYLINE
  8
0
 62
     0
 66
     1
 10
0
 20
0
 30
0.0
 70
     1
 40
0
 41
0
  0
VERTEX
  8
0
 10
3.59093
 20
5.4706
 30
0.0
 40
0
 41
0
  0
VERTEX
  8
0
 10
3.50097
 20
5.48449
 30
0.0
 40
0
 41
0
  0
VERTEX
  8
0
 10
3.507
 20
5.52576
 30
0.0
 40
0
 41
0
  0
VERTEX
  8
0
 10
3.51307
 20
5.567
 30
0.0
 40
0
 41
0
  0
VERTEX
  8
0
 10
3.58957
 20
5.55425
 30
0.0
 40
0
 41
0
  0
VERTEX
  8
0
 10
3.65771
 20
5.54297
 30
0.0
 40
0
 41
0
  0
VERTEX
  8
0
 10
3.71419
 20
5.53364
 30
0.0
 40
0
 41
0
  0
VERTEX
  8
0
 10
3.76237
 20
5.52572
 30
0.0
 40
0
 41
0
  0
VERTEX
  8
0
 10
3.76237
 20
5.4529
 30
0.0
 40
0
 41
0
  0
VERTEX
  8
0
 10
3.72163
 20
5.45481
 30
0.0
 40
0
 41
0
  0
VERTEX
  8
0
 10
3.69868
 20
5.45665
 30
0.0
 40
0
 41
0
  0
VERTEX
  8
0
 10
3.66639
 20
5.46024
 30
0.0
 40
0
 41
0
  0
VERTEX
  8
0
 10
3.62901
 20
5.46506
 30
0.0
 40
0
 41
0
  0
VERTEX
  8
0
 10
3.59093
 20
5.4706
 30
0.0
 40
0
 41
0
  0
SEQEND
 8
0
  0
POLYLINE
  8
0
 62
     0
 66
     1
 10
0
 20
0
 30
0.0
 70
     1
 40
0
 41
0
  0
VERTEX
  8
0
 10
5.24485
 20
5.48931
 30
0.0
 40
0
 41
0
  0
VERTEX
  8
0
 10
5.24485
 20
5.52572
 30
0.0
 40
0
 41
0
  0
VERTEX
  8
0
 10
5.29303
 20
5.53364
 30
0.0
 40
0
 41
0
  0
VERTEX
  8
0
 10
5.3495
 20
5.54297
 30
0.0
 40
0
 41
0
  0
VERTEX
  8
0
 10
5.41769
 20
5.55425
 30
0.0
 40
0
 41
0
  0
VERTEX
  8
0
 10
5.49414
 20
5.567
 30
0.0
 40
0
 41
0
  0
VERTEX
  8
0
 10
5.50017
 20
5.52621
 30
0.0
 40
0
 41
0
  0
VERTEX
  8
0
 10
5.50613
 20
5.48535
 30
0.0
 40
0
 41
0
  0
VERTEX
  8
0
 10
5.39714
 20
5.46913
 30
0.0
 40
0
 41
0
  0
VERTEX
  8
0
 10
5.35308
 20
5.46289
 30
0.0
 40
0
 41
0
  0
VERTEX
  8
0
 10
5.31375
 20
5.45768
 30
0.0
 40
0
 41
0
  0
VERTEX
  8
0
 10
5.28347
 20
5.45421
 30
0.0
 40
0
 41
0
  0
VERTEX
  8
0
 10
5.2665
 20
5.4529
 30
0.0
 40
0
 41
0
  0
VERTEX
  8
0
 10
5.24485
 20
5.4529
 30
0.0
 40
0
 41
0
  0
VERTEX
  8
0
 10
5.24485
 20
5.48931
 30
0.0
 40
0
 41
0
  0
SEQEND
 8
0
  0
POLYLINE
  8
0
 62
     0
 66
     1
 10
0
 20
0
 30
0.0
 70
     1
 40
0
 41
0
  0
VERTEX
  8
0
 10
3.68083
 20
5.579
 30
0.0
 40
0
 41
0
  0
VERTEX
  8
0
 10
3.64968
 20
5.58539
 30
0.0
 40
0
 41
0
  0
VERTEX
  8
0
 10
3.5956
 20
5.59353
 30
0.0
 40
0
 41
0
  0
VERTEX
  8
0
 10
3.52517
 20
5.60303
 30
0.0
 40
0
 41
0
  0
VERTEX
  8
0
 10
3.52517
 20
5.68608
 30
0.0
 40
0
 41
0
  0
VERTEX
  8
0
 10
3.64751
 20
5.66618
 30
0.0
 40
0
 41
0
  0
VERTEX
  8
0
 10
3.69569
 20
5.65847
 30
0.0
 40
0
 41
0
  0
VERTEX
  8
0
 10
3.73654
 20
5.65207
 30
0.0
 40
0
 41
0
  0
VERTEX
  8
0
 10
3.76568
 20
5.64774
 30
0.0
 40
0
 41
0
  0
VERTEX
  8
0
 10
3.77886
 20
5.646
 30
0.0
 40
0
 41
0
  0
VERTEX
  8
0
 10
3.78792
 20
5.64572
 30
0.0
 40
0
 41
0
  0
VERTEX
  8
0
 10
3.78082
 20
5.60861
 30
0.0
 40
0
 41
0
  0
VERTEX
  8
0
 10
3.77376
 20
5.57156
 30
0.0
 40
0
 41
0
  0
VERTEX
  8
0
 10
3.73469
 20
5.57275
 30
0.0
 40
0
 41
0
  0
VERTEX
  8
0
 10
3.70281
 20
5.57508
 30
0.0
 40
0
 41
0
  0
VERTEX
  8
0
 10
3.68083
 20
5.579
 30
0.0
 40
0
 41
0
  0
SEQEND
 8
0
  0
POLYLINE
  8
0
 62
     0
 66
     1
 10
0
 20
0
 30
0.0
 70
     1
 40
0
 41
0
  0
VERTEX
  8
0
 10
5.22672
 20
5.60699
 30
0.0
 40
0
 41
0
  0
VERTEX
  8
0
 10
5.21929
 20
5.64572
 30
0.0
 40
0
 41
0
  0
VERTEX
  8
0
 10
5.22835
 20
5.646
 30
0.0
 40
0
 41
0
  0
VERTEX
  8
0
 10
5.24149
 20
5.64774
 30
0.0
 40
0
 41
0
  0
VERTEX
  8
0
 10
5.27067
 20
5.65207
 30
0.0
 40
0
 41
0
  0
VERTEX
  8
0
 10
5.31153
 20
5.65847
 30
0.0
 40
0
 41
0
  0
VERTEX
  8
0
 10
5.35975
 20
5.66618
 30
0.0
 40
0
 41
0
  0
VERTEX
  8
0
 10
5.48204
 20
5.68608
 30
0.0
 40
0
 41
0
  0
VERTEX
  8
0
 10
5.48204
 20
5.60454
 30
0.0
 40
0
 41
0
  0
VERTEX
  8
0
 10
5.43386
 20
5.59597
 30
0.0
 40
0
 41
0
  0
VERTEX
  8
0
 10
5.37756
 20
5.58713
 30
0.0
 40
0
 41
0
  0
VERTEX
  8
0
 10
5.30989
 20
5.57785
 30
0.0
 40
0
 41
0
  0
VERTEX
  8
0
 10
5.2341
 20
5.56831
 30
0.0
 40
0
 41
0
  0
VERTEX
  8
0
 10
5.22672
 20
5.60699
 30
0.0
 40
0
 41
0
  0
SEQEND
 8
0
  0
POLYLINE
  8
0
 62
     0
 66
     1
 10
0
 20
0
 30
0.0
 70
     1
 40
0
 41
0
  0
VERTEX
  8
0
 10
3.63265
 20
5.70822
 30
0.0
 40
0
 41
0
  0
VERTEX
  8
0
 10
3.54004
 20
5.72244
 30
0.0
 40
0
 41
0
  0
VERTEX
  8
0
 10
3.54004
 20
5.75575
 30
0.0
 40
0
 41
0
  0
VERTEX
  8
0
 10
3.54226
 20
5.78157
 30
0.0
 40
0
 41
0
  0
VERTEX
  8
0
 10
3.54779
 20
5.79682
 30
0.0
 40
0
 41
0
  0
VERTEX
  8
0
 10
3.55556
 20
5.80464
 30
0.0
 40
0
 41
0
  0
VERTEX
  8
0
 10
3.67535
 20
5.78543
 30
0.0
 40
0
 41
0
  0
VERTEX
  8
0
 10
3.72222
 20
5.77761
 30
0.0
 40
0
 41
0
  0
VERTEX
  8
0
 10
3.76144
 20
5.77035
 30
0.0
 40
0
 41
0
  0
VERTEX
  8
0
 10
3.78885
 20
5.76454
 30
0.0
 40
0
 41
0
  0
VERTEX
  8
0
 10
3.8004
 20
5.76096
 30
0.0
 40
0
 41
0
  0
VERTEX
  8
0
 10
3.8016
 20
5.74761
 30
0.0
 40
0
 41
0
  0
VERTEX
  8
0
 10
3.79715
 20
5.72293
 30
0.0
 40
0
 41
0
  0
VERTEX
  8
0
 10
3.78857
 20
5.69021
 30
0.0
 40
0
 41
0
  0
VERTEX
  8
0
 10
3.75694
 20
5.69211
 30
0.0
 40
0
 41
0
  0
VERTEX
  8
0
 10
3.73736
 20
5.69401
 30
0.0
 40
0
 41
0
  0
VERTEX
  8
0
 10
3.70742
 20
5.69764
 30
0.0
 40
0
 41
0
  0
VERTEX
  8
0
 10
3.67111
 20
5.70258
 30
0.0
 40
0
 41
0
  0
VERTEX
  8
0
 10
3.63265
 20
5.70822
 30
0.0
 40
0
 41
0
  0
SEQEND
 8
0
  0
POLYLINE
  8
0
 62
     0
 66
     1
 10
0
 20
0
 30
0.0
 70
     1
 40
0
 41
0
  0
VERTEX
  8
0
 10
5.21013
 20
5.72293
 30
0.0
 40
0
 41
0
  0
VERTEX
  8
0
 10
5.20562
 20
5.74761
 30
0.0
 40
0
 41
0
  0
VERTEX
  8
0
 10
5.20687
 20
5.76096
 30
0.0
 40
0
 41
0
  0
VERTEX
  8
0
 10
5.21837
 20
5.76454
 30
0.0
 40
0
 41
0
  0
VERTEX
  8
0
 10
5.24576
 20
5.77035
 30
0.0
 40
0
 41
0
  0
VERTEX
  8
0
 10
5.285
 20
5.77761
 30
0.0
 40
0
 41
0
  0
VERTEX
  8
0
 10
5.33192
 20
5.78543
 30
0.0
 40
0
 41
0
  0
VERTEX
  8
0
 10
5.45167
 20
5.80464
 30
0.0
 40
0
 41
0
  0
VERTEX
  8
0
 10
5.45947
 20
5.79682
 30
0.0
 40
0
 41
0
  0
VERTEX
  8
0
 10
5.4649
 20
5.78174
 30
0.0
 40
0
 41
0
  0
VERTEX
  8
0
 10
5.46724
 20
5.75629
 30
0.0
 40
0
 41
0
  0
VERTEX
  8
0
 10
5.46724
 20
5.72347
 30
0.0
 40
0
 41
0
  0
VERTEX
  8
0
 10
5.35542
 20
5.70682
 30
0.0
 40
0
 41
0
  0
VERTEX
  8
0
 10
5.31099
 20
5.70042
 30
0.0
 40
0
 41
0
  0
VERTEX
  8
0
 10
5.27279
 20
5.6951
 30
0.0
 40
0
 41
0
  0
VERTEX
  8
0
 10
5.24479
 20
5.69157
 30
0.0
 40
0
 41
0
  0
VERTEX
  8
0
 10
5.23118
 20
5.69021
 30
0.0
 40
0
 41
0
  0
VERTEX
  8
0
 10
5.21864
 20
5.69021
 30
0.0
 40
0
 41
0
  0
VERTEX
  8
0
 10
5.21013
 20
5.72293
 30
0.0
 40
0
 41
0
  0
SEQEND
 8
0
  0
POLYLINE
  8
0
 62
     0
 66
     1
 10
0
 20
0
 30
0.0
 70
     1
 40
0
 41
0
  0
VERTEX
  8
0
 10
3.64751
 20
5.82781
 30
0.0
 40
0
 41
0
  0
VERTEX
  8
0
 10
3.55485
 20
5.84261
 30
0.0
 40
0
 41
0
  0
VERTEX
  8
0
 10
3.55485
 20
5.8616
 30
0.0
 40
0
 41
0
  0
VERTEX
  8
0
 10
3.55724
 20
5.88124
 30
0.0
 40
0
 41
0
  0
VERTEX
  8
0
 10
3.56299
 20
5.90186
 30
0.0
 40
0
 41
0
  0
VERTEX
  8
0
 10
3.57118
 20
5.92312
 30
0.0
 40
0
 41
0
  0
VERTEX
  8
0
 10
3.69054
 20
5.90403
 30
0.0
 40
0
 41
0
  0
VERTEX
  8
0
 10
3.73742
 20
5.89606
 30
0.0
 40
0
 41
0
  0
VERTEX
  8
0
 10
3.77696
 20
5.8884
 30
0.0
 40
0
 41
0
  0
VERTEX
  8
0
 10
3.8049
 20
5.882
 30
0.0
 40
0
 41
0
  0
VERTEX
  8
0
 10
3.81717
 20
5.87765
 30
0.0
 40
0
 41
0
  0
VERTEX
  8
0
 10
3.81939
 20
5.8635
 30
0.0
 40
0
 41
0
  0
VERTEX
  8
0
 10
3.81461
 20
5.83963
 30
0.0
 40
0
 41
0
  0
VERTEX
  8
0
 10
3.80485
 20
5.80886
 30
0.0
 40
0
 41
0
  0
VERTEX
  8
0
 10
3.77251
 20
5.81093
 30
0.0
 40
0
 41
0
  0
VERTEX
  8
0
 10
3.75261
 20
5.81293
 30
0.0
 40
0
 41
0
  0
VERTEX
  8
0
 10
3.72244
 20
5.81679
 30
0.0
 40
0
 41
0
  0
VERTEX
  8
0
 10
3.68604
 20
5.82194
 30
0.0
 40
0
 41
0
  0
VERTEX
  8
0
 10
3.64751
 20
5.82781
 30
0.0
 40
0
 41
0
  0
SEQEND
 8
0
  0
POLYLINE
  8
0
 62
     0
 66
     1
 10
0
 20
0
 30
0.0
 70
     1
 40
0
 41
0
  0
VERTEX
  8
0
 10
5.19314
 20
5.83794
 30
0.0
 40
0
 41
0
  0
VERTEX
  8
0
 10
5.18799
 20
5.86301
 30
0.0
 40
0
 41
0
  0
VERTEX
  8
0
 10
5.19011
 20
5.87765
 30
0.0
 40
0
 41
0
  0
VERTEX
  8
0
 10
5.20231
 20
5.882
 30
0.0
 40
0
 41
0
  0
VERTEX
  8
0
 10
5.23025
 20
5.8884
 30
0.0
 40
0
 41
0
  0
VERTEX
  8
0
 10
5.26975
 20
5.89606
 30
0.0
 40
0
 41
0
  0
VERTEX
  8
0
 10
5.31668
 20
5.90403
 30
0.0
 40
0
 41
0
  0
VERTEX
  8
0
 10
5.43608
 20
5.92312
 30
0.0
 40
0
 41
0
  0
VERTEX
  8
0
 10
5.44422
 20
5.90186
 30
0.0
 40
0
 41
0
  0
VERTEX
  8
0
 10
5.44997
 20
5.88124
 30
0.0
 40
0
 41
0
  0
VERTEX
  8
0
 10
5.45242
 20
5.86154
 30
0.0
 40
0
 41
0
  0
VERTEX
  8
0
 10
5.45242
 20
5.84256
 30
0.0
 40
0
 41
0
  0
VERTEX
  8
0
 10
5.38938
 20
5.83388
 30
0.0
 40
0
 41
0
  0
VERTEX
  8
0
 10
5.32682
 20
5.82487
 30
0.0
 40
0
 41
0
  0
VERTEX
  8
0
 10
5.26492
 20
5.81538
 30
0.0
 40
0
 41
0
  0
VERTEX
  8
0
 10
5.2034
 20
5.80556
 30
0.0
 40
0
 41
0
  0
VERTEX
  8
0
 10
5.19314
 20
5.83794
 30
0.0
 40
0
 41
0
  0
SEQEND
 8
0
  0
POLYLINE
  8
0
 62
     0
 66
     1
 10
0
 20
0
 30
0.0
 70
     1
 40
0
 41
0
  0
VERTEX
  8
0
 10
3.98475
 20
6.72086
 30
0.0
 40
0
 41
0
  0
VERTEX
  8
0
 10
3.98475
 20
7.11382
 30
0.0
 40
0
 41
0
  0
VERTEX
  8
0
 10
4.07374
 20
7.11382
 30
0.0
 40
0
 41
0
  0
VERTEX
  8
0
 10
4.07374
 20
7.29178
 30
0.0
 40
0
 41
0
  0
VERTEX
  8
0
 10
3.98475
 20
7.29178
 30
0.0
 40
0
 41
0
  0
VERTEX
  8
0
 10
3.98475
 20
7.4846
 30
0.0
 40
0
 41
0
  0
VERTEX
  8
0
 10
4.17746
 20
7.4846
 30
0.0
 40
0
 41
0
  0
VERTEX
  8
0
 10
4.17746
 20
7.29178
 30
0.0
 40
0
 41
0
  0
VERTEX
  8
0
 10
4.11817
 20
7.29178
 30
0.0
 40
0
 41
0
  0
VERTEX
  8
0
 10
4.11817
 20
7.11382
 30
0.0
 40
0
 41
0
  0
VERTEX
  8
0
 10
4.88906
 20
7.11382
 30
0.0
 40
0
 41
0
  0
VERTEX
  8
0
 10
4.88906
 20
7.29178
 30
0.0
 40
0
 41
0
  0
VERTEX
  8
0
 10
4.82975
 20
7.29178
 30
0.0
 40
0
 41
0
  0
VERTEX
  8
0
 10
4.82975
 20
7.4846
 30
0.0
 40
0
 41
0
  0
VERTEX
  8
0
 10
5.02246
 20
7.4846
 30
0.0
 40
0
 41
0
  0
VERTEX
  8
0
 10
5.02246
 20
7.29178
 30
0.0
 40
0
 41
0
  0
VERTEX
  8
0
 10
4.93354
 20
7.29178
 30
0.0
 40
0
 41
0
  0
VERTEX
  8
0
 10
4.93354
 20
7.11382
 30
0.0
 40
0
 41
0
  0
VERTEX
  8
0
 10
5.02246
 20
7.11382
 30
0.0
 40
0
 41
0
  0
VERTEX
  8
0
 10
5.02246
 20
6.32785
 30
0.0
 40
0
 41
0
  0
VERTEX
  8
0
 10
3.98475
 20
6.32785
 30
0.0
 40
0
 41
0
  0
VERTEX
  8
0
 10
3.98475
 20
6.72086
 30
0.0
 40
0
 41
0
  0
SEQEND
 8
0
  0
POLYLINE
  8
0
 62
     0
 66
     1
 10
0
 20
0
 30
0.0
 70
     1
 40
0
 41
0
  0
VERTEX
  8
0
 10
4.81494
 20
6.49843
 30
0.0
 40
0
 41
0
  0
VERTEX
  8
0
 10
4.81494
 20
6.53549
 30
0.0
 40
0
 41
0
  0
VERTEX
  8
0
 10
4.19228
 20
6.53549
 30
0.0
 40
0
 41
0
  0
VERTEX
  8
0
 10
4.19228
 20
6.46132
 30
0.0
 40
0
 41
0
  0
VERTEX
  8
0
 10
4.81494
 20
6.46132
 30
0.0
 40
0
 41
0
  0
VERTEX
  8
0
 10
4.81494
 20
6.49843
 30
0.0
 40
0
 41
0
  0
SEQEND
 8
0
  0
POLYLINE
  8
0
 62
     0
 66
     1
 10
0
 20
0
 30
0.0
 70
     1
 40
0
 41
0
  0
VERTEX
  8
0
 10
4.35232
 20
6.83578
 30
0.0
 40
0
 41
0
  0
VERTEX
  8
0
 10
4.34799
 20
6.94331
 30
0.0
 40
0
 41
0
  0
VERTEX
  8
0
 10
4.11817
 20
6.95199
 30
0.0
 40
0
 41
0
  0
VERTEX
  8
0
 10
4.11817
 20
6.72831
 30
0.0
 40
0
 41
0
  0
VERTEX
  8
0
 10
4.35667
 20
6.72831
 30
0.0
 40
0
 41
0
  0
VERTEX
  8
0
 10
4.35232
 20
6.83578
 30
0.0
 40
0
 41
0
  0
SEQEND
 8
0
  0
POLYLINE
  8
0
 62
     0
 66
     1
 10
0
 20
0
 30
0.0
 70
     1
 40
0
 41
0
  0
VERTEX
  8
0
 10
4.22194
 20
6.83208
 30
0.0
 40
0
 41
0
  0
VERTEX
  8
0
 10
4.22194
 20
6.87657
 30
0.0
 40
0
 41
0
  0
VERTEX
  8
0
 10
4.31087
 20
6.87657
 30
0.0
 40
0
 41
0
  0
VERTEX
  8
0
 10
4.31087
 20
6.7876
 30
0.0
 40
0
 41
0
  0
VERTEX
  8
0
 10
4.22194
 20
6.7876
 30
0.0
 40
0
 41
0
  0
VERTEX
  8
0
 10
4.22194
 20
6.83208
 30
0.0
 40
0
 41
0
  0
SEQEND
 8
0
  0
POLYLINE
  8
0
 62
     0
 66
     1
 10
0
 20
0
 30
0.0
 70
     1
 40
0
 41
0
  0
VERTEX
  8
0
 10
4.90386
 20
6.83951
 30
0.0
 40
0
 41
0
  0
VERTEX
  8
0
 10
4.90386
 20
6.95074
 30
0.0
 40
0
 41
0
  0
VERTEX
  8
0
 10
4.66667
 20
6.95074
 30
0.0
 40
0
 41
0
  0
VERTEX
  8
0
 10
4.66667
 20
6.72831
 30
0.0
 40
0
 41
0
  0
VERTEX
  8
0
 10
4.90386
 20
6.72831
 30
0.0
 40
0
 41
0
  0
VERTEX
  8
0
 10
4.90386
 20
6.83951
 30
0.0
 40
0
 41
0
  0
SEQEND
 8
0
  0
POLYLINE
  8
0
 62
     0
 66
     1
 10
0
 20
0
 30
0.0
 70
     1
 40
0
 41
0
  0
VERTEX
  8
0
 10
4.69635
 20
6.83208
 30
0.0
 40
0
 41
0
  0
VERTEX
  8
0
 10
4.69635
 20
6.87657
 30
0.0
 40
0
 41
0
  0
VERTEX
  8
0
 10
4.78526
 20
6.87657
 30
0.0
 40
0
 41
0
  0
VERTEX
  8
0
 10
4.78526
 20
6.7876
 30
0.0
 40
0
 41
0
  0
VERTEX
  8
0
 10
4.69635
 20
6.7876
 30
0.0
 40
0
 41
0
  0
VERTEX
  8
0
 10
4.69635
 20
6.83208
 30
0.0
 40
0
 41
0
  0
SEQEND
 8
0
  0
POLYLINE
  8
0
 62
     0
 66
     1
 10
0
 20
0
 30
0.0
 70
     1
 40
0
 41
0
  0
VERTEX
  8
0
 10
4.63004
 20
10.3451
 30
0.0
 40
0
 41
0
  0
VERTEX
  8
0
 10
4.60525
 20
10.3409
 30
0.0
 40
0
 41
0
  0
VERTEX
  8
0
 10
4.53153
 20
10.3339
 30
0.0
 40
0
 41
0
  0
VERTEX
  8
0
 10
4.41004
 20
10.3231
 30
0.0
 40
0
 41
0
  0
VERTEX
  8
0
 10
4.24246
 20
10.3065
 30
0.0
 40
0
 41
0
  0
VERTEX
  8
0
 10
4.03028
 20
10.2818
 30
0.0
 40
0
 41
0
  0
VERTEX
  8
0
 10
3.77544
 20
10.2451
 30
0.0
 40
0
 41
0
  0
VERTEX
  8
0
 10
3.48019
 20
10.192
 30
0.0
 40
0
 41
0
  0
VERTEX
  8
0
 10
3.14751
 20
10.1164
 30
0.0
 40
0
 41
0
  0
VERTEX
  8
0
 10
2.88954
 20
10.0449
 30
0.0
 40
0
 41
0
  0
VERTEX
  8
0
 10
2.61664
 20
9.95503
 30
0.0
 40
0
 41
0
  0
VERTEX
  8
0
 10
2.33137
 20
9.84299
 30
0.0
 40
0
 41
0
  0
VERTEX
  8
0
 10
2.03733
 20
9.70443
 30
0.0
 40
0
 41
0
  0
VERTEX
  8
0
 10
1.63747
 20
9.46924
 30
0.0
 40
0
 41
0
  0
VERTEX
  8
0
 10
1.24501
 20
9.16753
 30
0.0
 40
0
 41
0
  0
VERTEX
  8
0
 10
0.968045
 20
8.89285
 30
0.0
 40
0
 41
0
  0
VERTEX
  8
0
 10
0.715821
 20
8.57417
 30
0.0
 40
0
 41
0
  0
VERTEX
  8
0
 10
0.562771
 20
8.33132
 30
0.0
 40
0
 41
0
  0
VERTEX
  8
0
 10
0.42909
 20
8.06896
 30
0.0
 40
0
 41
0
  0
VERTEX
  8
0
 10
0.317708
 20
7.78863
 30
0.0
 40
0
 41
0
  0
VERTEX
  8
0
 10
0.232096
 20
7.49208
 30
0.0
 40
0
 41
0
  0
VERTEX
  8
0
 10
0.172364
 20
7.14171
 30
0.0
 40
0
 41
0
  0
VERTEX
  8
0
 10
0.165093
 20
7.04514
 30
0.0
 40
0
 41
0
  0
VERTEX
  8
0
 10
0.164117
 20
7.01085
 30
0.0
 40
0
 41
0
  0
VERTEX
  8
0
 10
0.153157
 20
6.25185
 30
0.0
 40
0
 41
0
  0
VERTEX
  8
0
 10
0.141385
 20
5.45899
 30
0.0
 40
0
 41
0
  0
VERTEX
  8
0
 10
0.128689
 20
4.634
 30
0.0
 40
0
 41
0
  0
VERTEX
  8
0
 10
0.11518
 20
3.7786
 30
0.0
 40
0
 41
0
  0
VERTEX
  8
0
 10
0.100911
 20
2.89438
 30
0.0
 40
0
 41
0
  0
VERTEX
  8
0
 10
0.0858832
 20
1.98307
 30
0.0
 40
0
 41
0
  0
VERTEX
  8
0
 10
0.0701497
 20
1.04633
 30
0.0
 40
0
 41
0
  0
VERTEX
  8
0
 10
0.0537651
 20
0.085829
 30
0.0
 40
0
 41
0
  0
VERTEX
  8
0
 10
1.19482
 20
0.082411
 30
0.0
 40
0
 41
0
  0
VERTEX
  8
0
 10
2.36274
 20
0.0788303
 30
0.0
 40
0
 41
0
  0
VERTEX
  8
0
 10
3.55496
 20
0.0749783
 30
0.0
 40
0
 41
0
  0
VERTEX
  8
0
 10
4.76899
 20
0.0709636
 30
0.0
 40
0
 41
0
  0
VERTEX
  8
0
 10
7.01335
 20
0.0632053
 30
0.0
 40
0
 41
0
  0
VERTEX
  8
0
 10
9.17464
 20
0.0552843
 30
0.0
 40
0
 41
0
  0
VERTEX
  8
0
 10
9.19764
 20
1.00157
 30
0.0
 40
0
 41
0
  0
VERTEX
  8
0
 10
9.22038
 20
1.92572
 30
0.0
 40
0
 41
0
  0
VERTEX
  8
0
 10
9.24278
 20
2.82607
 30
0.0
 40
0
 41
0
  0
VERTEX
  8
0
 10
9.26481
 20
3.70117
 30
0.0
 40
0
 41
0
  0
VERTEX
  8
0
 10
9.28651
 20
4.54937
 30
0.0
 40
0
 41
0
  0
VERTEX
  8
0
 10
9.30778
 20
5.36914
 30
0.0
 40
0
 41
0
  0
VERTEX
  8
0
 10
9.32861
 20
6.15896
 30
0.0
 40
0
 41
0
  0
VERTEX
  8
0
 10
9.34901
 20
6.91715
 30
0.0
 40
0
 41
0
  0
VERTEX
  8
0
 10
9.34939
 20
6.97706
 30
0.0
 40
0
 41
0
  0
VERTEX
  8
0
 10
9.27692
 20
7.49832
 30
0.0
 40
0
 41
0
  0
VERTEX
  8
0
 10
9.18718
 20
7.8119
 30
0.0
 40
0
 41
0
  0
VERTEX
  8
0
 10
9.07004
 20
8.10829
 30
0.0
 40
0
 41
0
  0
VERTEX
  8
0
 10
8.9286
 20
8.38525
 30
0.0
 40
0
 41
0
  0
VERTEX
  8
0
 10
8.76606
 20
8.64106
 30
0.0
 40
0
 41
0
  0
VERTEX
  8
0
 10
8.50006
 20
8.97151
 30
0.0
 40
0
 41
0
  0
VERTEX
  8
0
 10
8.20703
 20
9.25424
 30
0.0
 40
0
 41
0
  0
VERTEX
  8
0
 10
8.00217
 20
9.4165
 30
0.0
 40
0
 41
0
  0
VERTEX
  8
0
 10
7.79275
 20
9.55925
 30
0.0
 40
0
 41
0
  0
VERTEX
  8
0
 10
7.37011
 20
9.79226
 30
0.0
 40
0
 41
0
  0
VERTEX
  8
0
 10
7.05914
 20
9.92643
 30
0.0
 40
0
 41
0
  0
VERTEX
  8
0
 10
6.75765
 20
10.0322
 30
0.0
 40
0
 41
0
  0
VERTEX
  8
0
 10
6.4694
 20
10.1148
 30
0.0
 40
0
 41
0
  0
VERTEX
  8
0
 10
6.19726
 20
10.1781
 30
0.0
 40
0
 41
0
  0
VERTEX
  8
0
 10
5.85308
 20
10.2431
 30
0.0
 40
0
 41
0
  0
VERTEX
  8
0
 10
5.54704
 20
10.2856
 30
0.0
 40
0
 41
0
  0
VERTEX
  8
0
 10
5.28174
 20
10.3123
 30
0.0
 40
0
 41
0
  0
VERTEX
  8
0
 10
5.05925
 20
10.328
 30
0.0
 40
0
 41
0
  0
VERTEX
  8
0
 10
4.88135
 20
10.3366
 30
0.0
 40
0
 41
0
  0
VERTEX
  8
0
 10
4.74968
 20
10.3409
 30
0.0
 40
0
 41
0
  0
VERTEX
  8
0
 10
4.66542
 20
10.3433
 30
0.0
 40
0
 41
0
  0
VERTEX
  8
0
 10
4.63004
 20
10.3448
 30
0.0
 40
0
 41
0
  0
VERTEX
  8
0
 10
4.63004
 20
10.3454
 30
0.0
 40
0
 41
0
  0
VERTEX
  8
0
 10
4.66542
 20
10.3469
 30
0.0
 40
0
 41
0
  0
VERTEX
  8
0
 10
4.74978
 20
10.3479
 30
0.0
 40
0
 41
0
  0
VERTEX
  8
0
 10
4.88183
 20
10.3474
 30
0.0
 40
0
 41
0
  0
VERTEX
  8
0
 10
5.06033
 20
10.3434
 30
0.0
 40
0
 41
0
  0
VERTEX
  8
0
 10
5.28386
 20
10.3334
 30
0.0
 40
0
 41
0
  0
VERTEX
  8
0
 10
5.55072
 20
10.3134
 30
0.0
 40
0
 41
0
  0
VERTEX
  8
0
 10
5.85906
 20
10.2787
 30
0.0
 40
0
 41
0
  0
VERTEX
  8
0
 10
6.20632
 20
10.2229
 30
0.0
 40
0
 41
0
  0
VERTEX
  8
0
 10
6.48144
 20
10.1628
 30
0.0
 40
0
 41
0
  0
VERTEX
  8
0
 10
6.77339
 20
10.0829
 30
0.0
 40
0
 41
0
  0
VERTEX
  8
0
 10
7.07926
 20
9.97922
 30
0.0
 40
0
 41
0
  0
VERTEX
  8
0
 10
7.39567
 20
9.84651
 30
0.0
 40
0
 41
0
  0
VERTEX
  8
0
 10
7.82699
 20
9.61382
 30
0.0
 40
0
 41
0
  0
VERTEX
  8
0
 10
8.04129
 20
9.47038
 30
0.0
 40
0
 41
0
  0
VERTEX
  8
0
 10
8.25151
 20
9.30669
 30
0.0
 40
0
 41
0
  0
VERTEX
  8
0
 10
8.55285
 20
9.02029
 30
0.0
 40
0
 41
0
  0
VERTEX
  8
0
 10
8.82721
 20
8.68435
 30
0.0
 40
0
 41
0
  0
VERTEX
  8
0
 10
8.99539
 20
8.42279
 30
0.0
 40
0
 41
0
  0
VERTEX
  8
0
 10
9.14214
 20
8.13926
 30
0.0
 40
0
 41
0
  0
VERTEX
  8
0
 10
9.26411
 20
7.8355
 30
0.0
 40
0
 41
0
  0
VERTEX
  8
0
 10
9.35812
 20
7.51361
 30
0.0
 40
0
 41
0
  0
VERTEX
  8
0
 10
9.43451
 20
6.98301
 30
0.0
 40
0
 41
0
  0
VERTEX
  8
0
 10
9.43489
 20
6.91596
 30
0.0
 40
0
 41
0
  0
VERTEX
  8
0
 10
9.41319
 20
6.15272
 30
0.0
 40
0
 41
0
  0
VERTEX
  8
0
 10
9.39019
 20
5.35732
 30
0.0
 40
0
 41
0
  0
VERTEX
  8
0
 10
9.36594
 20
4.53136
 30
0.0
 40
0
 41
0
  0
VERTEX
  8
0
 10
9.34056
 20
3.67649
 30
0.0
 40
0
 41
0
  0
VERTEX
  8
0
 10
9.31396
 20
2.79432
 30
0.0
 40
0
 41
0
  0
VERTEX
  8
0
 10
9.28635
 20
1.88644
 30
0.0
 40
0
 41
0
  0
VERTEX
  8
0
 10
9.25776
 20
0.954482
 30
0.0
 40
0
 41
0
  0
VERTEX
  8
0
 10
9.22831
 20
-0
 30
0.0
 40
0
 41
0
  0
VERTEX
  8
0
 10
7.04215
 20
0.00716146
 30
0.0
 40
0
 41
0
  0
VERTEX
  8
0
 10
4.77067
 20
0.0149739
 30
0.0
 40
0
 41
0
  0
VERTEX
  8
0
 10
3.54194
 20
0.0194769
 30
0.0
 40
0
 41
0
  0
VERTEX
  8
0
 10
2.33539
 20
0.0239258
 30
0.0
 40
0
 41
0
  0
VERTEX
  8
0
 10
1.15381
 20
0.0284831
 30
0.0
 40
0
 41
0
  0
VERTEX
  8
0
 10
0
 20
0.0329861
 30
0.0
 40
0
 41
0
  0
VERTEX
  8
0
 10
0.0100369
 20
1.0019
 30
0.0
 40
0
 41
0
  0
VERTEX
  8
0
 10
0.0200738
 20
1.94672
 30
0.0
 40
0
 41
0
  0
VERTEX
  8
0
 10
0.0301107
 20
2.86572
 30
0.0
 40
0
 41
0
  0
VERTEX
  8
0
 10
0.0401475
 20
3.75717
 30
0.0
 40
0
 41
0
  0
VERTEX
  8
0
 10
0.0501844
 20
4.61931
 30
0.0
 40
0
 41
0
  0
VERTEX
  8
0
 10
0.0601671
 20
5.45042
 30
0.0
 40
0
 41
0
  0
VERTEX
  8
0
 10
0.0701497
 20
6.24886
 30
0.0
 40
0
 41
0
  0
VERTEX
  8
0
 10
0.0801324
 20
7.01275
 30
0.0
 40
0
 41
0
  0
VERTEX
  8
0
 10
0.0813803
 20
7.0485
 30
0.0
 40
0
 41
0
  0
VERTEX
  8
0
 10
0.0895182
 20
7.15028
 30
0.0
 40
0
 41
0
  0
VERTEX
  8
0
 10
0.153103
 20
7.51096
 30
0.0
 40
0
 41
0
  0
VERTEX
  8
0
 10
0.242731
 20
7.81461
 30
0.0
 40
0
 41
0
  0
VERTEX
  8
0
 10
0.358669
 20
8.10118
 30
0.0
 40
0
 41
0
  0
VERTEX
  8
0
 10
0.497342
 20
8.36888
 30
0.0
 40
0
 41
0
  0
VERTEX
  8
0
 10
0.655599
 20
8.61632
 30
0.0
 40
0
 41
0
  0
VERTEX
  8
0
 10
0.915799
 20
8.94015
 30
0.0
 40
0
 41
0
  0
VERTEX
  8
0
 10
1.20057
 20
9.21821
 30
0.0
 40
0
 41
0
  0
VERTEX
  8
0
 10
1.6026
 20
9.52186
 30
0.0
 40
0
 41
0
  0
VERTEX
  8
0
 10
2.01069
 20
9.75672
 30
0.0
 40
0
 41
0
  0
VERTEX
  8
0
 10
2.30985
 20
9.89393
 30
0.0
 40
0
 41
0
  0
VERTEX
  8
0
 10
2.59944
 20
10.0039
 30
0.0
 40
0
 41
0
  0
VERTEX
  8
0
 10
2.87592
 20
10.0913
 30
0.0
 40
0
 41
0
  0
VERTEX
  8
0
 10
3.13683
 20
10.1598
 30
0.0
 40
0
 41
0
  0
VERTEX
  8
0
 10
3.47271
 20
10.2308
 30
0.0
 40
0
 41
0
  0
VERTEX
  8
0
 10
3.7704
 20
10.2788
 30
0.0
 40
0
 41
0
  0
VERTEX
  8
0
 10
4.02692
 20
10.3103
 30
0.0
 40
0
 41
0
  0
VERTEX
  8
0
 10
4.24035
 20
10.3295
 30
0.0
 40
0
 41
0
  0
VERTEX
  8
0
 10
4.40881
 20
10.3405
 30
0.0
 40
0
 41
0
  0
VERTEX
  8
0
 10
4.53082
 20
10.3456
 30
0.0
 40
0
 41
0
  0
VERTEX
  8
0
 10
4.60493
 20
10.3468
 30
0.0
 40
0
 41
0
  0
VERTEX
  8
0
 10
4.63004
 20
10.3451
 30
0.0
 40
0
 41
0
  0
SEQEND
 8
0
  0
ENDSEC
  0
EOF
