<?xml version="1.0" encoding="UTF-8" standalone="no"?>
<!-- Created with Inkscape (http://www.inkscape.org/) -->

<svg
   xmlns:dc="http://purl.org/dc/elements/1.1/"
   xmlns:cc="http://creativecommons.org/ns#"
   xmlns:rdf="http://www.w3.org/1999/02/22-rdf-syntax-ns#"
   xmlns:svg="http://www.w3.org/2000/svg"
   xmlns="http://www.w3.org/2000/svg"
   xmlns:sodipodi="http://sodipodi.sourceforge.net/DTD/sodipodi-0.dtd"
   xmlns:inkscape="http://www.inkscape.org/namespaces/inkscape"
   width="956.69287"
   height="1052.3622"
   id="svg2"
   version="1.1"
   inkscape:version="0.48.5 r10040"
   sodipodi:docname="logo.svg">
  <defs
     id="defs4">
    <inkscape:path-effect
       effect="spiro"
       id="path-effect3145"
       is_visible="true" />
  </defs>
  <sodipodi:namedview
     id="base"
     pagecolor="#ffffff"
     bordercolor="#666666"
     borderopacity="1.0"
     inkscape:pageopacity="0.0"
     inkscape:pageshadow="2"
     inkscape:zoom="0.35"
     inkscape:cx="552.58507"
     inkscape:cy="672.76804"
     inkscape:document-units="px"
     inkscape:current-layer="layer1"
     showgrid="false"
     units="cm"
     showguides="false"
     inkscape:guide-bbox="true"
     inkscape:window-width="1237"
     inkscape:window-height="746"
     inkscape:window-x="101"
     inkscape:window-y="0"
     inkscape:window-maximized="1">
    <sodipodi:guide
       orientation="0,1"
       position="288.57143,465.71429"
       id="guide3167" />
    <sodipodi:guide
       orientation="1,0"
       position="0,900"
       id="guide3171" />
    <sodipodi:guide
       orientation="1,0"
       position="-165.71429,762.85714"
       id="guide3173" />
    <sodipodi:guide
       orientation="0,1"
       position="-134.28571,842.85714"
       id="guide3194" />
    <sodipodi:guide
       orientation="1,0"
       position="145.71429,842.85714"
       id="guide3196" />
    <sodipodi:guide
       orientation="1,0"
       position="-165.71429,842.85714"
       id="guide3198" />
  </sodipodi:namedview>
  <metadata
     id="metadata7">
    <rdf:RDF>
      <cc:Work
         rdf:about="">
        <dc:format>image/svg+xml</dc:format>
        <dc:type
           rdf:resource="http://purl.org/dc/dcmitype/StillImage" />
        <dc:title />
      </cc:Work>
    </rdf:RDF>
  </metadata>
  <g
     inkscape:label="Layer 1"
     inkscape:groupmode="layer"
     id="layer1"
     transform="translate(0,0.00130762)">
    <text
       xml:space="preserve"
       style="font-size:47.3391571px;font-style:normal;font-variant:normal;font-weight:normal;font-stretch:normal;line-height:125%;letter-spacing:0px;word-spacing:0px;fill:#000000;fill-opacity:1;stroke:none;font-family:Hotrod;-inkscape-font-specification:Hotrod"
       x="177.071"
       y="631.96954"
       id="text2985"
       sodipodi:linespacing="125%"
       transform="scale(0.94305214,1.0603868)"><tspan
         sodipodi:role="line"
         id="tspan2987"
         x="177.071"
         y="631.96954"
         style="font-size:85.21047974px;font-weight:normal;-inkscape-font-specification:Hotrod">__underscore__</tspan></text>
    <path
       style="fill:#000000"
       d="m 384.95605,574.84237 0,-25.35855 27.3514,0 27.3514,0 0,-11.34462 0,-11.34461 -20.44448,0 -20.44447,0 -1.58813,-37.70417 c -0.87347,-20.73729 -1.57999,-40.8573 -1.57007,-44.71113 l 0.018,-7.00697 -1.42192,0 c -0.78206,0 -2.64647,0.65557 -4.14314,1.45683 l -2.72119,1.45683 -4.67421,-0.87718 -4.6742,-0.87717 -3.1906,-3.44386 -3.1906,-3.44388 0,-6.2287 0,-6.22872 3.66909,-3.49116 3.66909,-3.49115 3.47959,-0.85965 3.47961,-0.85962 4.77063,1.99395 4.77063,1.99396 2.12419,4.10912 2.1242,4.10913 54.63428,0 54.63427,0 2.1242,-4.10913 2.1242,-4.10912 4.71935,-1.97252 4.71934,-1.97254 3.82837,0.84114 3.82837,0.84113 3.3716,4.00826 3.3716,4.00826 0,5.70868 0,5.70868 -3.1906,3.44388 -3.1906,3.44386 -4.6742,0.87717 -4.6742,0.87718 -2.7212,-1.45683 c -1.49667,-0.80126 -3.36107,-1.45683 -4.14314,-1.45683 l -1.42192,0 0.018,7.00697 c 0.009,3.85383 -0.6966,23.97384 -1.57007,44.71113 l -1.58807,37.70417 -20.44448,0 -20.44447,0 0,11.34461 0,11.34462 27.35139,0 27.3514,0 0,25.35855 0,25.35856 -69.37915,0 -69.37916,0 0,-25.35856 z m 132.08724,-0.66733 0,-19.35258 -62.70808,0 -62.70809,0 0,19.35258 0,19.35258 62.70809,0 62.70808,0 z m -105.40295,6.00597 -2.66843,-2.66932 0,-2.66932 0,-2.66932 2.66843,-2.66932 2.66843,-2.66932 2.66843,0 2.66843,0 2.66843,2.66932 2.66843,2.66932 0,2.66932 0,2.66932 -2.66843,2.66932 -2.66843,2.66933 -2.66843,0 -2.66843,0 z m 24.08933,-0.87704 -2.78863,-3.54637 0.8252,-2.79327 c 1.02071,-3.45509 4.28547,-6.12992 7.48183,-6.12992 l 2.41342,0 2.66843,2.66932 2.66843,2.66932 0,2.66932 0,2.66932 -2.66843,2.66932 -2.66843,2.66933 -2.57159,0 -2.57159,0 z m 26.61083,0.87704 -2.66843,-2.66932 0,-2.66932 0,-2.66932 2.66843,-2.66932 2.66843,-2.66932 2.41342,0 c 3.19636,0 6.46112,2.67483 7.48183,6.12992 l 0.8252,2.79327 -2.78863,3.54637 -2.78864,3.54637 -2.57159,0 -2.57159,0 z m 24.01586,0 -2.66843,-2.66932 0,-2.66932 0,-2.66932 2.66843,-2.66932 2.66843,-2.66932 2.66843,0 2.66843,0 2.66842,2.66932 2.66843,2.66932 0,2.66932 0,2.66932 -2.66843,2.66932 -2.66842,2.66933 -2.66843,0 -2.66843,0 z m -20.01322,-63.18214 0,-1.78776 3.31973,-1.51308 3.31972,-1.51307 2.03413,0.78082 2.03412,0.78083 2.0336,-1.68829 2.03359,-1.68831 -0.26134,-2.13133 c -0.14374,-1.17223 0.19938,-3.78298 0.76249,-5.80165 l 1.02382,-3.67032 2.52379,0 2.52378,0 0,-3.17386 0,-3.17386 -2.87434,-1.90912 -2.87432,-1.90912 -0.16654,-4.59332 c -0.0915,-2.52631 -0.65252,-5.37278 -1.24651,-6.32549 l -1.07997,-1.73219 -2.21668,0.27601 c -1.21918,0.1518 -3.81104,-0.17062 -5.75971,-0.7165 l -3.54302,-0.99252 -0.66827,-2.55627 -0.66825,-2.55629 -3.46045,0 -3.46044,0 0,1.87142 0,1.87143 -4.15591,1.44924 -4.1559,1.44924 -1.15338,-0.71306 -1.15339,-0.71307 -2.76011,1.47767 -2.76013,1.47767 0.77248,2.43466 0.77247,2.43467 -1.58962,3.49002 -1.58963,3.49002 -1.78716,0 -1.78716,0 0,4.00398 0,4.00398 1.70881,0 1.70881,0 1.61075,4.26877 1.61074,4.26876 -1.59874,0.9884 -1.59872,0.98839 2.50567,2.76968 2.50568,2.76966 2.29126,-0.72746 2.29126,-0.72745 3.48885,1.59015 3.48885,1.59016 0,1.78776 0,1.78775 4.00265,0 4.00264,0 z m -8.85374,-13.11986 -2.84978,-1.38035 -1.48642,-3.26343 c -0.81753,-1.79489 -1.48642,-4.35538 -1.48642,-5.68996 l 0,-2.42654 2.76527,-3.51664 2.76526,-3.51665 5.24002,0 5.24002,0 2.66843,2.66933 2.66843,2.66932 0.15364,2.33565 c 0.0845,1.28461 0.0515,3.53685 -0.0733,5.00498 l -0.22694,2.66932 -3.33664,3.00299 -3.33666,3.00299 -2.92757,-0.0904 c -1.61017,-0.0496 -4.20998,-0.71148 -5.77736,-1.47068 z m 9.38458,-8.19346 1.47048,-2.41382 -2.61447,-1.94181 -2.61449,-1.94182 -1.29284,0.4311 c -0.71107,0.2371 -1.88159,1.36476 -2.60116,2.50591 l -1.30831,2.07479 0.87347,2.27701 0.87348,2.27701 2.87168,-0.42726 2.87169,-0.42728 z m -24.52638,-27.63636 2.68875,-2.68965 3.08066,0.77346 3.08067,0.77345 1.63355,-1.96897 1.63356,-1.96896 -1.34869,-0.83381 -1.34869,-0.83382 1.49805,-3.28899 1.49807,-3.28899 1.78717,0 1.78715,0 0,-2.85586 0,-2.85584 -2.14505,-1.56904 -2.14506,-1.56902 -0.2144,-3.91675 c -0.11794,-2.15421 -0.6989,-4.68342 -1.29109,-5.62047 l -1.07668,-1.70372 -1.56717,0.29705 c -0.86193,0.16338 -2.86259,-0.14385 -4.44588,-0.68274 l -2.87873,-0.97979 -0.74848,-1.95119 -0.0338,-2.07036 -2.94441,0.11919 -2.22966,0 -3.35542,0.23912 0.2184,4.05243 -3.91544,0.21446 c -2.15349,0.11799 -4.68185,0.69914 -5.61859,1.29153 l -1.70315,1.07704 0.25273,1.56769 c 0.13899,0.86222 -0.21037,3.21933 -0.77637,5.238 l -1.02909,3.67032 -1.85668,0 -1.85668,0 0,2.603 0,2.603 2.1405,1.19829 2.14051,1.1983 0.32728,4.16173 0.32727,4.16174 1.58393,1.90914 1.58391,1.90914 2.49601,-0.65294 2.49602,-0.65294 2.45824,2.68149 2.45822,2.68149 2.33488,0.11118 2.33488,0.11118 2.68874,-2.68965 z m -6.69139,-8.9345 c -1.10073,-0.40486 -3.05202,-1.65172 -4.3362,-2.77081 l -2.33488,-2.03469 0,-3.79712 0,-3.79713 2.66843,-2.66932 2.66843,-2.66932 3.79585,0 3.79586,0 2.0877,2.33566 c 2.62684,2.93884 3.12611,5.41765 1.97006,9.78114 l -0.91178,3.4415 -3.4303,1.56348 c -1.88666,0.8599 -3.55215,1.51605 -3.70107,1.4581 -0.14893,-0.0579 -1.17138,-0.43662 -2.2721,-0.84149 z m 5.19681,-6.79935 1.28807,-2.40757 -1.06744,-1.72774 -1.06744,-1.72773 -2.49323,0.48031 -2.49324,0.48032 -0.48015,2.49407 -0.48016,2.49407 1.79906,1.14048 c 2.64436,1.67636 3.5622,1.45103 4.99453,-1.22621 z m -65.90358,82.48721 0.90166,-5.33864 -2.59949,0 c -1.42971,0 -5.34139,-0.37595 -8.6926,-0.83543 l -6.09312,-0.83543 -0.43062,4.50574 -0.43062,4.50575 -2.66843,0.34131 -2.66843,0.34132 -1.64189,-1.07141 -1.6419,-1.07142 1.26802,-7.79364 c 0.69742,-4.2865 1.57335,-8.09907 1.94653,-8.47236 l 0.67849,-0.67872 12.37041,1.59463 c 6.80373,0.87705 14.02099,1.91262 16.03836,2.30129 l 3.66795,0.70665 -0.74998,5.56652 c -0.4125,3.06158 -1.02381,6.91785 -1.3585,8.5695 l -0.60849,3.00298 -4.09451,0 -4.0945,0 z m 150.87569,2.33566 c -0.33468,-1.65165 -0.94599,-5.50792 -1.35849,-8.5695 l -0.74998,-5.56652 3.66794,-0.70665 c 2.01738,-0.38867 9.23464,-1.42424 16.03837,-2.30129 l 12.37041,-1.59463 0.67849,0.67872 c 0.37318,0.37329 1.2491,4.18586 1.94652,8.47236 l 1.26803,7.79364 -1.6419,1.07142 -1.6419,1.07141 -2.66843,-0.34132 -2.66843,-0.34131 -0.43061,-4.50575 -0.43062,-4.50574 -6.09312,0.83543 c -3.35121,0.45948 -7.21721,0.83543 -8.5911,0.83543 l -2.49798,0 0.8534,5.33864 0.8534,5.33864 -4.14775,0 -4.14775,0 z m -152.2099,-21.68863 c -0.73382,-0.25134 -4.1861,-0.84133 -7.67174,-1.31107 l -6.33752,-0.85409 0,-3.25487 0,-3.25487 3.00199,0.0107 c 3.13077,0.0107 20.04541,2.58024 20.59364,3.12863 0.17291,0.17299 -0.032,1.63964 -0.45539,3.25922 l -0.76981,2.9441 -3.51348,-0.1053 c -1.93241,-0.0579 -4.11387,-0.31101 -4.84769,-0.56235 z m 152.76757,-0.38583 c 0,-0.76861 -0.33824,-2.27919 -0.75165,-3.35686 l -0.75164,-1.95942 8.53266,-1.4864 c 4.69297,-0.81752 10.13459,-1.48639 12.09247,-1.48639 l 3.5598,0 0,3.18811 0,3.18812 -4.33619,0.76931 c -2.38491,0.42313 -7.48828,1.16794 -11.34083,1.65514 l -7.00462,0.88583 z m -157.10377,-11.24499 -8.33884,-1.28112 0,-1.7763 c 0,-0.97698 0.32351,-2.61964 0.7189,-3.65037 l 0.7189,-1.87406 10.79823,1.71883 c 5.93903,0.94535 11.07391,1.99458 11.41085,2.33164 0.33695,0.33706 0.21715,1.85929 -0.26621,3.38273 l -0.87885,2.76991 -2.91207,-0.17007 c -1.60163,-0.0936 -6.66455,-0.74657 -11.25091,-1.45119 z m 155.07053,-1.14865 c -0.48336,-1.52344 -0.60316,-3.04567 -0.26622,-3.38273 0.33695,-0.33706 5.47183,-1.38629 11.41086,-2.33164 l 10.79823,-1.71883 0.7189,1.87406 c 0.39539,1.03073 0.7189,2.65283 0.7189,3.60465 l 0,1.73059 -10.06111,1.4969 c -5.53361,0.8233 -10.59652,1.49691 -11.25091,1.49691 l -1.1898,0 z M 370.9492,493.18572 c -4.40157,-0.72046 -8.18327,-1.4904 -8.40376,-1.71097 -0.2205,-0.22056 -0.029,-1.88338 0.4256,-3.69514 l 0.82649,-3.29411 10.91281,1.77528 c 6.00206,0.9764 11.10468,1.78728 11.33917,1.80197 0.23449,0.0147 0.23449,1.37802 0,3.02966 l -0.42635,3.00299 -3.33554,0.20013 c -1.83454,0.11011 -6.93683,-0.38935 -11.33842,-1.10981 z m 152.43161,0.80243 c -0.90704,-0.91094 -1.4644,-5.86162 -0.6671,-5.9254 0.18345,-0.0147 5.28682,-0.83238 11.34082,-1.8171 l 11.00727,-1.79041 0,1.70794 c 0,0.93936 0.33147,2.57202 0.73661,3.62814 l 0.7366,1.9202 -5.73991,0.78808 c -3.15695,0.43343 -8.1415,1.17179 -11.07677,1.64079 l -5.33686,0.85272 z m -151.18992,-11.49162 -8.09542,-1.24877 0.54515,-3.71551 0.54513,-3.71553 6.88316,1.14807 c 3.78576,0.63144 8.83446,1.46762 11.21937,1.85819 l 4.3362,0.71012 0,3.27617 0,3.27617 -3.66909,-0.17006 c -2.018,-0.0936 -7.31203,-0.73202 -11.7645,-1.41885 z m 148.85505,-1.68726 0,-3.27617 4.33619,-0.71012 c 2.38491,-0.39057 7.43362,-1.22675 11.21937,-1.85819 l 6.88316,-1.14807 0.53913,3.67458 0.53913,3.67456 -9.81166,1.45979 c -5.39642,0.80289 -10.68774,1.45979 -11.7585,1.45979 l -1.94682,0 z M 380.2863,472.74044 c -0.73382,-0.25134 -4.1861,-0.84133 -7.67173,-1.31108 l -6.33752,-0.85409 0,-3.7373 0,-3.7373 11.00727,1.7904 c 6.054,0.98473 11.37431,1.80242 11.82291,1.8171 l 0.81565,0.0267 -0.63764,3.33665 -0.63762,3.33665 -3.51356,-0.1053 c -1.93245,-0.0581 -4.11394,-0.31109 -4.84776,-0.56243 z m 139.12707,-2.52137 -0.66583,-3.48422 0.81564,-0.0267 c 0.44861,-0.0147 5.76892,-0.83237 11.82292,-1.8171 l 11.00727,-1.79041 0,3.67055 0,3.67055 -4.3362,0.76932 c -2.38491,0.42312 -7.4056,1.15696 -11.15709,1.63075 l -6.82087,0.86145 z m -143.46327,-9.10945 -8.33884,-1.28113 0,-2.99767 c 0,-1.64873 0.31476,-3.31255 0.69946,-3.69739 l 0.69947,-0.69969 10.7782,1.72636 c 5.928,0.94949 10.993,1.94123 11.25555,2.20387 0.26255,0.26262 0.13089,1.80262 -0.29245,3.4222 l -0.7698,2.9447 -2.84637,-0.17006 c -1.5655,-0.0936 -6.59885,-0.74657 -11.18522,-1.45119 z m 141.96883,-1.32345 c -0.42339,-1.61958 -0.55498,-3.15958 -0.29245,-3.4222 0.26255,-0.26264 5.32754,-1.25438 11.25555,-2.20387 l 10.7782,-1.72636 0.69946,0.69969 c 0.38471,0.38484 0.69947,2.02809 0.69947,3.65168 l 0,2.95196 -10.06112,1.4969 c -5.5336,0.8233 -10.56695,1.4969 -11.18521,1.4969 l -1.1241,0 z m -140.63461,-9.43929 -8.33884,-1.3351 0,-1.7066 c 0,-0.93862 0.33064,-2.56852 0.73476,-3.622 l 0.73478,-1.91541 10.74288,1.7207 c 5.9086,0.94638 11.03635,2.01423 11.395,2.373 0.35865,0.35877 0.25661,1.89877 -0.22675,3.42222 l -0.87885,2.7699 -2.91207,-0.1858 c -1.60163,-0.10224 -6.66455,-0.78661 -11.25091,-1.52091 z m 139.10712,-0.91454 c -0.5093,-1.60521 -0.63257,-3.2121 -0.27392,-3.57087 0.35865,-0.35877 5.4864,-1.42662 11.39499,-2.373 l 10.74289,-1.7207 0.73478,1.91541 c 0.40412,1.05348 0.73476,2.68555 0.73476,3.62684 l 0,1.71142 -5.67041,0.77855 c -3.11873,0.42819 -8.16042,1.17731 -11.20375,1.66472 l -5.53333,0.88619 z m -108.75374,-79.46039 0,-35.36851 4.00264,0 4.00265,0 0,-8.00796 0,-8.00796 -4.00265,0 -4.00264,0 0,-8.6753 0,-8.67529 8.67239,0 8.6724,0 0,8.67529 0,8.6753 -2.66843,0 -2.66843,0 0,8.00796 0,8.00796 34.68958,0 34.68958,0 0,-8.00796 0,-8.00796 -2.66843,0 -2.66843,0 0,-8.6753 0,-8.67529 8.67239,0 8.6724,0 0,8.67529 0,8.6753 -4.00265,0 -4.00264,0 0,8.00796 0,8.00796 4.00264,0 4.00265,0 0,35.36851 0,35.36851 -46.69751,0 -46.69751,0 z m 74.71601,20.01991 0,-3.33665 -28.0185,0 -28.01851,0 0,3.33665 0,3.33666 28.01851,0 28.0185,0 z m -41.63575,-30.36353 -0.392,-9.67629 -10.34017,-0.3898 -10.34016,-0.38981 0,10.0661 0,10.06609 10.73217,0 10.73217,0 z m -11.73283,0.33367 0,-4.00398 4.00265,0 4.00264,0 0,4.00398 0,4.00398 -4.00264,0 -4.00265,0 z m 61.37387,-0.66733 0,-10.00996 -10.67371,0 -10.67372,0 0,10.00996 0,10.00995 10.67372,0 10.67371,0 z m -18.679,0.66733 0,-4.00398 4.00264,0 4.00265,0 0,4.00398 0,4.00398 -4.00265,0 -4.00264,0 z"
       id="path3137"
       inkscape:connector-curvature="0"
       sodipodi:nodetypes="ccccccccsscsscccccccccccccccccccccccccccccccssccscccccccccccccccccccccccccccccccccccccccccssccccccccccccccccsscccccccccccccccccccccccccccccccssccccccccscssccccccccccccccccccccccccccccccccccccccccsscccccccccccccccccccsscccccccccccccccccccccccscssccccccccscssccccccccccccccccccccscccccccsscsccscccccccssccsscccccccsccsscssccccsscssccscccccccsscccccscscccccccsccsscsscccsscsscsscscsccsscscsscsscsssscsssccsscscsscsscsscccssccccsccsscccssccsscccssccccsccsscccssccscsscsccccsssscsscsscsscsscsssccsssscsscsscscccccccccccccccccccccccccccccccccccccccccccccccccccccccccccccccccccccccccccccccccccccc" />
  </g>
</svg>
