solid OpenSCAD_Model
  facet normal -0.866025 -0.5 0
    outer loop
      vertex 23.6602 45.3811 -24.5455
      vertex 20.1011 51.5455 0
      vertex 20.1011 51.5455 -24.5455
    endloop
  endfacet
  facet normal -0.866025 -0.5 0
    outer loop
      vertex 20.1011 51.5455 0
      vertex 23.6602 45.3811 -24.5455
      vertex 23.6602 45.3811 0
    endloop
  endfacet
  facet normal 0 -1 0
    outer loop
      vertex 51.5455 5.44694 -10.2628
      vertex 78.5455 5.44694 0
      vertex 51.5455 5.44694 0
    endloop
  endfacet
  facet normal 0 -1 -0
    outer loop
      vertex 78.5455 5.44694 0
      vertex 51.5455 5.44694 -10.2628
      vertex 78.5455 5.44694 -10.2628
    endloop
  endfacet
  facet normal -0.743145 -0.669131 0
    outer loop
      vertex 37.3945 30.1276 -24.5455
      vertex 23.6602 45.3811 0
      vertex 23.6602 45.3811 -24.5455
    endloop
  endfacet
  facet normal -0.743145 -0.669131 0
    outer loop
      vertex 23.6602 45.3811 0
      vertex 37.3945 30.1276 -24.5455
      vertex 37.3945 30.1276 0
    endloop
  endfacet
  facet normal -0.587785 -0.809017 0
    outer loop
      vertex 37.3945 30.1276 -24.5455
      vertex 51.5455 19.8463 0
      vertex 37.3945 30.1276 0
    endloop
  endfacet
  facet normal -0.587785 -0.809017 -0
    outer loop
      vertex 51.5455 19.8463 0
      vertex 37.3945 30.1276 -24.5455
      vertex 51.5455 19.8463 -24.5455
    endloop
  endfacet
  facet normal -1 0 0
    outer loop
      vertex 51.5455 5.44694 -10.2628
      vertex 51.5455 19.8463 -24.5455
      vertex 51.5455 8.48281 -24.5455
    endloop
  endfacet
  facet normal -1 0 0
    outer loop
      vertex 51.5455 19.8463 -24.5455
      vertex 51.5455 5.44694 -10.2628
      vertex 51.5455 19.8463 0
    endloop
  endfacet
  facet normal -1 -0 0
    outer loop
      vertex 51.5455 19.8463 0
      vertex 51.5455 5.44694 -10.2628
      vertex 51.5455 5.44694 0
    endloop
  endfacet
  facet normal 0 -0.978148 -0.207912
    outer loop
      vertex 51.5455 8.48281 -24.5455
      vertex 78.5455 5.44694 -10.2628
      vertex 51.5455 5.44694 -10.2628
    endloop
  endfacet
  facet normal 0 -0.978148 -0.207912
    outer loop
      vertex 78.5455 5.44694 -10.2628
      vertex 51.5455 8.48281 -24.5455
      vertex 78.5455 8.48281 -24.5455
    endloop
  endfacet
  facet normal 0 -1 0
    outer loop
      vertex 7.0546 51.5455 -20.4131
      vertex 20.1011 51.5455 0
      vertex 4.90909 51.5455 0
    endloop
  endfacet
  facet normal 0 -1 0
    outer loop
      vertex 20.1011 51.5455 -24.5455
      vertex 7.0546 51.5455 -20.4131
      vertex 8.39727 51.5455 -24.5455
    endloop
  endfacet
  facet normal 0 -1 0
    outer loop
      vertex 7.0546 51.5455 -20.4131
      vertex 20.1011 51.5455 -24.5455
      vertex 20.1011 51.5455 0
    endloop
  endfacet
  facet normal -0.951057 0 -0.309017
    outer loop
      vertex 8.39727 51.5455 -24.5455
      vertex 7.0546 78.5455 -20.4131
      vertex 8.39727 78.5455 -24.5455
    endloop
  endfacet
  facet normal -0.951057 -0 -0.309017
    outer loop
      vertex 7.0546 78.5455 -20.4131
      vertex 8.39727 51.5455 -24.5455
      vertex 7.0546 51.5455 -20.4131
    endloop
  endfacet
  facet normal -0.994522 0 -0.104528
    outer loop
      vertex 7.0546 51.5455 -20.4131
      vertex 4.90909 78.5455 0
      vertex 7.0546 78.5455 -20.4131
    endloop
  endfacet
  facet normal -0.994522 -0 -0.104528
    outer loop
      vertex 4.90909 78.5455 0
      vertex 7.0546 51.5455 -20.4131
      vertex 4.90909 51.5455 0
    endloop
  endfacet
  facet normal 1 0 0
    outer loop
      vertex 78.5455 78.5455 0
      vertex 78.5455 8.48281 -24.5455
      vertex 78.5455 78.5455 -24.5455
    endloop
  endfacet
  facet normal 1 0 0
    outer loop
      vertex 78.5455 5.44694 -10.2628
      vertex 78.5455 78.5455 0
      vertex 78.5455 5.44694 0
    endloop
  endfacet
  facet normal 1 0 0
    outer loop
      vertex 78.5455 78.5455 0
      vertex 78.5455 5.44694 -10.2628
      vertex 78.5455 8.48281 -24.5455
    endloop
  endfacet
  facet normal 0 1 0
    outer loop
      vertex 78.5455 78.5455 0
      vertex 7.0546 78.5455 -20.4131
      vertex 4.90909 78.5455 0
    endloop
  endfacet
  facet normal 0 1 0
    outer loop
      vertex 8.39727 78.5455 -24.5455
      vertex 78.5455 78.5455 0
      vertex 78.5455 78.5455 -24.5455
    endloop
  endfacet
  facet normal 0 1 0
    outer loop
      vertex 78.5455 78.5455 0
      vertex 8.39727 78.5455 -24.5455
      vertex 7.0546 78.5455 -20.4131
    endloop
  endfacet
  facet normal 0 0 -1
    outer loop
      vertex 51.5455 19.8463 -24.5455
      vertex 78.5455 8.48281 -24.5455
      vertex 51.5455 8.48281 -24.5455
    endloop
  endfacet
  facet normal 0 0 -1
    outer loop
      vertex 78.5455 8.48281 -24.5455
      vertex 51.5455 19.8463 -24.5455
      vertex 78.5455 78.5455 -24.5455
    endloop
  endfacet
  facet normal 0 0 -1
    outer loop
      vertex 37.3945 30.1276 -24.5455
      vertex 78.5455 78.5455 -24.5455
      vertex 51.5455 19.8463 -24.5455
    endloop
  endfacet
  facet normal 0 0 -1
    outer loop
      vertex 23.6602 45.3811 -24.5455
      vertex 78.5455 78.5455 -24.5455
      vertex 37.3945 30.1276 -24.5455
    endloop
  endfacet
  facet normal 0 0 -1
    outer loop
      vertex 20.1011 51.5455 -24.5455
      vertex 78.5455 78.5455 -24.5455
      vertex 23.6602 45.3811 -24.5455
    endloop
  endfacet
  facet normal 0 0 -1
    outer loop
      vertex 8.39727 78.5455 -24.5455
      vertex 20.1011 51.5455 -24.5455
      vertex 8.39727 51.5455 -24.5455
    endloop
  endfacet
  facet normal 0 0 -1
    outer loop
      vertex 20.1011 51.5455 -24.5455
      vertex 8.39727 78.5455 -24.5455
      vertex 78.5455 78.5455 -24.5455
    endloop
  endfacet
  facet normal -0.994523 -0.104514 0
    outer loop
      vertex 75.3455 74.0455 -10
      vertex 75.317 74.3157 0
      vertex 75.317 74.3157 -10
    endloop
  endfacet
  facet normal -0.994523 -0.104514 0
    outer loop
      vertex 75.317 74.3157 0
      vertex 75.3455 74.0455 -10
      vertex 75.3455 74.0455 0
    endloop
  endfacet
  facet normal 0 -1 0
    outer loop
      vertex 73.9096 75.3383 -10
      vertex 74.1813 75.3383 0
      vertex 73.9096 75.3383 0
    endloop
  endfacet
  facet normal 0 -1 -0
    outer loop
      vertex 74.1813 75.3383 0
      vertex 73.9096 75.3383 -10
      vertex 74.1813 75.3383 -10
    endloop
  endfacet
  facet normal -0.406751 -0.913539 0
    outer loop
      vertex 74.4472 75.2818 -10
      vertex 74.631 75.2 0
      vertex 74.4472 75.2818 0
    endloop
  endfacet
  facet normal -0.406751 -0.913539 -0
    outer loop
      vertex 74.631 75.2 0
      vertex 74.4472 75.2818 -10
      vertex 74.631 75.2 -10
    endloop
  endfacet
  facet normal 0.207903 -0.978149 0
    outer loop
      vertex 73.6437 75.2818 -10
      vertex 73.9096 75.3383 0
      vertex 73.6437 75.2818 0
    endloop
  endfacet
  facet normal 0.207903 -0.978149 0
    outer loop
      vertex 73.9096 75.3383 0
      vertex 73.6437 75.2818 -10
      vertex 73.9096 75.3383 -10
    endloop
  endfacet
  facet normal -0.866005 -0.500035 0
    outer loop
      vertex 75.2331 74.5742 -10
      vertex 75.2 74.6315 0
      vertex 75.2 74.6315 -10
    endloop
  endfacet
  facet normal -0.866005 -0.500035 0
    outer loop
      vertex 75.2 74.6315 0
      vertex 75.2331 74.5742 -10
      vertex 75.2331 74.5742 0
    endloop
  endfacet
  facet normal -0.951053 -0.309026 0
    outer loop
      vertex 75.317 74.3157 -10
      vertex 75.2331 74.5742 0
      vertex 75.2331 74.5742 -10
    endloop
  endfacet
  facet normal -0.951053 -0.309026 0
    outer loop
      vertex 75.2331 74.5742 0
      vertex 75.317 74.3157 -10
      vertex 75.317 74.3157 0
    endloop
  endfacet
  facet normal -0.207909 -0.978148 0
    outer loop
      vertex 74.1813 75.3383 -10
      vertex 74.4472 75.2818 0
      vertex 74.1813 75.3383 0
    endloop
  endfacet
  facet normal -0.207909 -0.978148 -0
    outer loop
      vertex 74.4472 75.2818 0
      vertex 74.1813 75.3383 -10
      vertex 74.4472 75.2818 -10
    endloop
  endfacet
  facet normal 0.406765 -0.913533 0
    outer loop
      vertex 73.4599 75.2 -10
      vertex 73.6437 75.2818 0
      vertex 73.4599 75.2 0
    endloop
  endfacet
  facet normal 0.406765 -0.913533 0
    outer loop
      vertex 73.6437 75.2818 0
      vertex 73.4599 75.2 -10
      vertex 73.6437 75.2818 -10
    endloop
  endfacet
  facet normal -0.994523 0.104514 0
    outer loop
      vertex 75.317 73.7752 -10
      vertex 75.3455 74.0455 0
      vertex 75.3455 74.0455 -10
    endloop
  endfacet
  facet normal -0.994523 0.104514 0
    outer loop
      vertex 75.3455 74.0455 0
      vertex 75.317 73.7752 -10
      vertex 75.317 73.7752 0
    endloop
  endfacet
  facet normal 0 0 1
    outer loop
      vertex 75.317 74.3157 -10
      vertex 75.317 73.7752 -10
      vertex 75.3455 74.0455 -10
    endloop
  endfacet
  facet normal 0 0 1
    outer loop
      vertex 75.2 74.6315 -10
      vertex 75.317 74.3157 -10
      vertex 75.2331 74.5742 -10
    endloop
  endfacet
  facet normal 0 0 1
    outer loop
      vertex 75.317 74.3157 -10
      vertex 75.2 74.6315 -10
      vertex 75.317 73.7752 -10
    endloop
  endfacet
  facet normal 0 0 1
    outer loop
      vertex 75.2 73.4594 -10
      vertex 75.317 73.7752 -10
      vertex 75.2 74.6315 -10
    endloop
  endfacet
  facet normal 0 0 1
    outer loop
      vertex 75.317 73.7752 -10
      vertex 75.2 73.4594 -10
      vertex 75.2331 73.5167 -10
    endloop
  endfacet
  facet normal 0 0 1
    outer loop
      vertex 74.1813 75.3383 -10
      vertex 74.631 75.2 -10
      vertex 74.4472 75.2818 -10
    endloop
  endfacet
  facet normal -0 0 1
    outer loop
      vertex 73.9096 75.3383 -10
      vertex 74.631 75.2 -10
      vertex 74.1813 75.3383 -10
    endloop
  endfacet
  facet normal 0 0 1
    outer loop
      vertex 73.4599 75.2 -10
      vertex 73.9096 75.3383 -10
      vertex 73.6437 75.2818 -10
    endloop
  endfacet
  facet normal 0 0 1
    outer loop
      vertex 73.9096 75.3383 -10
      vertex 73.4599 75.2 -10
      vertex 74.631 75.2 -10
    endloop
  endfacet
  facet normal -0.866005 0.500035 0
    outer loop
      vertex 75.2 73.4594 -10
      vertex 75.2331 73.5167 0
      vertex 75.2331 73.5167 -10
    endloop
  endfacet
  facet normal -0.866005 0.500035 0
    outer loop
      vertex 75.2331 73.5167 0
      vertex 75.2 73.4594 -10
      vertex 75.2 73.4594 0
    endloop
  endfacet
  facet normal -0.951056 0.309018 0
    outer loop
      vertex 75.2331 73.5167 -10
      vertex 75.317 73.7752 0
      vertex 75.317 73.7752 -10
    endloop
  endfacet
  facet normal -0.951056 0.309018 0
    outer loop
      vertex 75.317 73.7752 0
      vertex 75.2331 73.5167 -10
      vertex 75.2331 73.5167 0
    endloop
  endfacet
  facet normal -0.994523 -0.104515 0
    outer loop
      vertex 75.3455 9 -10
      vertex 75.317 9.27028 0
      vertex 75.317 9.27028 -10
    endloop
  endfacet
  facet normal -0.994523 -0.104515 0
    outer loop
      vertex 75.317 9.27028 0
      vertex 75.3455 9 -10
      vertex 75.3455 9 0
    endloop
  endfacet
  facet normal 0.99452 0.104542 0
    outer loop
      vertex 72.7739 8.72971 0
      vertex 72.7455 9 -10
      vertex 72.7455 9 0
    endloop
  endfacet
  facet normal 0.99452 0.104542 0
    outer loop
      vertex 72.7455 9 -10
      vertex 72.7739 8.72971 0
      vertex 72.7739 8.72971 -10
    endloop
  endfacet
  facet normal 0 -1 0
    outer loop
      vertex 73.9096 10.2929 -10
      vertex 74.1813 10.2929 0
      vertex 73.9096 10.2929 0
    endloop
  endfacet
  facet normal 0 -1 -0
    outer loop
      vertex 74.1813 10.2929 0
      vertex 73.9096 10.2929 -10
      vertex 74.1813 10.2929 -10
    endloop
  endfacet
  facet normal 0 1 -0
    outer loop
      vertex 74.1813 7.70712 -10
      vertex 73.9096 7.70712 0
      vertex 74.1813 7.70712 0
    endloop
  endfacet
  facet normal 0 1 0
    outer loop
      vertex 73.9096 7.70712 0
      vertex 74.1813 7.70712 -10
      vertex 73.9096 7.70712 -10
    endloop
  endfacet
  facet normal 0.743141 0.669135 0
    outer loop
      vertex 73.1756 8.03391 0
      vertex 72.9937 8.23588 -10
      vertex 72.9937 8.23588 0
    endloop
  endfacet
  facet normal 0.743141 0.669135 0
    outer loop
      vertex 72.9937 8.23588 -10
      vertex 73.1756 8.03391 0
      vertex 73.1756 8.03391 -10
    endloop
  endfacet
  facet normal -0.743141 -0.669135 0
    outer loop
      vertex 75.0972 9.76412 -10
      vertex 74.9153 9.96609 0
      vertex 74.9153 9.96609 -10
    endloop
  endfacet
  facet normal -0.743141 -0.669135 0
    outer loop
      vertex 74.9153 9.96609 0
      vertex 75.0972 9.76412 -10
      vertex 75.0972 9.76412 0
    endloop
  endfacet
  facet normal 0.743141 -0.669135 0
    outer loop
      vertex 72.9937 9.76412 0
      vertex 73.1756 9.96609 -10
      vertex 73.1756 9.96609 0
    endloop
  endfacet
  facet normal 0.743141 -0.669135 0
    outer loop
      vertex 73.1756 9.96609 -10
      vertex 72.9937 9.76412 0
      vertex 72.9937 9.76412 -10
    endloop
  endfacet
  facet normal 0.406739 -0.913544 0
    outer loop
      vertex 73.3955 10.1258 -10
      vertex 73.6437 10.2364 0
      vertex 73.3955 10.1258 0
    endloop
  endfacet
  facet normal 0.406739 -0.913544 0
    outer loop
      vertex 73.6437 10.2364 0
      vertex 73.3955 10.1258 -10
      vertex 73.6437 10.2364 -10
    endloop
  endfacet
  facet normal -0.866025 0.500001 0
    outer loop
      vertex 75.0972 8.23588 -10
      vertex 75.2331 8.47124 0
      vertex 75.2331 8.47124 -10
    endloop
  endfacet
  facet normal -0.866025 0.500001 0
    outer loop
      vertex 75.2331 8.47124 0
      vertex 75.0972 8.23588 -10
      vertex 75.0972 8.23588 0
    endloop
  endfacet
  facet normal 0.951055 0.309022 0
    outer loop
      vertex 72.8578 8.47124 0
      vertex 72.7739 8.72971 -10
      vertex 72.7739 8.72971 0
    endloop
  endfacet
  facet normal 0.951055 0.309022 0
    outer loop
      vertex 72.7739 8.72971 -10
      vertex 72.8578 8.47124 0
      vertex 72.8578 8.47124 -10
    endloop
  endfacet
  facet normal -0.866025 -0.500001 0
    outer loop
      vertex 75.2331 9.52876 -10
      vertex 75.0972 9.76412 0
      vertex 75.0972 9.76412 -10
    endloop
  endfacet
  facet normal -0.866025 -0.500001 0
    outer loop
      vertex 75.0972 9.76412 0
      vertex 75.2331 9.52876 -10
      vertex 75.2331 9.52876 0
    endloop
  endfacet
  facet normal -0.951055 -0.309022 0
    outer loop
      vertex 75.317 9.27028 -10
      vertex 75.2331 9.52876 0
      vertex 75.2331 9.52876 -10
    endloop
  endfacet
  facet normal -0.951055 -0.309022 0
    outer loop
      vertex 75.2331 9.52876 0
      vertex 75.317 9.27028 -10
      vertex 75.317 9.27028 0
    endloop
  endfacet
  facet normal -0.406739 -0.913544 0
    outer loop
      vertex 74.4472 10.2364 -10
      vertex 74.6954 10.1258 0
      vertex 74.4472 10.2364 0
    endloop
  endfacet
  facet normal -0.406739 -0.913544 -0
    outer loop
      vertex 74.6954 10.1258 0
      vertex 74.4472 10.2364 -10
      vertex 74.6954 10.1258 -10
    endloop
  endfacet
  facet normal -0.207915 -0.978147 0
    outer loop
      vertex 74.1813 10.2929 -10
      vertex 74.4472 10.2364 0
      vertex 74.1813 10.2929 0
    endloop
  endfacet
  facet normal -0.207915 -0.978147 -0
    outer loop
      vertex 74.4472 10.2364 0
      vertex 74.1813 10.2929 -10
      vertex 74.4472 10.2364 -10
    endloop
  endfacet
  facet normal -0.587783 -0.809018 0
    outer loop
      vertex 74.6954 10.1258 -10
      vertex 74.9153 9.96609 0
      vertex 74.6954 10.1258 0
    endloop
  endfacet
  facet normal -0.587783 -0.809018 -0
    outer loop
      vertex 74.9153 9.96609 0
      vertex 74.6954 10.1258 -10
      vertex 74.9153 9.96609 -10
    endloop
  endfacet
  facet normal 0.951055 -0.309022 0
    outer loop
      vertex 72.7739 9.27028 0
      vertex 72.8578 9.52876 -10
      vertex 72.8578 9.52876 0
    endloop
  endfacet
  facet normal 0.951055 -0.309022 0
    outer loop
      vertex 72.8578 9.52876 -10
      vertex 72.7739 9.27028 0
      vertex 72.7739 9.27028 -10
    endloop
  endfacet
  facet normal 0 0 1
    outer loop
      vertex 75.317 9.27028 -10
      vertex 75.317 8.72971 -10
      vertex 75.3455 9 -10
    endloop
  endfacet
  facet normal 0 0 1
    outer loop
      vertex 75.2331 9.52876 -10
      vertex 75.317 8.72971 -10
      vertex 75.317 9.27028 -10
    endloop
  endfacet
  facet normal 0 0 1
    outer loop
      vertex 75.2331 9.52876 -10
      vertex 75.2331 8.47124 -10
      vertex 75.317 8.72971 -10
    endloop
  endfacet
  facet normal 0 0 1
    outer loop
      vertex 75.0972 9.76412 -10
      vertex 75.2331 8.47124 -10
      vertex 75.2331 9.52876 -10
    endloop
  endfacet
  facet normal 0 0 1
    outer loop
      vertex 75.0972 9.76412 -10
      vertex 75.0972 8.23588 -10
      vertex 75.2331 8.47124 -10
    endloop
  endfacet
  facet normal 0 0 1
    outer loop
      vertex 74.9153 9.96609 -10
      vertex 75.0972 8.23588 -10
      vertex 75.0972 9.76412 -10
    endloop
  endfacet
  facet normal 0 0 1
    outer loop
      vertex 74.9153 9.96609 -10
      vertex 74.9153 8.03391 -10
      vertex 75.0972 8.23588 -10
    endloop
  endfacet
  facet normal 0 0 1
    outer loop
      vertex 74.6954 10.1258 -10
      vertex 74.9153 8.03391 -10
      vertex 74.9153 9.96609 -10
    endloop
  endfacet
  facet normal 0 0 1
    outer loop
      vertex 74.6954 10.1258 -10
      vertex 74.6954 7.87417 -10
      vertex 74.9153 8.03391 -10
    endloop
  endfacet
  facet normal 0 0 1
    outer loop
      vertex 74.4472 10.2364 -10
      vertex 74.6954 7.87417 -10
      vertex 74.6954 10.1258 -10
    endloop
  endfacet
  facet normal 0 0 1
    outer loop
      vertex 74.4472 10.2364 -10
      vertex 74.4472 7.76363 -10
      vertex 74.6954 7.87417 -10
    endloop
  endfacet
  facet normal 0 0 1
    outer loop
      vertex 74.1813 10.2929 -10
      vertex 74.4472 7.76363 -10
      vertex 74.4472 10.2364 -10
    endloop
  endfacet
  facet normal 0 0 1
    outer loop
      vertex 74.1813 10.2929 -10
      vertex 74.1813 7.70712 -10
      vertex 74.4472 7.76363 -10
    endloop
  endfacet
  facet normal -0 0 1
    outer loop
      vertex 73.9096 10.2929 -10
      vertex 74.1813 7.70712 -10
      vertex 74.1813 10.2929 -10
    endloop
  endfacet
  facet normal 0 0 1
    outer loop
      vertex 73.9096 10.2929 -10
      vertex 73.9096 7.70712 -10
      vertex 74.1813 7.70712 -10
    endloop
  endfacet
  facet normal -0 0 1
    outer loop
      vertex 73.6437 10.2364 -10
      vertex 73.9096 7.70712 -10
      vertex 73.9096 10.2929 -10
    endloop
  endfacet
  facet normal 0 0 1
    outer loop
      vertex 73.6437 10.2364 -10
      vertex 73.6437 7.76363 -10
      vertex 73.9096 7.70712 -10
    endloop
  endfacet
  facet normal -0 0 1
    outer loop
      vertex 73.3955 10.1258 -10
      vertex 73.6437 7.76363 -10
      vertex 73.6437 10.2364 -10
    endloop
  endfacet
  facet normal 0 0 1
    outer loop
      vertex 73.3955 10.1258 -10
      vertex 73.3955 7.87417 -10
      vertex 73.6437 7.76363 -10
    endloop
  endfacet
  facet normal -0 0 1
    outer loop
      vertex 73.1756 9.96609 -10
      vertex 73.3955 7.87417 -10
      vertex 73.3955 10.1258 -10
    endloop
  endfacet
  facet normal 0 0 1
    outer loop
      vertex 73.1756 9.96609 -10
      vertex 73.1756 8.03391 -10
      vertex 73.3955 7.87417 -10
    endloop
  endfacet
  facet normal -0 0 1
    outer loop
      vertex 72.9937 9.76412 -10
      vertex 73.1756 8.03391 -10
      vertex 73.1756 9.96609 -10
    endloop
  endfacet
  facet normal 0 0 1
    outer loop
      vertex 72.9937 9.76412 -10
      vertex 72.9937 8.23588 -10
      vertex 73.1756 8.03391 -10
    endloop
  endfacet
  facet normal -0 0 1
    outer loop
      vertex 72.8578 9.52876 -10
      vertex 72.9937 8.23588 -10
      vertex 72.9937 9.76412 -10
    endloop
  endfacet
  facet normal 0 0 1
    outer loop
      vertex 72.8578 9.52876 -10
      vertex 72.8578 8.47124 -10
      vertex 72.9937 8.23588 -10
    endloop
  endfacet
  facet normal -0 0 1
    outer loop
      vertex 72.7739 9.27028 -10
      vertex 72.8578 8.47124 -10
      vertex 72.8578 9.52876 -10
    endloop
  endfacet
  facet normal 0 0 1
    outer loop
      vertex 72.7739 9.27028 -10
      vertex 72.7739 8.72971 -10
      vertex 72.8578 8.47124 -10
    endloop
  endfacet
  facet normal 0 -0 1
    outer loop
      vertex 72.7739 8.72971 -10
      vertex 72.7739 9.27028 -10
      vertex 72.7455 9 -10
    endloop
  endfacet
  facet normal 0.866037 -0.49998 0
    outer loop
      vertex 72.8578 9.52876 0
      vertex 72.9937 9.76412 -10
      vertex 72.9937 9.76412 0
    endloop
  endfacet
  facet normal 0.866037 -0.49998 0
    outer loop
      vertex 72.9937 9.76412 -10
      vertex 72.8578 9.52876 0
      vertex 72.8578 9.52876 -10
    endloop
  endfacet
  facet normal 0.99452 -0.104542 0
    outer loop
      vertex 72.7455 9 0
      vertex 72.7739 9.27028 -10
      vertex 72.7739 9.27028 0
    endloop
  endfacet
  facet normal 0.99452 -0.104542 0
    outer loop
      vertex 72.7739 9.27028 -10
      vertex 72.7455 9 0
      vertex 72.7455 9 -10
    endloop
  endfacet
  facet normal 0.587783 -0.809018 0
    outer loop
      vertex 73.1756 9.96609 -10
      vertex 73.3955 10.1258 0
      vertex 73.1756 9.96609 0
    endloop
  endfacet
  facet normal 0.587783 -0.809018 0
    outer loop
      vertex 73.3955 10.1258 0
      vertex 73.1756 9.96609 -10
      vertex 73.3955 10.1258 -10
    endloop
  endfacet
  facet normal 0.20791 -0.978148 0
    outer loop
      vertex 73.6437 10.2364 -10
      vertex 73.9096 10.2929 0
      vertex 73.6437 10.2364 0
    endloop
  endfacet
  facet normal 0.20791 -0.978148 0
    outer loop
      vertex 73.9096 10.2929 0
      vertex 73.6437 10.2364 -10
      vertex 73.9096 10.2929 -10
    endloop
  endfacet
  facet normal -0.994523 0.104514 0
    outer loop
      vertex 75.317 8.72971 -10
      vertex 75.3455 9 0
      vertex 75.3455 9 -10
    endloop
  endfacet
  facet normal -0.994523 0.104514 0
    outer loop
      vertex 75.3455 9 0
      vertex 75.317 8.72971 -10
      vertex 75.317 8.72971 0
    endloop
  endfacet
  facet normal -0.207915 0.978147 0
    outer loop
      vertex 74.4472 7.76363 -10
      vertex 74.1813 7.70712 0
      vertex 74.4472 7.76363 0
    endloop
  endfacet
  facet normal -0.207915 0.978147 0
    outer loop
      vertex 74.1813 7.70712 0
      vertex 74.4472 7.76363 -10
      vertex 74.1813 7.70712 -10
    endloop
  endfacet
  facet normal -0.587783 0.809018 0
    outer loop
      vertex 74.9153 8.03391 -10
      vertex 74.6954 7.87417 0
      vertex 74.9153 8.03391 0
    endloop
  endfacet
  facet normal -0.587783 0.809018 0
    outer loop
      vertex 74.6954 7.87417 0
      vertex 74.9153 8.03391 -10
      vertex 74.6954 7.87417 -10
    endloop
  endfacet
  facet normal 0.587783 0.809018 -0
    outer loop
      vertex 73.3955 7.87417 -10
      vertex 73.1756 8.03391 0
      vertex 73.3955 7.87417 0
    endloop
  endfacet
  facet normal 0.587783 0.809018 0
    outer loop
      vertex 73.1756 8.03391 0
      vertex 73.3955 7.87417 -10
      vertex 73.1756 8.03391 -10
    endloop
  endfacet
  facet normal 0.20791 0.978148 -0
    outer loop
      vertex 73.9096 7.70712 -10
      vertex 73.6437 7.76363 0
      vertex 73.9096 7.70712 0
    endloop
  endfacet
  facet normal 0.20791 0.978148 0
    outer loop
      vertex 73.6437 7.76363 0
      vertex 73.9096 7.70712 -10
      vertex 73.6437 7.76363 -10
    endloop
  endfacet
  facet normal 0.866037 0.49998 0
    outer loop
      vertex 72.9937 8.23588 0
      vertex 72.8578 8.47124 -10
      vertex 72.8578 8.47124 0
    endloop
  endfacet
  facet normal 0.866037 0.49998 0
    outer loop
      vertex 72.8578 8.47124 -10
      vertex 72.9937 8.23588 0
      vertex 72.9937 8.23588 -10
    endloop
  endfacet
  facet normal -0.406739 0.913544 0
    outer loop
      vertex 74.6954 7.87417 -10
      vertex 74.4472 7.76363 0
      vertex 74.6954 7.87417 0
    endloop
  endfacet
  facet normal -0.406739 0.913544 0
    outer loop
      vertex 74.4472 7.76363 0
      vertex 74.6954 7.87417 -10
      vertex 74.4472 7.76363 -10
    endloop
  endfacet
  facet normal -0.743141 0.669135 0
    outer loop
      vertex 74.9153 8.03391 -10
      vertex 75.0972 8.23588 0
      vertex 75.0972 8.23588 -10
    endloop
  endfacet
  facet normal -0.743141 0.669135 0
    outer loop
      vertex 75.0972 8.23588 0
      vertex 74.9153 8.03391 -10
      vertex 74.9153 8.03391 0
    endloop
  endfacet
  facet normal -0.951055 0.309022 0
    outer loop
      vertex 75.2331 8.47124 -10
      vertex 75.317 8.72971 0
      vertex 75.317 8.72971 -10
    endloop
  endfacet
  facet normal -0.951055 0.309022 0
    outer loop
      vertex 75.317 8.72971 0
      vertex 75.2331 8.47124 -10
      vertex 75.2331 8.47124 0
    endloop
  endfacet
  facet normal 0.406739 0.913544 -0
    outer loop
      vertex 73.6437 7.76363 -10
      vertex 73.3955 7.87417 0
      vertex 73.6437 7.76363 0
    endloop
  endfacet
  facet normal 0.406739 0.913544 0
    outer loop
      vertex 73.3955 7.87417 0
      vertex 73.6437 7.76363 -10
      vertex 73.3955 7.87417 -10
    endloop
  endfacet
  facet normal -0.866029 -0.499995 0
    outer loop
      vertex 10.1876 74.5742 -10
      vertex 10.0517 74.8096 0
      vertex 10.0517 74.8096 -10
    endloop
  endfacet
  facet normal -0.866029 -0.499995 0
    outer loop
      vertex 10.0517 74.8096 0
      vertex 10.1876 74.5742 -10
      vertex 10.1876 74.5742 0
    endloop
  endfacet
  facet normal 0.951056 -0.30902 0
    outer loop
      vertex 7.72841 74.3157 0
      vertex 7.81239 74.5742 -10
      vertex 7.81239 74.5742 0
    endloop
  endfacet
  facet normal 0.951056 -0.30902 0
    outer loop
      vertex 7.81239 74.5742 -10
      vertex 7.72841 74.3157 0
      vertex 7.72841 74.3157 -10
    endloop
  endfacet
  facet normal -0.743141 -0.669135 0
    outer loop
      vertex 10.0517 74.8096 -10
      vertex 9.86987 75.0115 0
      vertex 9.86987 75.0115 -10
    endloop
  endfacet
  facet normal -0.743141 -0.669135 0
    outer loop
      vertex 9.86987 75.0115 0
      vertex 10.0517 74.8096 -10
      vertex 10.0517 74.8096 0
    endloop
  endfacet
  facet normal 0.406743 -0.913543 0
    outer loop
      vertex 8.35 75.1713 -10
      vertex 8.59828 75.2818 0
      vertex 8.35 75.1713 0
    endloop
  endfacet
  facet normal 0.406743 -0.913543 0
    outer loop
      vertex 8.59828 75.2818 0
      vertex 8.35 75.1713 -10
      vertex 8.59828 75.2818 -10
    endloop
  endfacet
  facet normal -0.994522 0.104528 0
    outer loop
      vertex 10.2716 73.7752 -10
      vertex 10.3 74.0455 0
      vertex 10.3 74.0455 -10
    endloop
  endfacet
  facet normal -0.994522 0.104528 0
    outer loop
      vertex 10.3 74.0455 0
      vertex 10.2716 73.7752 -10
      vertex 10.2716 73.7752 0
    endloop
  endfacet
  facet normal -0.951056 -0.30902 0
    outer loop
      vertex 10.2716 74.3157 -10
      vertex 10.1876 74.5742 0
      vertex 10.1876 74.5742 -10
    endloop
  endfacet
  facet normal -0.951056 -0.30902 0
    outer loop
      vertex 10.1876 74.5742 0
      vertex 10.2716 74.3157 -10
      vertex 10.2716 74.3157 0
    endloop
  endfacet
  facet normal -0.587784 -0.809018 0
    outer loop
      vertex 9.65 75.1713 -10
      vertex 9.86987 75.0115 0
      vertex 9.65 75.1713 0
    endloop
  endfacet
  facet normal -0.587784 -0.809018 -0
    outer loop
      vertex 9.86987 75.0115 0
      vertex 9.65 75.1713 -10
      vertex 9.86987 75.0115 -10
    endloop
  endfacet
  facet normal 0 -1 0
    outer loop
      vertex 8.86411 75.3383 -10
      vertex 9.13589 75.3383 0
      vertex 8.86411 75.3383 0
    endloop
  endfacet
  facet normal 0 -1 -0
    outer loop
      vertex 9.13589 75.3383 0
      vertex 8.86411 75.3383 -10
      vertex 9.13589 75.3383 -10
    endloop
  endfacet
  facet normal -0.406743 -0.913543 0
    outer loop
      vertex 9.40172 75.2818 -10
      vertex 9.65 75.1713 0
      vertex 9.40172 75.2818 0
    endloop
  endfacet
  facet normal -0.406743 -0.913543 -0
    outer loop
      vertex 9.65 75.1713 0
      vertex 9.40172 75.2818 -10
      vertex 9.65 75.1713 -10
    endloop
  endfacet
  facet normal 0.994522 -0.104528 0
    outer loop
      vertex 7.7 74.0455 0
      vertex 7.72841 74.3157 -10
      vertex 7.72841 74.3157 0
    endloop
  endfacet
  facet normal 0.994522 -0.104528 0
    outer loop
      vertex 7.72841 74.3157 -10
      vertex 7.7 74.0455 0
      vertex 7.7 74.0455 -10
    endloop
  endfacet
  facet normal 0.866029 -0.499995 0
    outer loop
      vertex 7.81239 74.5742 0
      vertex 7.94828 74.8096 -10
      vertex 7.94828 74.8096 0
    endloop
  endfacet
  facet normal 0.866029 -0.499995 0
    outer loop
      vertex 7.94828 74.8096 -10
      vertex 7.81239 74.5742 0
      vertex 7.81239 74.5742 -10
    endloop
  endfacet
  facet normal 0.587784 -0.809018 0
    outer loop
      vertex 8.13013 75.0115 -10
      vertex 8.35 75.1713 0
      vertex 8.13013 75.0115 0
    endloop
  endfacet
  facet normal 0.587784 -0.809018 0
    outer loop
      vertex 8.35 75.1713 0
      vertex 8.13013 75.0115 -10
      vertex 8.35 75.1713 -10
    endloop
  endfacet
  facet normal 0.207905 -0.978149 0
    outer loop
      vertex 8.59828 75.2818 -10
      vertex 8.86411 75.3383 0
      vertex 8.59828 75.2818 0
    endloop
  endfacet
  facet normal 0.207905 -0.978149 0
    outer loop
      vertex 8.86411 75.3383 0
      vertex 8.59828 75.2818 -10
      vertex 8.86411 75.3383 -10
    endloop
  endfacet
  facet normal 0.743141 -0.669135 0
    outer loop
      vertex 7.94828 74.8096 0
      vertex 8.13013 75.0115 -10
      vertex 8.13013 75.0115 0
    endloop
  endfacet
  facet normal 0.743141 -0.669135 0
    outer loop
      vertex 8.13013 75.0115 -10
      vertex 7.94828 74.8096 0
      vertex 7.94828 74.8096 -10
    endloop
  endfacet
  facet normal -0.994522 -0.104528 0
    outer loop
      vertex 10.3 74.0455 -10
      vertex 10.2716 74.3157 0
      vertex 10.2716 74.3157 -10
    endloop
  endfacet
  facet normal -0.994522 -0.104528 0
    outer loop
      vertex 10.2716 74.3157 0
      vertex 10.3 74.0455 -10
      vertex 10.3 74.0455 0
    endloop
  endfacet
  facet normal -0.587784 0.809018 0
    outer loop
      vertex 9.86987 73.0794 -10
      vertex 9.65 72.9196 0
      vertex 9.86987 73.0794 0
    endloop
  endfacet
  facet normal -0.587784 0.809018 0
    outer loop
      vertex 9.65 72.9196 0
      vertex 9.86987 73.0794 -10
      vertex 9.65 72.9196 -10
    endloop
  endfacet
  facet normal -0.951058 0.309012 0
    outer loop
      vertex 10.1876 73.5167 -10
      vertex 10.2716 73.7752 0
      vertex 10.2716 73.7752 -10
    endloop
  endfacet
  facet normal -0.951058 0.309012 0
    outer loop
      vertex 10.2716 73.7752 0
      vertex 10.1876 73.5167 -10
      vertex 10.1876 73.5167 0
    endloop
  endfacet
  facet normal 0.207905 0.978149 -0
    outer loop
      vertex 8.86411 72.7526 -10
      vertex 8.59828 72.8091 0
      vertex 8.86411 72.7526 0
    endloop
  endfacet
  facet normal 0.207905 0.978149 0
    outer loop
      vertex 8.59828 72.8091 0
      vertex 8.86411 72.7526 -10
      vertex 8.59828 72.8091 -10
    endloop
  endfacet
  facet normal -0.207905 -0.978149 0
    outer loop
      vertex 9.13589 75.3383 -10
      vertex 9.40172 75.2818 0
      vertex 9.13589 75.3383 0
    endloop
  endfacet
  facet normal -0.207905 -0.978149 -0
    outer loop
      vertex 9.40172 75.2818 0
      vertex 9.13589 75.3383 -10
      vertex 9.40172 75.2818 -10
    endloop
  endfacet
  facet normal 0.994522 0.104528 0
    outer loop
      vertex 7.72841 73.7752 0
      vertex 7.7 74.0455 -10
      vertex 7.7 74.0455 0
    endloop
  endfacet
  facet normal 0.994522 0.104528 0
    outer loop
      vertex 7.7 74.0455 -10
      vertex 7.72841 73.7752 0
      vertex 7.72841 73.7752 -10
    endloop
  endfacet
  facet normal -0.207905 0.978149 0
    outer loop
      vertex 9.40172 72.8091 -10
      vertex 9.13589 72.7526 0
      vertex 9.40172 72.8091 0
    endloop
  endfacet
  facet normal -0.207905 0.978149 0
    outer loop
      vertex 9.13589 72.7526 0
      vertex 9.40172 72.8091 -10
      vertex 9.13589 72.7526 -10
    endloop
  endfacet
  facet normal -0.406743 0.913543 0
    outer loop
      vertex 9.65 72.9196 -10
      vertex 9.40172 72.8091 0
      vertex 9.65 72.9196 0
    endloop
  endfacet
  facet normal -0.406743 0.913543 0
    outer loop
      vertex 9.40172 72.8091 0
      vertex 9.65 72.9196 -10
      vertex 9.40172 72.8091 -10
    endloop
  endfacet
  facet normal -0.743141 0.669135 0
    outer loop
      vertex 9.86987 73.0794 -10
      vertex 10.0517 73.2813 0
      vertex 10.0517 73.2813 -10
    endloop
  endfacet
  facet normal -0.743141 0.669135 0
    outer loop
      vertex 10.0517 73.2813 0
      vertex 9.86987 73.0794 -10
      vertex 9.86987 73.0794 0
    endloop
  endfacet
  facet normal -0.866021 0.500007 0
    outer loop
      vertex 10.0517 73.2813 -10
      vertex 10.1876 73.5167 0
      vertex 10.1876 73.5167 -10
    endloop
  endfacet
  facet normal -0.866021 0.500007 0
    outer loop
      vertex 10.1876 73.5167 0
      vertex 10.0517 73.2813 -10
      vertex 10.0517 73.2813 0
    endloop
  endfacet
  facet normal 0.406743 0.913543 -0
    outer loop
      vertex 8.59828 72.8091 -10
      vertex 8.35 72.9196 0
      vertex 8.59828 72.8091 0
    endloop
  endfacet
  facet normal 0.406743 0.913543 0
    outer loop
      vertex 8.35 72.9196 0
      vertex 8.59828 72.8091 -10
      vertex 8.35 72.9196 -10
    endloop
  endfacet
  facet normal 0 1 -0
    outer loop
      vertex 9.13589 72.7526 -10
      vertex 8.86411 72.7526 0
      vertex 9.13589 72.7526 0
    endloop
  endfacet
  facet normal 0 1 0
    outer loop
      vertex 8.86411 72.7526 0
      vertex 9.13589 72.7526 -10
      vertex 8.86411 72.7526 -10
    endloop
  endfacet
  facet normal 0 0 1
    outer loop
      vertex 10.2716 74.3157 -10
      vertex 10.2716 73.7752 -10
      vertex 10.3 74.0455 -10
    endloop
  endfacet
  facet normal 0 0 1
    outer loop
      vertex 10.1876 74.5742 -10
      vertex 10.2716 73.7752 -10
      vertex 10.2716 74.3157 -10
    endloop
  endfacet
  facet normal 0 0 1
    outer loop
      vertex 10.1876 74.5742 -10
      vertex 10.1876 73.5167 -10
      vertex 10.2716 73.7752 -10
    endloop
  endfacet
  facet normal 0 0 1
    outer loop
      vertex 10.0517 74.8096 -10
      vertex 10.1876 73.5167 -10
      vertex 10.1876 74.5742 -10
    endloop
  endfacet
  facet normal 0 0 1
    outer loop
      vertex 10.0517 74.8096 -10
      vertex 10.0517 73.2813 -10
      vertex 10.1876 73.5167 -10
    endloop
  endfacet
  facet normal 0 0 1
    outer loop
      vertex 9.86987 75.0115 -10
      vertex 10.0517 73.2813 -10
      vertex 10.0517 74.8096 -10
    endloop
  endfacet
  facet normal 0 0 1
    outer loop
      vertex 9.86987 75.0115 -10
      vertex 9.86987 73.0794 -10
      vertex 10.0517 73.2813 -10
    endloop
  endfacet
  facet normal 0 0 1
    outer loop
      vertex 9.65 75.1713 -10
      vertex 9.86987 73.0794 -10
      vertex 9.86987 75.0115 -10
    endloop
  endfacet
  facet normal 0 0 1
    outer loop
      vertex 9.65 75.1713 -10
      vertex 9.65 72.9196 -10
      vertex 9.86987 73.0794 -10
    endloop
  endfacet
  facet normal 0 0 1
    outer loop
      vertex 9.40172 75.2818 -10
      vertex 9.65 72.9196 -10
      vertex 9.65 75.1713 -10
    endloop
  endfacet
  facet normal 0 0 1
    outer loop
      vertex 9.40172 75.2818 -10
      vertex 9.40172 72.8091 -10
      vertex 9.65 72.9196 -10
    endloop
  endfacet
  facet normal 0 0 1
    outer loop
      vertex 9.13589 75.3383 -10
      vertex 9.40172 72.8091 -10
      vertex 9.40172 75.2818 -10
    endloop
  endfacet
  facet normal 0 0 1
    outer loop
      vertex 9.13589 75.3383 -10
      vertex 9.13589 72.7526 -10
      vertex 9.40172 72.8091 -10
    endloop
  endfacet
  facet normal -0 0 1
    outer loop
      vertex 8.86411 75.3383 -10
      vertex 9.13589 72.7526 -10
      vertex 9.13589 75.3383 -10
    endloop
  endfacet
  facet normal 0 0 1
    outer loop
      vertex 8.86411 75.3383 -10
      vertex 8.86411 72.7526 -10
      vertex 9.13589 72.7526 -10
    endloop
  endfacet
  facet normal -0 0 1
    outer loop
      vertex 8.59828 75.2818 -10
      vertex 8.86411 72.7526 -10
      vertex 8.86411 75.3383 -10
    endloop
  endfacet
  facet normal 0 0 1
    outer loop
      vertex 8.59828 75.2818 -10
      vertex 8.59828 72.8091 -10
      vertex 8.86411 72.7526 -10
    endloop
  endfacet
  facet normal -0 0 1
    outer loop
      vertex 8.35 75.1713 -10
      vertex 8.59828 72.8091 -10
      vertex 8.59828 75.2818 -10
    endloop
  endfacet
  facet normal 0 0 1
    outer loop
      vertex 8.35 75.1713 -10
      vertex 8.35 72.9196 -10
      vertex 8.59828 72.8091 -10
    endloop
  endfacet
  facet normal -0 0 1
    outer loop
      vertex 8.13013 75.0115 -10
      vertex 8.35 72.9196 -10
      vertex 8.35 75.1713 -10
    endloop
  endfacet
  facet normal 0 0 1
    outer loop
      vertex 8.13013 75.0115 -10
      vertex 8.13013 73.0794 -10
      vertex 8.35 72.9196 -10
    endloop
  endfacet
  facet normal -0 0 1
    outer loop
      vertex 7.94828 74.8096 -10
      vertex 8.13013 73.0794 -10
      vertex 8.13013 75.0115 -10
    endloop
  endfacet
  facet normal 0 0 1
    outer loop
      vertex 7.94828 74.8096 -10
      vertex 7.94828 73.2813 -10
      vertex 8.13013 73.0794 -10
    endloop
  endfacet
  facet normal -0 0 1
    outer loop
      vertex 7.81239 74.5742 -10
      vertex 7.94828 73.2813 -10
      vertex 7.94828 74.8096 -10
    endloop
  endfacet
  facet normal 0 0 1
    outer loop
      vertex 7.81239 74.5742 -10
      vertex 7.81239 73.5167 -10
      vertex 7.94828 73.2813 -10
    endloop
  endfacet
  facet normal -0 0 1
    outer loop
      vertex 7.72841 74.3157 -10
      vertex 7.81239 73.5167 -10
      vertex 7.81239 74.5742 -10
    endloop
  endfacet
  facet normal 0 0 1
    outer loop
      vertex 7.72841 74.3157 -10
      vertex 7.72841 73.7752 -10
      vertex 7.81239 73.5167 -10
    endloop
  endfacet
  facet normal 0 -0 1
    outer loop
      vertex 7.72841 73.7752 -10
      vertex 7.72841 74.3157 -10
      vertex 7.7 74.0455 -10
    endloop
  endfacet
  facet normal 0.951058 0.309012 0
    outer loop
      vertex 7.81239 73.5167 0
      vertex 7.72841 73.7752 -10
      vertex 7.72841 73.7752 0
    endloop
  endfacet
  facet normal 0.951058 0.309012 0
    outer loop
      vertex 7.72841 73.7752 -10
      vertex 7.81239 73.5167 0
      vertex 7.81239 73.5167 -10
    endloop
  endfacet
  facet normal 0.743141 0.669135 0
    outer loop
      vertex 8.13013 73.0794 0
      vertex 7.94828 73.2813 -10
      vertex 7.94828 73.2813 0
    endloop
  endfacet
  facet normal 0.743141 0.669135 0
    outer loop
      vertex 7.94828 73.2813 -10
      vertex 8.13013 73.0794 0
      vertex 8.13013 73.0794 -10
    endloop
  endfacet
  facet normal 0.866021 0.500007 0
    outer loop
      vertex 7.94828 73.2813 0
      vertex 7.81239 73.5167 -10
      vertex 7.81239 73.5167 0
    endloop
  endfacet
  facet normal 0.866021 0.500007 0
    outer loop
      vertex 7.81239 73.5167 -10
      vertex 7.94828 73.2813 0
      vertex 7.94828 73.2813 -10
    endloop
  endfacet
  facet normal 0.587784 0.809018 -0
    outer loop
      vertex 8.35 72.9196 -10
      vertex 8.13013 73.0794 0
      vertex 8.35 72.9196 0
    endloop
  endfacet
  facet normal 0.587784 0.809018 0
    outer loop
      vertex 8.13013 73.0794 0
      vertex 8.35 72.9196 -10
      vertex 8.13013 73.0794 -10
    endloop
  endfacet
  facet normal 0.866026 0.5 0
    outer loop
      vertex 31.2918 48.6685 0
      vertex 28.4446 53.6 -19.6364
      vertex 28.4446 53.6 0
    endloop
  endfacet
  facet normal 0.866026 0.5 0
    outer loop
      vertex 28.4446 53.6 -19.6364
      vertex 31.2918 48.6685 0
      vertex 31.2918 48.6685 -19.6364
    endloop
  endfacet
  facet normal 0 1 -0
    outer loop
      vertex 75.2 16.7212 -8.21024
      vertex 53.6 16.7212 0
      vertex 75.2 16.7212 0
    endloop
  endfacet
  facet normal 0 1 0
    outer loop
      vertex 53.6 16.7212 0
      vertex 75.2 16.7212 -8.21024
      vertex 53.6 16.7212 -8.21024
    endloop
  endfacet
  facet normal 0.743145 0.669131 0
    outer loop
      vertex 42.2792 36.4657 0
      vertex 31.2918 48.6685 -19.6364
      vertex 31.2918 48.6685 0
    endloop
  endfacet
  facet normal 0.743145 0.669131 0
    outer loop
      vertex 31.2918 48.6685 -19.6364
      vertex 42.2792 36.4657 0
      vertex 42.2792 36.4657 -19.6364
    endloop
  endfacet
  facet normal 0.587785 0.809017 -0
    outer loop
      vertex 53.6 28.2407 -19.6364
      vertex 42.2792 36.4657 0
      vertex 53.6 28.2407 0
    endloop
  endfacet
  facet normal 0.587785 0.809017 0
    outer loop
      vertex 42.2792 36.4657 0
      vertex 53.6 28.2407 -19.6364
      vertex 42.2792 36.4657 -19.6364
    endloop
  endfacet
  facet normal 1 -0 0
    outer loop
      vertex 53.6 16.7212 -8.21024
      vertex 53.6 28.2407 -19.6364
      vertex 53.6 28.2407 0
    endloop
  endfacet
  facet normal 1 0 0
    outer loop
      vertex 53.6 16.7212 -8.21024
      vertex 53.6 28.2407 0
      vertex 53.6 16.7212 0
    endloop
  endfacet
  facet normal 1 0 0
    outer loop
      vertex 53.6 28.2407 -19.6364
      vertex 53.6 16.7212 -8.21024
      vertex 53.6 19.1499 -19.6364
    endloop
  endfacet
  facet normal 0 0.978148 0.207912
    outer loop
      vertex 75.2 19.1499 -19.6364
      vertex 53.6 16.7212 -8.21024
      vertex 75.2 16.7212 -8.21024
    endloop
  endfacet
  facet normal 0 0.978148 0.207912
    outer loop
      vertex 53.6 16.7212 -8.21024
      vertex 75.2 19.1499 -19.6364
      vertex 53.6 19.1499 -19.6364
    endloop
  endfacet
  facet normal 0 1 0
    outer loop
      vertex 28.4446 53.6 0
      vertex 18.0073 53.6 -16.3305
      vertex 16.2909 53.6 0
    endloop
  endfacet
  facet normal 0 1 -0
    outer loop
      vertex 28.4446 53.6 -19.6364
      vertex 18.0073 53.6 -16.3305
      vertex 28.4446 53.6 0
    endloop
  endfacet
  facet normal 0 1 0
    outer loop
      vertex 18.0073 53.6 -16.3305
      vertex 28.4446 53.6 -19.6364
      vertex 19.0815 53.6 -19.6364
    endloop
  endfacet
  facet normal 0.951057 -0 0.309017
    outer loop
      vertex 18.0073 53.6 -16.3305
      vertex 19.0815 75.2 -19.6364
      vertex 18.0073 75.2 -16.3305
    endloop
  endfacet
  facet normal 0.951057 0 0.309017
    outer loop
      vertex 19.0815 75.2 -19.6364
      vertex 18.0073 53.6 -16.3305
      vertex 19.0815 53.6 -19.6364
    endloop
  endfacet
  facet normal 0.994522 -0 0.104529
    outer loop
      vertex 16.2909 53.6 0
      vertex 18.0073 75.2 -16.3305
      vertex 16.2909 75.2 0
    endloop
  endfacet
  facet normal 0.994522 0 0.104529
    outer loop
      vertex 18.0073 75.2 -16.3305
      vertex 16.2909 53.6 0
      vertex 18.0073 53.6 -16.3305
    endloop
  endfacet
  facet normal -1 0 0
    outer loop
      vertex 75.2 75.2 -19.6364
      vertex 75.2 74.6315 -10
      vertex 75.2 75.2 0
    endloop
  endfacet
  facet normal -1 0 0
    outer loop
      vertex 75.2 75.2 -19.6364
      vertex 75.2 73.4594 -10
      vertex 75.2 74.6315 -10
    endloop
  endfacet
  facet normal -1 0 0
    outer loop
      vertex 75.2 19.1499 -19.6364
      vertex 75.2 73.4594 -10
      vertex 75.2 75.2 -19.6364
    endloop
  endfacet
  facet normal -1 0 0
    outer loop
      vertex 75.2 16.7212 -8.21024
      vertex 75.2 73.4594 -10
      vertex 75.2 19.1499 -19.6364
    endloop
  endfacet
  facet normal -1 0 0
    outer loop
      vertex 75.2 73.4594 -10
      vertex 75.2 16.7212 -8.21024
      vertex 75.2 73.4594 0
    endloop
  endfacet
  facet normal -1 -0 0
    outer loop
      vertex 75.2 73.4594 0
      vertex 75.2 16.7212 -8.21024
      vertex 75.2 16.7212 0
    endloop
  endfacet
  facet normal -1 -0 0
    outer loop
      vertex 75.2 75.2 0
      vertex 75.2 74.6315 -10
      vertex 75.2 74.6315 0
    endloop
  endfacet
  facet normal 0 -1 0
    outer loop
      vertex 16.2909 75.2 0
      vertex 73.4599 75.2 -10
      vertex 73.4599 75.2 0
    endloop
  endfacet
  facet normal 0 -1 0
    outer loop
      vertex 19.0815 75.2 -19.6364
      vertex 73.4599 75.2 -10
      vertex 18.0073 75.2 -16.3305
    endloop
  endfacet
  facet normal 0 -1 0
    outer loop
      vertex 18.0073 75.2 -16.3305
      vertex 73.4599 75.2 -10
      vertex 16.2909 75.2 0
    endloop
  endfacet
  facet normal 0 -1 0
    outer loop
      vertex 74.631 75.2 -10
      vertex 75.2 75.2 0
      vertex 74.631 75.2 0
    endloop
  endfacet
  facet normal 0 -1 0
    outer loop
      vertex 75.2 75.2 -19.6364
      vertex 73.4599 75.2 -10
      vertex 19.0815 75.2 -19.6364
    endloop
  endfacet
  facet normal 0 -1 0
    outer loop
      vertex 74.631 75.2 -10
      vertex 75.2 75.2 -19.6364
      vertex 75.2 75.2 0
    endloop
  endfacet
  facet normal 0 -1 0
    outer loop
      vertex 73.4599 75.2 -10
      vertex 75.2 75.2 -19.6364
      vertex 74.631 75.2 -10
    endloop
  endfacet
  facet normal 0 0 1
    outer loop
      vertex 75.2 75.2 -19.6364
      vertex 53.6 28.2407 -19.6364
      vertex 75.2 19.1499 -19.6364
    endloop
  endfacet
  facet normal 0 0 1
    outer loop
      vertex 75.2 75.2 -19.6364
      vertex 42.2792 36.4657 -19.6364
      vertex 53.6 28.2407 -19.6364
    endloop
  endfacet
  facet normal 0 0 1
    outer loop
      vertex 75.2 75.2 -19.6364
      vertex 31.2918 48.6685 -19.6364
      vertex 42.2792 36.4657 -19.6364
    endloop
  endfacet
  facet normal 0 0 1
    outer loop
      vertex 75.2 75.2 -19.6364
      vertex 28.4446 53.6 -19.6364
      vertex 31.2918 48.6685 -19.6364
    endloop
  endfacet
  facet normal -0 0 1
    outer loop
      vertex 19.0815 75.2 -19.6364
      vertex 28.4446 53.6 -19.6364
      vertex 75.2 75.2 -19.6364
    endloop
  endfacet
  facet normal 0 0 1
    outer loop
      vertex 28.4446 53.6 -19.6364
      vertex 19.0815 75.2 -19.6364
      vertex 19.0815 53.6 -19.6364
    endloop
  endfacet
  facet normal 0 0 1
    outer loop
      vertex 75.2 19.1499 -19.6364
      vertex 53.6 28.2407 -19.6364
      vertex 53.6 19.1499 -19.6364
    endloop
  endfacet
  facet normal 0 0 1
    outer loop
      vertex 53.6 28.2407 0
      vertex 51.5455 19.8463 0
      vertex 53.6 16.7212 0
    endloop
  endfacet
  facet normal -0 0 1
    outer loop
      vertex 37.3945 30.1276 0
      vertex 53.6 28.2407 0
      vertex 42.2792 36.4657 0
    endloop
  endfacet
  facet normal 0 0 1
    outer loop
      vertex 53.6 28.2407 0
      vertex 37.3945 30.1276 0
      vertex 51.5455 19.8463 0
    endloop
  endfacet
  facet normal 0 0 1
    outer loop
      vertex 31.2918 48.6685 0
      vertex 37.3945 30.1276 0
      vertex 42.2792 36.4657 0
    endloop
  endfacet
  facet normal 0 0 1
    outer loop
      vertex 23.6602 45.3811 0
      vertex 31.2918 48.6685 0
      vertex 28.4446 53.6 0
    endloop
  endfacet
  facet normal 0 0 1
    outer loop
      vertex 31.2918 48.6685 0
      vertex 23.6602 45.3811 0
      vertex 37.3945 30.1276 0
    endloop
  endfacet
  facet normal 0 0 1
    outer loop
      vertex 28.4446 53.6 0
      vertex 20.1011 51.5455 0
      vertex 23.6602 45.3811 0
    endloop
  endfacet
  facet normal -0 0 1
    outer loop
      vertex 16.2909 53.6 0
      vertex 20.1011 51.5455 0
      vertex 28.4446 53.6 0
    endloop
  endfacet
  facet normal 0 0 1
    outer loop
      vertex 10.1876 73.5167 0
      vertex 16.2909 75.2 0
      vertex 10.2716 73.7752 0
    endloop
  endfacet
  facet normal 0 0 1
    outer loop
      vertex 10.0517 73.2813 0
      vertex 16.2909 75.2 0
      vertex 10.1876 73.5167 0
    endloop
  endfacet
  facet normal 0 0 1
    outer loop
      vertex 9.86987 73.0794 0
      vertex 16.2909 75.2 0
      vertex 10.0517 73.2813 0
    endloop
  endfacet
  facet normal 0 0 1
    outer loop
      vertex 16.2909 75.2 0
      vertex 9.86987 73.0794 0
      vertex 16.2909 53.6 0
    endloop
  endfacet
  facet normal -0 0 1
    outer loop
      vertex 9.65 72.9196 0
      vertex 16.2909 53.6 0
      vertex 9.86987 73.0794 0
    endloop
  endfacet
  facet normal -0 0 1
    outer loop
      vertex 9.40172 72.8091 0
      vertex 16.2909 53.6 0
      vertex 9.65 72.9196 0
    endloop
  endfacet
  facet normal -0 0 1
    outer loop
      vertex 9.13589 72.7526 0
      vertex 16.2909 53.6 0
      vertex 9.40172 72.8091 0
    endloop
  endfacet
  facet normal -0 0 1
    outer loop
      vertex 8.86411 72.7526 0
      vertex 16.2909 53.6 0
      vertex 9.13589 72.7526 0
    endloop
  endfacet
  facet normal 0 0 1
    outer loop
      vertex 4.90909 51.5455 0
      vertex 8.86411 72.7526 0
      vertex 8.59828 72.8091 0
    endloop
  endfacet
  facet normal 0 0 1
    outer loop
      vertex 4.90909 51.5455 0
      vertex 8.59828 72.8091 0
      vertex 8.35 72.9196 0
    endloop
  endfacet
  facet normal 0 0 1
    outer loop
      vertex 4.90909 51.5455 0
      vertex 8.35 72.9196 0
      vertex 8.13013 73.0794 0
    endloop
  endfacet
  facet normal 0 0 1
    outer loop
      vertex 4.90909 51.5455 0
      vertex 8.13013 73.0794 0
      vertex 7.94828 73.2813 0
    endloop
  endfacet
  facet normal 0 0 1
    outer loop
      vertex 4.90909 51.5455 0
      vertex 7.94828 73.2813 0
      vertex 7.81239 73.5167 0
    endloop
  endfacet
  facet normal 0 0 1
    outer loop
      vertex 4.90909 78.5455 0
      vertex 7.72841 73.7752 0
      vertex 7.7 74.0455 0
    endloop
  endfacet
  facet normal 0 0 1
    outer loop
      vertex 4.90909 78.5455 0
      vertex 7.81239 73.5167 0
      vertex 7.72841 73.7752 0
    endloop
  endfacet
  facet normal 0 0 1
    outer loop
      vertex 4.90909 51.5455 0
      vertex 7.81239 73.5167 0
      vertex 4.90909 78.5455 0
    endloop
  endfacet
  facet normal 0 0 1
    outer loop
      vertex 16.2909 53.6 0
      vertex 4.90909 51.5455 0
      vertex 20.1011 51.5455 0
    endloop
  endfacet
  facet normal 0 0 1
    outer loop
      vertex 8.86411 72.7526 0
      vertex 4.90909 51.5455 0
      vertex 16.2909 53.6 0
    endloop
  endfacet
  facet normal 0 0 1
    outer loop
      vertex 78.5455 78.5455 0
      vertex 75.2 16.7212 0
      vertex 78.5455 5.44694 0
    endloop
  endfacet
  facet normal -0 -0 1
    outer loop
      vertex 75.2331 9.52876 0
      vertex 78.5455 5.44694 0
      vertex 75.2 16.7212 0
    endloop
  endfacet
  facet normal 0 0 1
    outer loop
      vertex 75.2 16.7212 0
      vertex 75.317 73.7752 0
      vertex 75.2331 73.5167 0
    endloop
  endfacet
  facet normal 0 0 1
    outer loop
      vertex 78.5455 5.44694 0
      vertex 75.317 9.27028 0
      vertex 75.3455 9 0
    endloop
  endfacet
  facet normal 0 0 1
    outer loop
      vertex 75.2 16.7212 0
      vertex 75.2331 73.5167 0
      vertex 75.2 73.4594 0
    endloop
  endfacet
  facet normal 0 0 1
    outer loop
      vertex 78.5455 5.44694 0
      vertex 75.2331 9.52876 0
      vertex 75.317 9.27028 0
    endloop
  endfacet
  facet normal 0 0 1
    outer loop
      vertex 75.2 16.7212 0
      vertex 75.0972 9.76412 0
      vertex 75.2331 9.52876 0
    endloop
  endfacet
  facet normal 0 0 1
    outer loop
      vertex 75.2 16.7212 0
      vertex 74.9153 9.96609 0
      vertex 75.0972 9.76412 0
    endloop
  endfacet
  facet normal 0 0 1
    outer loop
      vertex 75.2 16.7212 0
      vertex 74.6954 10.1258 0
      vertex 74.9153 9.96609 0
    endloop
  endfacet
  facet normal 0 0 1
    outer loop
      vertex 75.2 16.7212 0
      vertex 74.4472 10.2364 0
      vertex 74.6954 10.1258 0
    endloop
  endfacet
  facet normal 0 0 1
    outer loop
      vertex 75.2 16.7212 0
      vertex 74.1813 10.2929 0
      vertex 74.4472 10.2364 0
    endloop
  endfacet
  facet normal 0 0 1
    outer loop
      vertex 75.2 16.7212 0
      vertex 73.9096 10.2929 0
      vertex 74.1813 10.2929 0
    endloop
  endfacet
  facet normal 0 0 1
    outer loop
      vertex 75.2 16.7212 0
      vertex 73.6437 10.2364 0
      vertex 73.9096 10.2929 0
    endloop
  endfacet
  facet normal 0 0 1
    outer loop
      vertex 75.2 16.7212 0
      vertex 73.3955 10.1258 0
      vertex 73.6437 10.2364 0
    endloop
  endfacet
  facet normal 0 0 1
    outer loop
      vertex 75.2 16.7212 0
      vertex 73.1756 9.96609 0
      vertex 73.3955 10.1258 0
    endloop
  endfacet
  facet normal 0 0 1
    outer loop
      vertex 75.2 16.7212 0
      vertex 72.9937 9.76412 0
      vertex 73.1756 9.96609 0
    endloop
  endfacet
  facet normal -0 0 1
    outer loop
      vertex 53.6 16.7212 0
      vertex 72.9937 9.76412 0
      vertex 75.2 16.7212 0
    endloop
  endfacet
  facet normal 0 0 1
    outer loop
      vertex 72.7739 9.27028 0
      vertex 53.6 16.7212 0
      vertex 72.7455 9 0
    endloop
  endfacet
  facet normal 0 0 1
    outer loop
      vertex 72.8578 9.52876 0
      vertex 53.6 16.7212 0
      vertex 72.7739 9.27028 0
    endloop
  endfacet
  facet normal 0 0 1
    outer loop
      vertex 72.9937 9.76412 0
      vertex 53.6 16.7212 0
      vertex 72.8578 9.52876 0
    endloop
  endfacet
  facet normal 0 0 1
    outer loop
      vertex 75.317 73.7752 0
      vertex 78.5455 78.5455 0
      vertex 75.3455 74.0455 0
    endloop
  endfacet
  facet normal 0 0 1
    outer loop
      vertex 78.5455 78.5455 0
      vertex 75.317 74.3157 0
      vertex 75.3455 74.0455 0
    endloop
  endfacet
  facet normal -0 0 1
    outer loop
      vertex 75.2 75.2 0
      vertex 75.317 74.3157 0
      vertex 78.5455 78.5455 0
    endloop
  endfacet
  facet normal 0 0 1
    outer loop
      vertex 75.317 74.3157 0
      vertex 75.2 75.2 0
      vertex 75.2331 74.5742 0
    endloop
  endfacet
  facet normal -0 0 1
    outer loop
      vertex 74.4472 75.2818 0
      vertex 75.2 75.2 0
      vertex 78.5455 78.5455 0
    endloop
  endfacet
  facet normal 0 0 1
    outer loop
      vertex 75.2 75.2 0
      vertex 74.4472 75.2818 0
      vertex 74.631 75.2 0
    endloop
  endfacet
  facet normal 0 0 1
    outer loop
      vertex 78.5455 78.5455 0
      vertex 74.1813 75.3383 0
      vertex 74.4472 75.2818 0
    endloop
  endfacet
  facet normal 0 0 1
    outer loop
      vertex 78.5455 78.5455 0
      vertex 73.9096 75.3383 0
      vertex 74.1813 75.3383 0
    endloop
  endfacet
  facet normal 0 0 1
    outer loop
      vertex 78.5455 78.5455 0
      vertex 73.6437 75.2818 0
      vertex 73.9096 75.3383 0
    endloop
  endfacet
  facet normal 0 0 1
    outer loop
      vertex 78.5455 78.5455 0
      vertex 73.4599 75.2 0
      vertex 73.6437 75.2818 0
    endloop
  endfacet
  facet normal 0 0 1
    outer loop
      vertex 78.5455 78.5455 0
      vertex 16.2909 75.2 0
      vertex 73.4599 75.2 0
    endloop
  endfacet
  facet normal 0 0 1
    outer loop
      vertex 10.2716 73.7752 0
      vertex 16.2909 75.2 0
      vertex 10.3 74.0455 0
    endloop
  endfacet
  facet normal 0 0 1
    outer loop
      vertex 16.2909 75.2 0
      vertex 10.2716 74.3157 0
      vertex 10.3 74.0455 0
    endloop
  endfacet
  facet normal 0 0 1
    outer loop
      vertex 16.2909 75.2 0
      vertex 10.1876 74.5742 0
      vertex 10.2716 74.3157 0
    endloop
  endfacet
  facet normal 0 0 1
    outer loop
      vertex 16.2909 75.2 0
      vertex 10.0517 74.8096 0
      vertex 10.1876 74.5742 0
    endloop
  endfacet
  facet normal 0 0 1
    outer loop
      vertex 16.2909 75.2 0
      vertex 9.86987 75.0115 0
      vertex 10.0517 74.8096 0
    endloop
  endfacet
  facet normal -0 0 1
    outer loop
      vertex 4.90909 78.5455 0
      vertex 16.2909 75.2 0
      vertex 78.5455 78.5455 0
    endloop
  endfacet
  facet normal 0 0 1
    outer loop
      vertex 16.2909 75.2 0
      vertex 9.65 75.1713 0
      vertex 9.86987 75.0115 0
    endloop
  endfacet
  facet normal -0 -0 1
    outer loop
      vertex 9.40172 75.2818 0
      vertex 16.2909 75.2 0
      vertex 4.90909 78.5455 0
    endloop
  endfacet
  facet normal 0 0 1
    outer loop
      vertex 16.2909 75.2 0
      vertex 9.40172 75.2818 0
      vertex 9.65 75.1713 0
    endloop
  endfacet
  facet normal 0 0 1
    outer loop
      vertex 9.40172 75.2818 0
      vertex 4.90909 78.5455 0
      vertex 9.13589 75.3383 0
    endloop
  endfacet
  facet normal 0 0 1
    outer loop
      vertex 7.72841 74.3157 0
      vertex 4.90909 78.5455 0
      vertex 7.7 74.0455 0
    endloop
  endfacet
  facet normal 0 0 1
    outer loop
      vertex 7.81239 74.5742 0
      vertex 4.90909 78.5455 0
      vertex 7.72841 74.3157 0
    endloop
  endfacet
  facet normal 0 0 1
    outer loop
      vertex 7.94828 74.8096 0
      vertex 4.90909 78.5455 0
      vertex 7.81239 74.5742 0
    endloop
  endfacet
  facet normal 0 0 1
    outer loop
      vertex 8.13013 75.0115 0
      vertex 4.90909 78.5455 0
      vertex 7.94828 74.8096 0
    endloop
  endfacet
  facet normal 0 0 1
    outer loop
      vertex 8.35 75.1713 0
      vertex 4.90909 78.5455 0
      vertex 8.13013 75.0115 0
    endloop
  endfacet
  facet normal 0 0 1
    outer loop
      vertex 8.59828 75.2818 0
      vertex 4.90909 78.5455 0
      vertex 8.35 75.1713 0
    endloop
  endfacet
  facet normal 0 0 1
    outer loop
      vertex 8.86411 75.3383 0
      vertex 4.90909 78.5455 0
      vertex 8.59828 75.2818 0
    endloop
  endfacet
  facet normal 0 0 1
    outer loop
      vertex 9.13589 75.3383 0
      vertex 4.90909 78.5455 0
      vertex 8.86411 75.3383 0
    endloop
  endfacet
  facet normal 0 0 1
    outer loop
      vertex 75.2 16.7212 0
      vertex 78.5455 78.5455 0
      vertex 75.317 73.7752 0
    endloop
  endfacet
  facet normal -0 0 1
    outer loop
      vertex 75.317 8.72971 0
      vertex 78.5455 5.44694 0
      vertex 75.3455 9 0
    endloop
  endfacet
  facet normal -0 0 1
    outer loop
      vertex 75.2331 8.47124 0
      vertex 78.5455 5.44694 0
      vertex 75.317 8.72971 0
    endloop
  endfacet
  facet normal -0 0 1
    outer loop
      vertex 75.0972 8.23588 0
      vertex 78.5455 5.44694 0
      vertex 75.2331 8.47124 0
    endloop
  endfacet
  facet normal -0 0 1
    outer loop
      vertex 74.9153 8.03391 0
      vertex 78.5455 5.44694 0
      vertex 75.0972 8.23588 0
    endloop
  endfacet
  facet normal -0 0 1
    outer loop
      vertex 74.6954 7.87417 0
      vertex 78.5455 5.44694 0
      vertex 74.9153 8.03391 0
    endloop
  endfacet
  facet normal -0 0 1
    outer loop
      vertex 74.4472 7.76363 0
      vertex 78.5455 5.44694 0
      vertex 74.6954 7.87417 0
    endloop
  endfacet
  facet normal -0 0 1
    outer loop
      vertex 74.1813 7.70712 0
      vertex 78.5455 5.44694 0
      vertex 74.4472 7.76363 0
    endloop
  endfacet
  facet normal -0 0 1
    outer loop
      vertex 73.9096 7.70712 0
      vertex 78.5455 5.44694 0
      vertex 74.1813 7.70712 0
    endloop
  endfacet
  facet normal 0 0 1
    outer loop
      vertex 73.6437 7.76363 0
      vertex 78.5455 5.44694 0
      vertex 73.9096 7.70712 0
    endloop
  endfacet
  facet normal 0 0 1
    outer loop
      vertex 51.5455 5.44694 0
      vertex 73.6437 7.76363 0
      vertex 73.3955 7.87417 0
    endloop
  endfacet
  facet normal 0 0 1
    outer loop
      vertex 51.5455 5.44694 0
      vertex 72.7455 9 0
      vertex 53.6 16.7212 0
    endloop
  endfacet
  facet normal 0 0 1
    outer loop
      vertex 72.7455 9 0
      vertex 51.5455 5.44694 0
      vertex 72.7739 8.72971 0
    endloop
  endfacet
  facet normal 0 0 1
    outer loop
      vertex 72.7739 8.72971 0
      vertex 51.5455 5.44694 0
      vertex 72.8578 8.47124 0
    endloop
  endfacet
  facet normal 0 0 1
    outer loop
      vertex 72.8578 8.47124 0
      vertex 51.5455 5.44694 0
      vertex 72.9937 8.23588 0
    endloop
  endfacet
  facet normal 0 0 1
    outer loop
      vertex 72.9937 8.23588 0
      vertex 51.5455 5.44694 0
      vertex 73.1756 8.03391 0
    endloop
  endfacet
  facet normal 0 0 1
    outer loop
      vertex 73.1756 8.03391 0
      vertex 51.5455 5.44694 0
      vertex 73.3955 7.87417 0
    endloop
  endfacet
  facet normal 0 0 1
    outer loop
      vertex 73.6437 7.76363 0
      vertex 51.5455 5.44694 0
      vertex 78.5455 5.44694 0
    endloop
  endfacet
  facet normal 0 0 1
    outer loop
      vertex 51.5455 5.44694 0
      vertex 53.6 16.7212 0
      vertex 51.5455 19.8463 0
    endloop
  endfacet
  facet normal 0 0 1
    outer loop
      vertex 75.2331 74.5742 0
      vertex 75.2 75.2 0
      vertex 75.2 74.6315 0
    endloop
  endfacet
endsolid OpenSCAD_Model
